<mxfile host="app.diagrams.net" modified="2024-06-10T06:32:19.349Z" agent="Mozilla/5.0 (Macintosh; Intel Mac OS X 10_15_7) AppleWebKit/537.36 (KHTML, like Gecko) Chrome/125.0.0.0 Safari/537.36" etag="dO5QNrDMR9S9Jy93Cnfr" version="24.5.2" type="device">
  <diagram id="xsOxmapLbArKX1TpTu3b" name="Page-1">
    <mxGraphModel dx="1834" dy="1186" grid="0" gridSize="10" guides="1" tooltips="1" connect="1" arrows="1" fold="1" page="0" pageScale="1" pageWidth="827" pageHeight="1169" math="0" shadow="0">
      <root>
        <mxCell id="0" />
        <mxCell id="1" parent="0" />
        <mxCell id="1pyIkd-k8ch_ByLnTKlP-10" value="" style="sketch=0;points=[[0,0,0],[0.25,0,0],[0.5,0,0],[0.75,0,0],[1,0,0],[0,1,0],[0.25,1,0],[0.5,1,0],[0.75,1,0],[1,1,0],[0,0.25,0],[0,0.5,0],[0,0.75,0],[1,0.25,0],[1,0.5,0],[1,0.75,0]];outlineConnect=0;fontColor=#232F3E;gradientColor=#F78E04;gradientDirection=north;fillColor=#D05C17;strokeColor=#ffffff;dashed=0;verticalLabelPosition=bottom;verticalAlign=top;align=center;html=1;fontSize=12;fontStyle=0;aspect=fixed;shape=mxgraph.aws4.resourceIcon;resIcon=mxgraph.aws4.lambda;" parent="1" vertex="1">
          <mxGeometry x="197" y="403" width="40" height="40" as="geometry" />
        </mxCell>
        <mxCell id="L_KWcjH4mNL9vExOsYk5-8" value="" style="rounded=0;whiteSpace=wrap;html=1;fillColor=#A9C4EB;gradientColor=none;dashed=1;" parent="1" vertex="1">
          <mxGeometry x="540" y="-30" width="230" height="380" as="geometry" />
        </mxCell>
        <mxCell id="L_KWcjH4mNL9vExOsYk5-4" value="Get Response" style="sketch=0;points=[[0,0,0],[0.25,0,0],[0.5,0,0],[0.75,0,0],[1,0,0],[0,1,0],[0.25,1,0],[0.5,1,0],[0.75,1,0],[1,1,0],[0,0.25,0],[0,0.5,0],[0,0.75,0],[1,0.25,0],[1,0.5,0],[1,0.75,0]];outlineConnect=0;fontColor=#232F3E;gradientColor=#F78E04;gradientDirection=north;fillColor=#D05C17;strokeColor=#ffffff;dashed=0;verticalLabelPosition=bottom;verticalAlign=top;align=center;html=1;fontSize=12;fontStyle=0;aspect=fixed;shape=mxgraph.aws4.resourceIcon;resIcon=mxgraph.aws4.lambda;" parent="1" vertex="1">
          <mxGeometry x="269.24" y="280" width="40" height="40" as="geometry" />
        </mxCell>
        <mxCell id="L_KWcjH4mNL9vExOsYk5-5" value="" style="shape=image;aspect=fixed;image=data:image/png,iVBORw0KGgoAAAANSUhEUgAAAMQAAADECAYAAADApo5rAAAABGdBTUEAALGPC/xhBQAAACBjSFJNAAB6JgAAgIQAAPoAAACA6AAAdTAAAOpgAAA6mAAAF3CculE8AAAABmJLR0QA/wD/AP+gvaeTAAAACXBIWXMAAA7DAAAOwwHHb6hkAABb00lEQVR42t29d7xdR3ku/Kx9io66LNmyVa1iWZYl23Lv3caAbbAhQAjBwIUEJ9w0IOUj5ZqbLxBy8yW5KaRgU1KBYCAxuOJu3ItkybK61WVZVu/SOXu+P/Zea73lmVlrHyt1fj/p7Jk1a+bt7ztlzWSn/fHnQpZlkMnm0c4XpVnrv0z8NlXTZVn+K4P/k0XzZSu6jMGb6RdKeA0ineFg4a+Jg6Wf7sTjYOG3ZRR+1bvCKQMQBA6ZJ05tHjC+MR54njAeeHjZc08ugoMDSZbVkalWJw3USSG0SWqK8//E8xBcDbAX49VCRd63G4KpEFi/ASGFg3wWAduClEQ1+N/qnVQfIQ5rYO+aB0E9INWDJFGcRywf2pTsOAUjg7T9UHJJ4JPBs9ThEHiztrSgSOA1G63GvYA5IZPoCCXQgiGUQryviW8lJRQIqXaU0Bn4IjA7HJwkZiYv4BH5AP88qHwQDGbGQlMkGKXOy4KikWFSMDi16Z2pRoIUIa0tDEcDr6V3CWYwxYHgEJRUWpnJ86pnk8/fT7KjwC/UU2KJg8xLWK0MhbK/RglboEhJ4IO1XFEGWMsbqEaHKiXwskotL4W3aMLgQDyFZ0gwjs8yBCVOSfjlU+bpCD9Tih6kePh3RSPEm3j4YXmiDJOSrhKHOPlLGhO58TxIEcIaJoaDlSutTRaHoNrm9A0INUMmT0dDFcsAAQ5xdZKcGVh7HgEuyKHSU1SGMjQGcegR+BkxIv0VOAXOkJAUD6cUxN0gJq5O0QOoYttXrdcvCrQVENaXox/HgfpRjmdUhlgZg8B4xBC40AFohBBS8lAg4kXRWCVUMC1i14JvSAkQsxIJLfPEJ3ltyeEFysDrFD3qKYRFCpLNBN6EIrGQ1fEvMCsb4jyhKcR/OatqLIkNb1jT8oEdZAfTgDWskWY8DyI4Oh4bT2FbbDfYiDVmGeStUvAzIRGlqLSyqkvvqiloVbx27xELmrJaVeFN0jMQFlKrWKurSIcGKyagVMhKgQpG8uLhE0OVmUgLWSJ00j15Qql82nAqnAz8cb54pQ6hHTIVoUciPGm97y2vp2E0QheD7RANPbiYRJAzyOiBfPBu2sJrGSkGeZZBxRiAzqhxz5GE17xQDlIVgdOeg1loGX9bHIKuE+VRjC8CnGCe5/BVGhILGzO28HKl0BMtBc9QgxdRfAm/wCED0EhGOpF43DIgRBigNdCbVGallKVSik7tHKGlV1pT4HBySuxmqKShsMDmj7WV4nwySmvpbXAyos1xsorOyoylVWoYgqlDSCR5GAh8CpwaSkzgZTJk6R0kfFIxkm7d+jNvXIOo06AIxYif5xkDDDh+NgrxfAUy8DwzDDFiWmdKNjVQTYGZrONcQLK4oBQVMu3tnKKTvkMKhwQyNIRlxipFGaVpwXmLOoapLrxpHEqlNyA5Y+YMlwyZUq6Pr0uwvBUAb2lD+bMELOi8pq9nOx+UphkQi19lRllk4bq1EIt41uBg6SA9R6QzBECvLcif1ptwCYiRX3g2IgxBdUQV1VDAWLyg+GxRy2w5QYIrScRQGUZombWeTTyTcmXFxmoMkivVFSoamOu2Gud+EoQjCBm2VDEcgFuOr/RMbl0lEByEmgimMEvGVoCVLXImSdLM23xHciJAMQ+ugOKMaD2i661CmgxD2dqLxsHySLbP4XUKZUJWv8gqeqshQ7pxLo/5/+XC3CBCj+I9y6SYlnty+faslhMBYvkCXsMAN3AlNGKFyZCPFssQx+BA3lNKIFB14dNgeADLdFPLKoXFIatoK7D25UNN847XiiIpvfWGtWeVRD+3xjsAaPhBXrWbc6unlSvEot+S80WehUsKIdKQEiqnBHFah4hVrTN7o7029xyUCYzyqrbrzAgt8wKe3gG0UxdulACWVl96hcQkFKNoAa+LQAz9HA6WB6abQHBIewrhj6s8h/pT9tyoAp5pOEsxpTA+hxPTlbmGKhACfUfB1qmlDa5Ew1vtQNQ7icVR7rk8geOwCtC07oVaFBfoktYjhsr2V8FHZsnrzgByilJCppuLRhtlhQZDkHmKOhsAY4pjrWjUdVe48thAW2lMgQPxFDU8g+82sXbBPIWB1zYe3Pseh2DyRS9s4qBSqPi8v/dsnCd1La2lYUFv573rwGt5Yj2F9wzMexfNm7Uj5RUMzxvCcXo8zaR6HUvL5pwtwbyQRVwfM6kSoYQSFztRK4TKpaopWaoUgilJpYi8r8ITo/JUqCyJWfihJTvp/Yq83emrYY4ZJhf2Bvqa6MrY9+Dlhm1qtHzSoMYV3Xk7q+hChhreh1pnVMOdmxRSVipK8PpWCixvhCrA0aU+vAAqrZQFI9GRFhj6okbBKrpTAgIvDTdsvkopPBUKcDrCIZg+iRGqmuwAgd/JUaBvBdYKqcrGeQ2NhtWwCJBkm0RlslYKGemGr0dr4LmVKsEOKd4K6pqyqpmPoGxogs58XSVTDVtXbeGJUSEBX4TmHgfdDftoR0cZwuuaBRPq/fIyGaYYgKPiRRrks5gxoE1p0I9jSix50mBte60noYfDxSuJ3+Blwxvj9qSbI6aL6V3UiylieFfOVC8288Fob1vSfXorqq2sQ43T1mbYZIfypsERqWrgyratxKgaG9cxZJiuuJkFKzMW3pTRkWSxNLN8ScU6xjA1Sh4Si2TmxKlVTa6mxkjlTZFHiFsp1YYVcDbvlwg1WNOVK/KUHnSTt0GX4+BWuCMaWBpeYbFj1K302N6UBkS8s3IX7HsKOByo0ivWSAHNKA/UHqtK781kqOSLUpIAL1cCtkZswwf1AjnZvAFUyCjGtRFK8h2svYiWMytLZE15AStQNn5NKUUwDIoywHzeSYWsfN02xwZ5FkFrqAoxZWMg663t6i/1bG0lU4puJwskCQRshC8F1NazKRzyXatpJXafpJJ1Cydnmh2uzI6JQpCfkFpMgpypYVyVtAyOAQQj14BWsLhb0xotXbXxNh4wTlwCiZvN6XRF2AoZrRgzAxb3YMieEVyIhFZ5uxB/PW8jQTbn6eK/tOVlQspx4DBF81WD6rTLph03ZBlDy1pa1ahoN6tyffCWN3+zbLJQL0fFCvth6EMwIau7LtxzH3V5hnlXzj78926ZWvxgG/eeIlc0iQOxD86fljzRZc7K0kFqAgdqmCI0V8UBtFiVGW8Sgv/SzuIZnVIOxXNBQd9x0WXrQbkwJx4GUZk2AFOnAIGLbVIpmOtzdLduuY1k8AyJLbxYnPScuxCWThcgAyJCpRkk0FXI0phcE8i2qN83hsl/6EU5Ytqzm+fiOHhgDPMcMyUPtCENpO2gmUjpz/p3IaAFQ5oMYQwt3xp0nt+ywXtj0qFgiEn20Cq3cBRp3SNU8C+SIubH1lc7PEO0mVTywsasFGd6HIkIvRVaPlBJQNLuqs5erVSfmlpUSohhijduW9Qv0Jig1q4IzgP9KL1O0YioG+2LeQ470C4ar1AS9UoOfLBciCuFpVXVjgANf9yqMpJRHILpJAhaMHhtjENwUO8oEI1VNTzICBEqZ5pkeCrKtIGPCbzs33g/CSURJS5DuumyT+MrK3dFlGXSE1DDHck3QCprHtQwl45pnvHc9TGrlVAKQ+ySglwbHUNCBTZu6sc+rlAUHREIK6XDM79FImL7raJXeAqXqYI/4gVYI9GoKR2neENK4CegxsvIOkr1e9xbs7z6HqJyeb4wrpbzHOl6H50nyqIG1vffIlasZW160lZKWDyEaktbhVUNq6QoSJCXEFFPoTDUhqn6U04ClFVq5XnKd2KqHFuskzS3sKoWE96bkZoa2lCH8Na4FnuZAtTmAqk1wRBbkcC46Rwph2SKISS+dYM8Q3b/SMMrywJhUOFGg28PcAxgc/r2Odv7xISKWaU4DsIQ6cY1MZxiM9eYwCHkOBi+KBxaObvWUpCLCFmBg2pbG9ekDAXTVcE+ruhO/chkR3TrTbuThgOU+dxEMX1OAEvlc1BNgWMQHRgARqC4pdX0k2u83NsQ6qZxIDLIGw38edSqRtpXNYPLIVo3gQPhgYchMU5KpWB5QNCOevi8ZBDeOhgZlrpGDFUjhpcLn2BkQjVO/Czbt5JiRsT1KSJkFhmBUBCVYuFHMLBa7+fcuREyB161t3NnV8EIgaQg4YEltvMciuxB9GHx4YYIFF5ler23a2/MlDhoq55QSUlf9UQDW1JF4GOa9pM55Yq8Lq6a1cx7C+Vu17TuVZlP70CoEAxmNViGHybUcO/WsVhR6Yy8K4q6Gg1MGzMOl06dhVOOPQFDe3prjjHq7JKV/TFPl4Qy4h8IfevAG6qKOQ+S+mCQD/qHjwZgt5GINipmBEHOlHTkpd4Z6EYo38/7ybJQNFwuFoYi33rUjieDvImijWCx7tBuXP0JrXeKPoNep2grgC1rvR+QhQzIcnJm5ZRjBgVfC4csilPrzowSMAt2iVarzoljxuFXLrgW502ejq6sNfTavHcnfrxuJR5fuwILt6zH4YGBAqdW+5mCv/jZfh7afWdtehahXImOkpECh5C14RM8yEQ3JaqCZrKtkr65oZIXu5Q4ZKI9AVSRb1NHyIQSpgwIbUJmURnNlULilKEUkxJnuRkiE6vYIQR9iU7Rt1gDy6MDkhfijezkL34mFLC6m4E0V9TNOvYWHXmbjMtrith8K+sp9pZuBqpxk1H8ZqMy09fdjZtOOQufOPtSjBoylLJ0IDTx5r69eHz9Cjy6ZhleffN17Dt8yOOQKWgVUIPCIcKD2nypRXMDc+QmI8GOKLz0tqMkDxh93qIcRWQmL8lO/uJngsejihk1GJJlyjJmDtN6DKmDjGZIcYFUQgHqMWTK6HH4tUvejnMnTUcjbuJUCiFgw54deHbDa3hozTK8vGUDBkJTImRAZwphBawOvBn8nxqGqQZfBqfUHocs97cpnDpV6jpy5Qypv7Isf0crhOdCrbu9LIkZk5gABAY8RajKSnGGUKvrK+r74wD0dnXhvfPOwc+efTlG9A7BW0lv7NuDJ9atwMNrl+HVrZux/8hhAp8RnlBmOlNiK7ieidRLBPiyFD8sDyhP4vRmODCcxFNvbBPw1fMSggNtmmdZhuzkL3xajGA8AmkrZZnGGJJ5IJy8V2h5xCqx8IkRrQ68uVJMP+ZYfObi6zryCnXSQLOJLft24+mNq/Hga0uxfNuWlnI4UPxFkEZfK3HwZCeW1ypJikdWgGJ8oYYoq4BfAxuF15URxUb9fAwvqhCVbg2o7Sk4wY8CQoxJtVw3gx/oanThA6edi4+ffRlGR8YKRysFAJv27MTTG1bjkbXLseiNDTgyMOAFyvDF4dRhCOhvQ63ggVOMCtiKJp32WdBrwDsIGTJEGcy4tFSIKPHjCHUWPhlg6zCk1qC6jpUSZYQhJ409Hp+++G04d9J0bkn+DVMzNLHtwD48tnYFHl23HEvffB37jhyu8H4KkfSVwVaA3J8qpYDiWyr+rkXvCA9S+ZiSMPgGFVIJJc5mfeFXggWeCZjGIx4LMgbFGVIjnBrUrEFCqUW+p6sLPzH3HHzi7MswZugw/EenZgjYtGcnntm4Bo+sXYrFWzcpzyHQ64zmlqwRAcqyDL2NLozoHYLhPUPQ32xi1+EDODwwYCYGKkLYlGcmfOlsNq0sszhafDR4CaUQ8tdWiDyLpADFGFLpulPAx9xeJwM9yuCQxOmkscfjs5e8HedOno5OUggBj61djh+vXYmLpp6EsyeeiJFD+jpqo27auGcnvrbgx7hv9ZL2AlTcEFUOSiM8AYBj+obh4skzcenkk3DKuONVyNjfbGLdnu1Y+MYGPLR2OZZu34Jmex3DsIiO+1SdxBRzGqcS5trRRkWewQsA2azfaytEBFgWoxePO9Fy+ycxv+yAjZSxvGaAwSED+rp7cfOpZ+HW867sWJDf3L8Xf/3co7h7xUIcGWii0cgwbuhwnDNpOq6ePgennzAZo/uGeuv5FtLhgX586cn7cN/qVySmNmoCEyptV6whAoZ29+KdJ83DB089B+OGjqiE+vDAAF7csh5fXfQUVu3c6nlgvbMoc7AZHsWUoM7skzJ/LhpKh4TW25UKwV6wyASkEazhOZJa7tYukFYU67oTIV8G4MQx4/Drl1+P8yfP6GisEAA8s34V/uCJe7F+9/ZoPH7c8JE4a8KJuHrGqThv0nQM7emp3Ucqbdy9Ax/6/h3obzYTMXlV/K0zxw0dgd+48DqcM+HEjuHZd+Qw/nLB47j3tSV+pwFihslOM1sPXicCqQq5HcJ+jFExOZOd9Hu/HOpMnXlgLUAR4G1Z5p5WIFTh6todRIkPoK+nB++dew5+7oKrMbynF52m7736In7/8bvRbDaT8Ob5LMswckgfLpoyE1fPmIPTjp+MY/re2hjlfd/5K2zeu9vRW9NX4C7rtOUvp9uEkaPxB1fejKmjxg4anoHQxDcWP4N/fPV5v1XF8qiQfy5XGof42otQoaii11IKT7QC5m4XCLY3pxSd0+flT8DJa7lnqf1U7NLx+25cB7atgI5CkHz3ZZv40445Fv/PFTfgnLewrrB13x4MNJslFHqLlsuHELD70AHcu3Ix7lv1Co4bNhLnTDwRV047BWdNnIrhvX0dB1VDuq23URuWFAkdbcWGxpG9ffiti97xlpQBALqyBj4893xs2b8HD65dBvblQQs63X9UmGyZIW6wxLa/1H4t3W6x3yrTT5l36wbMRi7Tnt6M1kaRAJtvPMs3c7nNckWeKIXiW3szGgQMbgNg0BoeQrvJsqyn0YX3n3Yubj3/qqMz6I1uNrMb7IQgtGF/Y99u3LNiEe5ZuRjH9A3DBVNm4rITZ+GcCdPqw5ZvRhMCliketesJPmREgD56+oWYd9zEt04PAD2NBj41/1IseXMzNu3dpTdlajIpGgowC0mVGxpDW/qzmMURDZXth2LTY9aWCUmk1iZHkY98DtwtclqoAhCYWuW4ml2aQeUBqyjaU1gc1fZSJ2Q5sG6Hpt0lm7W8yfSxx+FzV9yIsydNO6qrzZ6CoIqd01MzpEWaHQf3454Vi3DfysUY0zcM50+ejitOnI3Lp82u2R9nRLnzVzw2O39njD4W75p1xlElwaghQ/HhuefjD555APknq1nSWNmdygSHdo1iN7AzvhpR6ynsBuw8Y8nXAi+fU2oVusOO3aFP7gMXo1npDfD0oxf7kY7oTDcL9rKoYz7I6coa+ND8C/G1n/gEzp18dLdeqL37Bc7Bwx9Uzmy7L583Q8D2A/tw74pX8Os/urNO75U8CPyNIt00+wz0dnUdRZq00sWTZmDSyNFlz5GvCSXZPLztsrgowctIyAXKi1KEDlVf/nTT7xHcOFZE8to/+zos1ss9RbDexsaH7fAMGdXoEmENcwgBM8eNx29d+W6cPXlaR8xshoDDA/3o607MCAlKq5DQ0KxFERLPSk/X5l5W4JhmkGWl5IEOzgSoxKqOGjIEF0+eWdED8Pj6FfjWqy9gxfY3MKK3D5dPnYVb5p2fnBQY3tOLiybOwLeXvajaUjJET+HjI0QdbZTRRx7x5E3p9uGiiyhPlMDlRS2ZauSZqAzkGfoppD39zud9q3mMa8ojWs0OI7Zpxtjx+PJNH+lYGbbv34vfffhf8fT61R29VwEyfxhIA4PoNHrsindHKk0edQyOHTYy2foPVy7C7/74HryydRMODwxg+4F9+N7yBfjNx/4Vuw4dSL47f/xkA1QcVhpUmAcVsQI9tZETxucD4oaoPIbGnUlkAHFWWnfgeGERJP1zVD0y9hSGAt52/tYLrsKEkWPQSXp49av46Hdux/eXvIAjA/2V9dlBBjofjNxbV+4Dmo6OuCkaykyeMcKf+zR99LjkzNbuQwdx+4If43BBixK2JW9uxl0rFyXBmz5mnD8yJhC5AjsLN3JwAcPR8MDSu+RBMMXk2M8i5MplNOgxBDuc2ALPT76QH8mLvEEwdrxKgYDIe89gY/ayziXTZqFu2rpvDz7/4Pfxq/d8G+t3ba9pqNsQWatUhrC6zOCkyMB420myAqSp42L0/IiYqnWQ5du3YMfBfQT+1q9nNq1Jvj+mvd2DKTq7L86SQZFCRCQuAiGelx7GYPKiBd5nO3Xz2M6+wMb/fvZJ59vxH/JQ0EWVZWX5jou/gfzbXcDHgwEBI3qrpy5DCHh87XL84WP3YN3ObXqaucNkZzqK+DaKVmjj4KP+OiEhZYqetInQt6xSNcHQ32zqFwxP+5sDyfcbWSP5XI1VrTwIHKykKRnK67jvtIOYZi5fVVOyeqEIcvGu1X6rrLvImEFqCXwo5obVB9tZKQwSQQ28pW+7juwukDpijtnymiloVXpz3x58+ekH8b1XXjCjk3ptFFYqNpng5vky8Sc4HKSi1030NBLXbXzyY9ehg8n2Z40dj2E9veVHSyETEVrA6cdNSr6/+9BBpUh2OlNQRhE1OMPEcEjRKZD2Sx64dQlpSdRUf+tJVK35XQ4eDuaANIh2DMHzOvyoYTJrHJOZp1+751u4c/HzaNqBTqirEtZ1w7tujS2sq7a1bXv1YCAOn56PC/MDWLtrW7LtsUOH4QNzzhGepHx54ojRuHn2/OT7a3en2ydE81jZ4VDxI3LquI3gk+GT7dUQqN1LcVBZnbsR+GHF8sx90xVTAjOmsMRX8V+BkwvWO5KlnQf3i7YT8W0ySRzKMQUB3DFOPY+8UxuEyGyf4glZO1qzcxt25HQgKUOGn553Pn72zEsxbuhwAEBXluHcE07EF6+4CScMH5UE7eU3NlI+sbO4qo/mF3IlcCgeiTqGOLoO44sAJ5jnABlDuHWJzDu0nIBFq3bvE/KYuf0T0OGGDLHYEMaMQ0rXR4LbUMPGB9+2dt+h1vuB9O/iWRkCZiLfxifLaVCAMhgcDNFsCNuuU6wQh5ZReG7TGrxtxqnRLrobDXzw1HPxntlnYvuBfRja3YtRQ/oqxx8HB/rxxMZVHie5HccGRnZMYcMnWyZCwILmBQ8gDkvgchUKvre3cMDA14a3dbZrSiCYRltL2+6AhU91uKxmnpwZNfbWuNU6C1vUK4Q6bybQCXUqiTJjpTQ5O4ydELO0vp0g6n9v2QIMyMFzJA3p6saEEaMxpm9ordX+l15fh9U73vR8sdFF8BLig5Y4DkiLqXuDhVSRTNGIONu1Anh35mc9V22oVKAcD59Ucw74cttHZ0JE76eoLYgShzKeVdPMAUaxZbTg2d7JGCh/p84CqlIwE38v2rIBD65Z2hHdqtKBI0fw1ZefRDP/xNTpKA8gYZ6V9DV1xXpYMBXL8KnEkwl9oA1D8SCnmR9UK1pqgN3MDuWpPQae6b0VEy1AFGYFfISgnaaQK3qtqnxsYJSWK7Eg1lvFwem0P5xY8UVYnwDgL194FGt21RgA10jNEPD1RU9h5Y6tYGJLwa86IDqvQxb0WBdyF4ZGV2iLEUi2dpT/aeiGiNhKQaTLzUzLuZBpDWZCFXlOgI/2D/5alCG1U33vYhfvHE7RfHX3lLKR8C0QGm/dtwe3PXoXtu3fO0g6lM39y/KF+M6yF4tdA6Xn1MZrUNchAES9ItdjsVAoq2grgKpvw7ruqL0USmGtKreyLL71M1I6rIgLDBPHQYt2CJ0rho6adPgUCZfki4E0FMjTwcJfd/YmAFix/Q388v3fxvLtWwZFv8MD/bhjwRP48xcfQX+zSYXUMo17AVs9cWy9CbFLIovwSXiFxCQUotIUYusQJu7jVskywHsKf4sO7czAGKLPleJ0ZFwHezWW7YMhEStzxKBrL3VxaFXs0NIGV1LA+9rON/Hp+7+Nf1z8jD5BMJGaIWDZ9i34jUe+j79f/Cz6B5q837rww8sMC/fqGkMbgTC+Me8t63XnQtb6Si0U06VyG3befNXqMP/yzrwZWlNpQHQmttWbms4MRaUgy/w+9Ur47Lbxei8K+GBwEjFsuW1Z5M1+jpKsJvitBwbdVdCik9xFgDgPClIG7Dx4AF9+/lH8y/KX8ZHTL8Q7T5oX7XvXwQP4g6fvx9ObXsOR9jYO/4lxyaA2tpJhRQguv5Mv9stVfhEZ+aBI8IR+zJZHUKmPjET94ou5ch85zPwsihbpcrxjSGhPq+v5YzYDrwnQQhDBA99qv9QehVDd+DvHizDg7178MR5Ysdi/166zetsbvj0hZKcfPwUfmn9hiV/RdOvHlr278cdP3qeIW6yr1FmDKMWJCpWv2l4xSe0dKr4dyLBx9w48tWF1UiF2HNqPx9evKNsQ76NkjeCnUHlmXNV+tDZOVq6yQoq0UhAelPkWIFkE55hhyuWs2yLDgK3DMr95ywuQ3ewnN064uzbIoMgsZykevJW0cPM6vPy6b8ldOE8YAmQYP2IUrj1pbrT91du34o+iVqkmhSsUn30wbzdh5p/YSoJquqb7b/GFwQ/PkzwcjHykwyKOyo/V5GKj4AHz1ppw5SJxi69xHIortZyxzV+OEN+GGxlZbnbjmMp1ADuw1vFwiFTtNOUWya29VL5oB31ZRyCw/Vx1B9XBVQueBmzGz73SwfVeJultelZmLDwauNTwsSbRot1kpM1C3AzhdAjrm3ffVDOEA3vTwc1WtANVgiC60KFA+YOSMviyusx0K6fk3UCUxO3cdzTpTCvpzHX9tzXDidDxK4N9Z2lKRHuvWP0lLdqM4kFws02xReEUEd06l+CL57EnhjRUDTdlyLQeQgCswFRt3rIIWYHXmuCAt9s6YjM1qZT3T7uyOLmXGXQJTxaHguRrjoHUWx4SOHmp8MQW9NowcBzYDlPWWV4s4WPhGlPsJCyFTPFdsdpdBGqn83wjqkkQT4IpY1JjS1JaLJSibC/Tebs6KVuKuOU6yX5KSJxOqUBBEzTK9w4Fqo6VZa8qgTKWNqkUgXnw0scMJrHFZDulybxQUC8IUxfSMlSuf0kF49P6mcoLRWFKIL1JMCGTUoBIbKZbE7DU2jEaV7tU+BFFppNEYyT5qGKrO+001BYpHc9KV11XqUMiJ0JCotiuXg360t6jFVmIogVeTF3GsSD7u9iRNlEitNtIUtTIof3VkMCXWi1cS0FEbRKLEKqdMgI8G1cwjfaew38kr9+xrro6MRyse88I05LfhNSP2jqqF32XrO66cM/OzrFBqfF8dZWSWnwbHhFPkVvz4mFwrBStajhaPCFyVWbITgkhtSasYXIl4e3WjZjP7nSmRFidRhcgv3nOmzEYlMP76HyyX+hpP/Kf3pqmO0stnNh0ID/piOOgzpGs2y9ZVwk11yF+Yu452HlgX/5ytF6dU81Zneljjq0BfylL5XoL+8bZv+eWIgP8/Kxcx2g3GP/Q1wianJItuqwQpsw3181W8lx9pRcZaawUEDq/DBt+sYWjTNOILmO3CRvQyefIKBWZ6KrqMwfPz+mr1eEC54jyRPkn6NshDu+be04nCP8bJS+E0Xn/dlWrAO2nkHKWV8hMmfrmKrIiL+sx++3FlS8S5+wpB9XUzQnwIuGT8UgloTredxN0/MfCKVG9kWWYP2kq/uzmWyrZeNu178UVM+egt9Fd4qRctT+zx/bH4B/a3YsbTpmPn7/g6koYBGfr1f3PmCrGPIEwz44pyqeaB8WKdidrQ8XEgJYjBaGdYSxywQlvQLF1o9Tq+GoqvIlVHqhc4WahTY6gXYlkGmzW9NXqZCPLcMr4ifjkhVfh8plz0kdQttOZk07En777w3hx4xp89blH8dTalfrYFcW0MnySdkQyqK+nB9ecNBcfPvNinHLchBphSqA4liu//zWSdHJFkGu9N0yMEYoAAKaY1YbLOKdUV4bgGolGTeKHG0O4fVWm6VJmvJIU36uKI8cLoYqEI6Fwu5Hl+Lz/DDjthCn4mQuvxhUz56Cnw0N7uxoNnDtlBs6ePB0LNq3FV555uFQMRSCpFIDcN9TX3YNrZs3Dx865FLPGHV+776awUvbY+k43KP5HJYcDDc0jhlXSVuBM6e3KQnvMEpeh2GCzPIKm/V8hl7nISbPXeomMIdoDvUwcSZ/3KZjoBt6tVsuBNjJqCeIIWYfUQqCr0cDpE6fgExdchUunzyYXh3SWGlmGsyZNw5/ddAte3rwOX3nmETyzbhUOt3dw5myX+7mG9fbiyplz8PFzL8eMseM7PlV8856dxaDBWqX/KlHU63t3aRyEEGp545MHKZmhMhSZ0LH3O6gxRRsIu/epiC8ie6EKJQbk/RDQloqNNk2KzB/QelXhUyCjzHkTpuAT51+Jq0+ei96ubhzN1N3owlmTpuMvbj4Rz294DV97/nE8/toyVacra+Cdp5yBW866GLPHTxyUIW+GgLuXvVwwqEWwSNz5nzQ1Q8B9q/JLH9lkRzQG0YlMbPjhNQmhEpTyEyA2xoLrMLSVNCM4dAubmJgtlZ4j19428EqjIaZgza5ZsmWZbR3PGg3Mn3QifuaCq3DVrLn/theeoHUE43lTZuLcKTPx0sY1uOO5R/HSprW4cuap+Pi5l2HG2PGDbnug2cTfL3hSby23s4IF1/5zpv5mE/+0+Fk8vGZZCar15lkpQzB2zcpQfiKg8hxtuhQD60KuytukgpQjtxVadFp4CukJ2CcJflZTDKoFXxJ90UQHNeIhuxuBNNjVaODU4yfj5y+5FpfMmF1rsMzBifeRShmAsyZNw+kTpuDNfXsxfsSoQStjf7OJRa+vxx3PP4an1q1sHf2SM8SEGnV7eGr9Kuw7fCiNADqYBs7kT8a5gG379+Lx9Sux4PX1xcXtcq0oCr8daBMZSnuAxKgaEaUAqjsgfdhq6nuIMhaMua9QajTyeoYyak1Cew6FkPAWw3uH4Levew/eNffsjgfLMm3ctQN/9/wT2HVwPz523mWYddyEjoOR7kYXThC34XSSmiFgweZ1uOO5R/HUupXFQFQSsZyNi3tmlv7ox/fhtR1bFV9KEpYtZJl+XvwZxD3gbp1Fhd6hjU/bKwB+nUWDpmfVisVRe0efntjUNJNtkSvWDJ7qC85CuItGkbszqb/dpfsuJ4RDflGvcWvxmYNMj4vMoNrQSqWurIHfftt78N7Tz6shFjyt2/Em/uHFJ/HdRc9hT/tQ33uXLcQ1J5+Gj517GeaMn9ixx+gk9TebWLBpLb76/GN4dsNqHBkoT8qOXhYpCFP70OXktHh6Nod/uhkXsryxAH/ItRqUOqEKZXiDrICluHlJ4hC5aUniEDqYbSrwTN1x58YxItyDDZmiPiwynWbVObFO4WeKW+SaNHosbpx3Vi2BsOn13bvwty88hjtffg47D+xXFunAkSP4wZIX8eCKxbh21jz8zAVXYeaxxx/V4WsIAS9tXouvPf84nly7olAEO1lgB318Lb/j3qM8ccfAc4a4afIcXntVgP/yrvUzTctBDrSrwjG/MAHUUGzdmJ+izbPdsoTPzxoGwNsiVUe5QhJOGQ2fPf6EjmeQNuzajr97/nF8a8HTOHDksCGQwDUA+w8fxr8ueRF3L12It59yOj567mU4dfykt+QxmiHghQ2v4esvtGem7Kebqe+DCyuaJeXEpfy9wnsLHtgY3XprcxOqZmzmBooZ2VqjPUMZLhUD4czuVTJ1wOC1SiznokWZnG7NcZD6lnVAxxwfMkWL4uJ25FNRROCDpp2Gr1QApoDyI3S1mU7U7q45ZggI2Lx7J77+7GP418UvYPuBvYLUoSCgHrjmDG9d+PGDJS/hoRVLcMVJc/Cz51+FWccdX3nRh0z9zQG8vHkDvvLsw3h2/ery+qk64YdDyJ4kUYOLBSViM4JkAAqrFP5ebSnUUXCYs5FTSoUCtNpWVdV4ogyF+IkqzsQSw2GUJDDjq+GlGzddOBVMyGSVgCoJ4LTcLroUTWVKKXQ8WyJUlTbv3olvPPco7lz4HHaJI93diddOQIQItPP7jxzC3a8uxEMrluCak+fiE+ddidnjJyT7DyHgpU1rcfuzj+DJtSvR3xwo/aeYQUsOj6kFE7t86yTj/TKjTS0hE/SXo2o62WHHedpTME/nDzIou4grTdtTGO/kccjcwDv/Y+EtlBilYkPQ0o05IlG9Bbvbj+qtPxKDDuPqnFIoGZFKQC5izxlQYR3X79yGd93+h9jbHixXLtnTUxi8oh/sP4wfLFmAB5Yvxl+856O4eNrJURj+ccFT+INHfoiB5kBUqOoIED+3qmRmVSrR1QPV5NVSiAlQm6uOJ1ASU6kUdAXensVVlpUiVvJE4+CnCBwrYSKOFA/sOIl9fiA8XXcN26aJa+NVi4aNB9VTN8SvFIVD/UcKZeAMYZ7CKgkDNWu331/MTMXSrgP7S6+gIzFvGSsEim99r0F3xKvT/WckhOI8sKNkEnZVKnYZE/U0utDX04MxfcOQAdhz+CD2HTmsj7wkfFIhX4gJvGwhPpKtyPpQSeDUXWqvHfS1OnWb0QpJYFaKKIWZxZDTCnXsYmtHcLXrLhRbWV05MRAP/+omSvzUzE0Oi12RtzjUcxAlBCTUcPSFEDJ1X5wGm1KFjIkYLLnM9DS6cOaEqXjbjFNx+vGTMXHkmGJRM4SArfv34pWtm/DQmqV4ZtNr2H/kiIs2IoApJWazUcVPleezZ5W7ZIsxhIj3C72Jhh/Wy1jXZ5Wi5FtsYF1LFIxQ+UUXWF0FTCyaAy1CW1G5CgDZVEnwkmElAwqhqjH7VHu2K2jO24FqaEu8EjIl8ICeAQTcvL/CoR2Dm810BQ/az+afMAU/d84VmHPsBHQ3/ARFlmUYP3wkxg+fjctPPBnrd+/AVxc8gUfXrRAr+Na4lvBmRCkg4RVjiEx4OjZWpTIkngP5DULtl52lyr2FyUcq0nyQeVmtxvihWkjIeTyRb54LCylPWajbTQoH2X7QdeqcMVT/3Ivgfge45nUdx6oQbVbJgaWpI3tAd9bALadfiD++7gM4bfwkqgw2NbIMJ44ei/912Y34tYuuw7Ce3tTZErx7woayLJR4y0esDVlHdNJgBAiuschZDSFFP8uQQIorqEEJxOD1QuaV2MLqiVejd/9LKLZSCt89xyEQnBK9B0tP01GI8CT3IPojf00D1jTDqbvRwKcvehs+efZlGDKIXciNLMM7Z87D7191M4b3DjFUlUfZG5mxBke848skDlZJggtQ8iNuGkUFQ0F2CLl1EFHemAelzDArW4OCVXWini0knquqlR0oprlmQ+23B50szSQzQp2XDBwRHlYpRQbgg6edj5tmz3/L22HOPGEqPnP+Nejt6uL6HQUsUFFKk5nIODFEjbyuO/VMWT14IROVCu2V4UjEM/h8dbJnDkUvDIngXzLUHnFTSUXViPN+EXoVFinilg2BOkjKrpvSvElhZW2/igcSB5/nJwQGzBs/CR8/85Kjtjfs2ulz8I6Z85ycSRy46Yl7hYLfQZeFwNrRSDbMG256ykuWIL4xr/ZXWimCxKky1apnPVvgVtHjUB8CHrsK5FLxbIJBtXonoYR8YGcmNf1DouGIfTBC1cga+OQ5lw96az5LWZbhY2dciNFD+rh3KkBghjRIUVKhURR1ZkgljpX3f1ljR8ONOGPd2LkDJXBtwR8axuH1kq/hT8RQdeAIRuAj1GfxLDtZop5iJOI8pYRI8ER6WQFvIhyRTZ02fhLOOH5KR7Sqk8YNG4lrps+B4Rw4nyroy5TEKkqC3N2y8WJyMrHwQvOKK/nUl2RY5laU1UEFHabq1VOQJXp/uUYb0BodQs3pa4K1fgSBnvumXKNe0LCTsOPOD/3CoGj1753W7tqGO156Ak9vWI3+ZhPzT5iCj5xxEc44fnL0nQzA1dPn4F+WLUR/aBZCy6f1Uco3WVxMTivL1dOC/XoKtlFkYvNbsk+ijRFjFUkqpqj1RhvaGlV8HRfeOE/BcPJp+tjjMGboMIeDm7WKDGLYYcT/HdPandvwK/d+Cw+sWoI9hw7iwJHDeHrDavzaA9/B85vWJt89eex4jOgdgg6EyTto9k7wv2MRDxC7dLHojF8QEkyrNr7N43M1nlP5oN+rxtvFXtXH7pcdFqXOStfr/51z5uN7H/1l3HL2pRg5ZCihdzo+L6hih2RHYy3mP1G646UnsGnPTk2CELD78AF8+fmHWwtxkdTX3YOJI0crYdIhuTRCofyXByuUmWbMZsd08GG4Pv3bClnbL0k3zxce7Il7BgEVM4vG6wpDEIJnhahikFSeDZWDxbxhdTph5Bj8+pU34Psf+xV85JzLcMzQ4QVgAluV957Bxuz/vbzHU+tXtXAi47qlb76OHWKnMkvH9A2PGlelKIamWiQYT+p760ZsQFcugvBwyrupuLktrWjVgCidQuxXhYALe0MxOHDkSK3+syzDhLZifPOnP4WPnXs5hvX0GpCIEtgVbaYU/w1Sf7P8dJZ57/6EhwCQHFM5CUyGq+B5GSaz6CIEMYawDx0A1tf4Kc7iT9p7qenOeqJgXZ9pz1PIh08EhxyD59uWrZM0Zcw4/OoV1+MHH/8sPnrOpRgzdJizUspSEVf93y2decJUlZf0njp6LMYNG558v/WtS3yrkJ3qj3uKkvghSHqT6Kb2GAJcMVwd2Y0btOhf5I36iY2eqjwD2dfk2gRw37KXsWDjms5hAnDCyNH41Suuxz9/+Bdxy9mXYHTfMIdxAsD/NuESAHz0zIsxqrfPlfc2uvA/zrwEPY3415FHmgOt8Yc1lBX0Sc8FBf/IGWL9q1E2HFC1GS1fDY5psIMw6DI20K6TrNYzOgWJg4E/eTNQCNh98AD+53e/gfuXvZwc+MVS67CEY/AbV95YKMbwIX0lvEG46Qod/a+cTj9+Mr5wzXsw59jy+J8po47B5y69Hm+bcWry3dU73sSuQwfahAmIrR2VkxN2oA2Sb5dF8qXDKSt0s6M8/Acocu9+u1Oz9Vp9pCO+oipmAcTaRetnaH8zUMeSwn/DArSXN9qZ1LoEub8ZJbRAAN7Yuwu/+L2/xbwTpuCTF12Fy2bMwZDuzjeuTRp9DH79yhvx0XMuxW/f9x08uaZ92XkbB/o9RY1LU37prr/H+l3bBYPKd+ySUIGXf+B/ZrYdDUvxRUkGzB0/Eb952Q3oSuxsPWfiNNz+ro9gx8H96G82ceyw4ehuVH83/9ja5e1v1P3ZrPI7Hfmti/quRZ0IaNaF8mrRre7lWlF3q9+qYztIEf10TtSKf1pn6qdTX3cPRgzpK7+aI1+BtYoT/bGv1AB3xlATAS9vXodf/N7fYv7Eqfj4+VfiipPm1GKoTBmAUUOG4c19ex1dCuKjZFAdOqzbuQ2rt2/1D8yRMTkNpC74w8ZEiaiY6UJXtnH3Dnxg3nmYfewJSVi7Gg0cO2xEbXrtPXwQd69cpCVTJGakbQrsjVI4ILTBFefvhGBCJvHIz5FXzvuDeCft+uSelMLrVaQpx4zD/Z/6TXz8wisxuj1wje97N6ER3QDoB9YW3oFmEy9uWINP3fk1/NTf/zkeWLZIHT5WJ92//GUse2NzZINaDn+Hs2x0m0dyOqXoT23rEKGv3RCo5/lllBdwqL8ff/XcI2o26Wikf1r8HLbs3S14Ag0v7LQ+Cnj1A7shUIZQLNbWkx8ZhEJkug3BOM8U3aSPyf2wuWovUTpNGDUGv/m2m/HDW38d/+OCKzC2bX2ic8qKlrpCRlwfwbIoW7hxHX7p+3+LD/3DX+BHKxbjYH/1FO3+w4fwtecekyQpYXGDxrc4kggVhsnoBxtM2hFsfJdpwFPrVuG7S158azCL9MLmtfjWK88Rw2RxEL5UKAEbfMcWgeP7z8rihuqTiXLV5jMmUGRhhlsy1La8WdY65e+3r3svvveJz+LjF16F4WapPx9Y+66FIDJcGLzCsw00m1i4aS1+8bvfwEf/6a/w4IrFGEjQ5P7li7By2xaCsyCY8b6VSTE8pcJlm35avMq7MJA0vANhAH/2zIN4cv3Kapgr0vpd2/G/H72rdYgzBcVfl1VBGpWrWgQWPqSo0zX8ovm32Q/K9aBMlFccmBu7qDA16BtoDuBD512aHKjZNHroMFw2cw7ec8Z5yLIGVr+5BQePHNF92MEiw4nE3zpvTmZAwOt7duLupS/j8VWvYszQ4ZhyzDgF+6GBI/jVu/4JOw7s9zF5xmHJAPz8Rdckcf7WwmewI7+FtCMe2DGEpYspMzCrfBv+/uYAHluzHOOGjcCscccP6tuIFzatxa/96E5s3b8njZMd8wigtFzZcZHFweKjGFK00DX8ojNvyyIPqxSiHvCJQV0G7Dl0EFOPORZzJ3S+rXjEkD5cOvMUvH3OfHQ3Gli1bQsO9feLbuyMCT9JQilPlUC10xt7d+P+5Yvw9NqVGDN0OCaPGYuuRgM/WPIS7lz0LMoP/g2XFAhl5lMVCvHNhU9j+/591QpQhUOFAFmYGQ5Z1lo3eGrdSmzeuwunHDsBw3uH1Do2Ys/hg/jGS0/iT57+EXa2t3LUO3Xcw8tm06yS5PCaxqNGsmv4RWfeptuIT8MxxWHAOwGKzGy0vvkPeOq1ZRg/cjROHj+xI0+RpzFDh+Gyk+bgxnlno5FlLY/R30/hrSdAXqmZlWqGgNd378Q9SxfiqTUrMaS7G3c8+wi2798rX6ycvUFWTyFyD1EHB2aoFASp2Sabjyh2MwQse3MLfrj8ZWzZuwvDe/swpm+Ym5U70hzAim1v4M4lL+BLT9yDJ9atwBEyMLdT5UkeUKUQJTWUgr2fjf/Mx4KpQ6cvk1aUlTmrZBmi811dDcybMBW/cMU7cNnMOejrGeSFKW0hvf3ph/Hdhc9i18H9kdCgQ28XERjZSqPRKBYvK5XAkPmVz34piddN3/gTrNr2hjZqgwhhq4UsEo4kvV3r/+6uLozsHYLJo45pTXxkwK6DB7Bx9w7sPnTQKYEL1WvwhN1XwZQiTe+Mvw8gG/+ZjwZJrEA7IApB5v3rAK8ZYL1RS6jOmjwdt156La6ZfVpHhxHb9OKGNfj5b9+BN/bu8t4uEvfWsVL6Z8Kj+sETDZcy/NsoBC3LOghpGY5VQqbwDobHgwjLqyKQSJiuldjSSZQZnjTUQNzO1amZEPEzn4FJTY4ENv9NKpmZkGaziefXrcIn/uGvcdPf/B/8YPGLOFRjqpOlsyZPw29f9x56NRabPeOnAVpwO10HsOsecfQ7SeXsmVl7qXwx8Y2LwZtN0VaeqFKgFWITRzpTNeNGyOvkipKRr6tkqmEzvYtANvcFzqc6uzMDnb5kxPZY+IUXYOHGtfiFf/4qfvJrf4L7Xl04KMW4ZvZpGNk3lK5JMPjZrt7o9ncDdHSOPDHnb56m4TOLeZRP7JttYnhKMPXko8OJwRuZwqyY24RdUGVT/XTqPHKiildB26db9OEsFb8bOY2jy2lmNx5b0a7+8L9q4cgzLH9toNnEi+tewye/+Td4/x1/jHtfXdjRqvGQ7m4cN2xk2WzsI3/rAVMnZNBFIW7uvZUix6vUMuxMaF0nvDlq5IwnC0SopFJE1zGIgAfLYBj2srUijq+p5bLMCEU9UwKHvLtGxCf5cEnhGCqZyLXcKBdhkupDLp2EgAUb1+DnvvkV3PSV/4O7X3mpfXtQdcrPIk3ShQpz1Ld5BgRAhR9W0Y2JY1sM6qYiZPAG0MGuTrsL3ooG2r7GkXk7amWjouTDE+fJCDDshEP/nYvnSWbyxEdSHMReJh9LaSeYwJYBL5GklNYQaQFl7ZSAN0MTizetw6e+fQd+6ut/inuWLEDtxPpXfVRpOW2kLAuMTh4H0n19+COGMxeN5FZ32mmAVrBo8OM+5SybY4pvLVCEnAYS9u08WL0YaYIxXHUYIVpo2OVtFluVnZWKU7pHA7x5v6PDfUNZhyqJgK8Zmnhx/Wu49ZtfQVWyVkpBIuDL10XUu2RcwYy79xz8I3njQjpSCoaDNUzlVuk4DvzDqUw0WaiX40EaXKkkunbxNpERF+6ZuQ169pbxfM4zhCAfEfitUrcS3fAfCphCCWFsGdICD3LHZvC3uqipMrvvPRMtqTzpsFayWprp45XafSg+ZqSJTDWhGWDv2CDtS0hk83WU4ifnX4Ad+8XWDUcGtn4QqZMBzWbA5j078fT6Vdi6b0+LvnJtSNBEXy9grz4A2B0h5ax8LriZvwQFaH9Ho2nktutLIiWuOW4dYpy6OCfkvQNB0ioUOHTrdgXw7cqKcRIZCzx0WVSJpNSRD3eUhcuvYQqEDgUVayYqxPJhSWyq1KosiFckwf3VUrkI2Hytz0VE+uD8C+tX7iC9uW8vPv/g9/D4muWIWQJ/wFtW8oHiYJWCMUB3JenLDBM1JKJSSgnYVV5l9aCyDe664+MF5fpUTV2HhlOmZTWdJry/DbLk8xiEyRTKvyx8Ml61JFTq+w/BSPuObY+FWOWDRJD975COHT4CX3rHB3DdyaeV4V7wgNuQkJLZk4wu28TCJzrQdn348AkupLVT+1Zw4jQ35zJRyCN50g99R8eu3GkYoVLIWoboeLx+DO7jbY8DURJbPbJwFOKNwi+GGePwH6cPAIBhPb34navejWtmnlpeuoSEUkgclIC5wUFRp0qUdNPWyNjHFYpiWV3IkB6bsnFeww2aiIYL1IwVD473bNiSXKdgU7iBzRP4JRzm4KM0pgzxSuIWv3KrRbydznsrxDCwDHir3wcdrTS8dwh+920/gWtOmutpFjWw3MjEow1jzOQPp3+SQ3UPhLYpxH9G8g3tcUomBYuwtBwufDIIRYRcZ729SZ7zZAsjQhclC8HJhXsRHHywV8NTEFcuKJiwvP9xaWhPD2675mZcN2ue92wCH8oOYljjM5j5i0HT1rE3TvP4HSEsfBLd2gVOaRqDWJiLL8frX5kpYpaWCVBlYmMMGOCZ0NVXieiTOvDWCZ9iYwxjbzoD/d85De8dgtuuuRlXzJhTAKoNPotTrQyFSJm1lXIQXR3SmgbbWW+YvINijXJGNESpr2CsqN7IFewf9QKzsnXm+P1qKkeGufNoMiFKCSvzdtpVu1DJhQc+BHQMCZH4O4rjf2wa2tOLL173Plw36zSBk4Ax81FTQbcgKkWUIrfcSRkKnieKZoYHpoCvcnswTKPqWt4AfT5QKDE3U2fl7Jl66FLrqa7DrqL1ZWbiM7JOUcwpv9XEUFXUzMRMXotTyc8mQyjPrYqWpWln049fW469hxMXzFfM4eZPu7u6cP6Ume3v0eNpaE8Pfufqd2MgNPGjVa8AAejuamBU31BMHT2uOLpzx4F92LBrB/YcPlic3dqabq3gjOGjkzO/wKV4ULXWFeu01UwW5Xm3nIZ1C2Z5qV14UesUbVXODyZDgF2csusStS4yZ+fztCe2y2uM6wtVWVPAj5xxBF55iJXAUcFrcMpii0aGIQj5V13lHHlV+v2H78KqbVtyqMsH5iMdtfyjPsIqn1990lx88e3vw9D8oOZIGt47BL977XsxtKcXY4YOw7Uz5+KU8RPQa24ePdh/BMu2bsZ9Kxbj3hWLsPPgAbN45xfzirJMGE1LZmGjB2NYQ1u45dlbeokitLttr3UB6C70rYBTKkCAbEkJlRMieAWwCPlrfRxC6jJ24rD0C6i5OBcMsS0mBF6hxII0lfBX3WwEl6/v45hQMQJZeEtD1XrnwZWv4HP3Ar973U+0LymJp9ZA+yY0skYU9b7uHpwxYSpOnzAVHzv7UvzNc4/grqULcLjYlSxgC4YH1lMongDyFiAwI2QWgOltUtDG1h5Q13b5CBBjiNziq5F3coBjh6I2HtdlUQ4nVnLcYp6IxzsZQwSKEwskqwZ1diTgO6++s09Fy28xBQNy4PCS8eOPVr6C2x74LvbX2DHclVAGmTIAxw0fic9dfgNuu+omjBwyhO5rsvDxMUbsPcIDOtsEX8+QiUGUWJiz/ZfAx2WkHKiK8/oEAGwgS7pk6wAG0AyDESiixITECl5boc5uTLKZjh3Fn8VozomCAipHc6IUeRlZdc7L7lu+CL9x9zdrb6Ovm7Isw9tPPg1/9M4PtjxQIX0CfiJXhA0aB92M7NE1kEVobukZVL79gVA5S2AXjspH0spaqxpTJKblTN8rVx7bkOld+R1aWUlEpWNWoDSgUilitp3f0ZcGQSrFYFxFeleBLSY4tIseXr0Uv3XfneXZuUcxnT1xGj57ydvR3WjAczOGE5EFg7DfehNkA+CtICZ8CoBGiL3HVbHIByPwbkXbio5FqMYcvgfeh091U7ANqdeJlRUwsu93/b4bT6o6X30l9+5b9JNWlUyLl6hp4CUPAnD/ikX4nfu/e9Q9BQDccMp8XNle03AL+jZcLYyroL8yZMS3B91C5QIwXSsqu2hot6G6cuZE7y0nsVOE/4H0XACfCD9q3eFcSylK7xcXqqB40EqZFiCDI7VcTubNZjm6wt2BYrPww/DA2UnGAEAJ1QMrF+P3HroLzUHcj5FKjSzDreddgWE9PQUVLfxMsR3ekgBKCRhPLM0qlEKMVRuuhShvaLCQ2M3IyjxD6Fd1KfkI9Swq0k0kcXRWtZ2yLCvuSY41WPmVIBhDBoMEIGdu7LOQIqs1TO0fo4cORVbjoLgjAwPYtHsn3ti7u/LeOACYOuZYXDR1VhLd+CbW4MqjxjjEe6g+uKDVQHfZnrkUpZgRI4thIfadRrtiaE/lZkEzDm6GTcfQmQ5PcnjqzfHHU2FVI98nsA9cEFBccHL8iNG4cMZsvPPUM/HYylfxD88/Dn0puCd+hkzRtHJKthqLkv5wE6yGB7Isp6eE10Id0NPVjbfNmpecTQoh4IfLFuKvn34I63ZtR5ZlOHX8RPzSxdfh/Ckzou81sgzXnnQqHly1BMHJkOCJxDXIadpWPpBqDKfcc8eOLpUNFDLefrFcYcnMY0FHAOrLtQKh4oEUKsquQjGKm+YTN8/HmNFqP1P5OopxTH7Zn5CD3PjYr7wAoNEAjhsxGhdNn4Ub5p2Ns6fMwJihw5BlGcYNH4F/eP4J1RhjAFtyozjYFe047xTQxU/DA0sOJXiW5gFFWyOH9OGU8ROTIPxw6UJ8/sHvt2/6acH/ypaN+NW7v4k/vfGnMX/i1Oi7px8/Bd2NLhwZ6If88k5/tdbKKMOkBL4FPJOZok4oZcLuKpBeQh08IcSuO/qVmmI3W1Qpa1i+sUUV1xb08nv+XrCeoXLhpTre+PIHPoE//NFd+NaLT7aFkFulMUNH4KqT5+K6U+fj/BNPKhVJpLknTMaJY4/F2u1b4VbgC0WXQlvhCUL56WYqFf4hn6ttS5LzUMwN24fyUZupU8eMw5Cu+BViRwYG8FfPPFScjSVx2nVoP25/7hH8+btvib4/fsQoDOvpwa62MilJiTr8UonrbOsoUY+GMKJIR0T5tppu3xggvz3NP7sLOVTMyqJ8x3vjVseq/aKptpVCFkVo8PtWBDNGjsaXbvoQrjv1DPzve76D17a9UdD4hFHH4IJps3D93DNx6Ulz0NfTm7TYQ7p7cM3s03D7Uw+12wig36ZKOlWuYHc2qNZmBMqN609utefjq/StRscMHZbsd+v+PVi3cxvHIQAvbFybfD/LMowaMhQ7Dx5w8Cl01E4JT6LiGFWkPAWcnGZVYXZ7TFHcMee2FETU1obijMTWkwSFtyaCj2ZRSwHke7sPHsCovqGVDLl69mk4beJU/PFDP8DB/n6849T5OHvqTIwdPqKDbXat0wC/8cyj4vBegkXGrdigExk4K8NEmlfe2kbZRoCqdLK7vVodq9bTVX0PX9PubAaAzCg1RVzKS4jbnki++GnknMlVt3gqvJMBQA0kJOnF7IoZQziFVN6PWFWXhwO+1b5wc+38w8sX492nn1vJEKDlLb747g/VqhtLZ06ahomjj8Ha7W/qvU+ZED8zxnHekGxwrExisgPI+LjOjOkUGRVZtVKUR/jzNHbYCMwZPwlL3tho4Gk1fvG0Wcn3B0KzuJi91bsMy/UEUWbGRNYblbe5QuBgPUVBJYimKz1Fw+7xyIRNkfOz8occ3/mhf/kgvm9IcCeUJNLfIrT7ZybJbIv4ox/dhQ07tuHfK/V2d+Pa2acrHAq4GI00FQaZPA1DTgrRUfDM0Ytd8GwAWtdbHTwSPzu3u9HApy99O0YNGWr6D5g06hjcet6VSeg37NqBA0eOeMIYeO3KvV+8q0EaWa1iAdWuddk1dbiDANotsM6s4nhqS3hCUaBXVCldxNNg2vMavuKNzfjpr/9fPLV6Gf690vnTTtJwxQhQajxySlaehUuSEgfL1ViZopvPy8XGPQcP4NWtm5IwnDdlBv783bfg0mknY1hPL0b3DcP1p8zHX970EZx4zLHJdxdsWqtvL41Yi+hpGYSeelXbUCppmAJnU2ivQ+TWWE8HAmoKNpPn85TPlQsGyKCuVU9hTRHMAPKOGOMLZvrZpxVvvI733/5H+NiFV+KXr7oBY4fXvye5TgohYM32rXh81VLc/cpLeG7dKjejFts6TuaCBrEOkbPSnpEE07Y/4E3PEorYVdQ5MjCAe5YuxPyJJyaHOvMnTsVf3PSRjqDubw7g7uUvK2NWRm121JgxCXATAyokLFGvHZYXU7LQIVZ3QSlPezLatSO5dkxbfPBS0UaNZ2qsFR1j+AZCCBgIAXc8+RAeXfEqvvDuD+LCGbPp3RD1GdnE67t34qFli3DPkgVYvHk99hw6oNjFYLRKwGLXRpZh7PARuGT6bFw354xqYISpK768KwaRbaESAh5TCkNlNdb74asL8InzLsf4EaMHTTOWXtmyCS9sWJMzCkxYSv0WxlaRLC4w6QPoso7kKD7x3AY+H7iWr1uNVpyBW6jL3xLzyZnU+iqNhhhEyUFpGz5mZVdu3Yyf/vqf4pbzL8dnrr4RoyqmFFla/eYWfP7u7+CpNcvbc+/ChsmBbF5miGuVIM+PHT4Sl580B9fOPg0XTJuF0X0dwuaNe1HObBY7hpJPgAXsPLAPX37qQfzONTe/JUMi0+H+fvzZkw+Yy97ZjKYdaAt4CyWR4/hE9GE/c7bHaNqJayFH3WrOv/BLQuSLEXzmYRBwFK7PWCX9lVfGZwkg3rFKIN7JO8xXWHOYMzIbdbi/H7f/+EE8vHwxvvCun8JFM2d3dD3XieOOwy3nX47V297Auh1boelkZmogdNmESw1kGD9yFC6cdjLePucMXDBtFkYO6RtUuKQECICbxoMMWUUe5XqS5wmUwHx/8Qs4e9J03HjqmR3CRyAOAbc//yie3/iaXwgDtJxJbbZKrOAXxlbwQEXdTAmk95YBkdSnDOgacu682+pcV8vudJbtyR/eI/L7vuz9waXu6nCk6s67WD6EgB379+EHi1/Ejv17ce6JJ6G3O+0U89TIMsw4djxumHcWdh04gKVbNoqphYzCm4OQZRlG9w3D2+ecgU9f8U585qobcfPp52LmscdjSHfPoO51vv3ph7H70AHtm6VAFWBk9idULUNzxYzQOlX96XWrcMaEKZg0emzHcOYphIDvL3kR//fH96MZmpRHeb9GVAgOFl4rQ3GeaBnS7pHecTfq538yRB9WXdhny6JKUYWQDKdMnUwg6HifVgpbNuO44/H/3vhBXHbSnI6EMoSAh5e/gv919z+3vEWEISeMGo3zp83C9XPPwiUzZmNYxffKddPa7W/iHX/zJRxp9rd56pWACrwHstbNnBmAYb1D8BtX3oib5p2Nrg4vvjw80I87nnsUtz/3qNsNq3YtROGtwMkogSFG9LbRolVbLOmjFMK8nCMgqUn6P7rAC6boOhH4JII1bhYd2tOLD557CT57zbswusOxxRt7duH/e+gu3LngWRwZ6Ecja+C4EaNw0YyTcf3cs3DO1BkYM3T4oDxALB3u78fnfvgt/Mvi5zlPBBGpEWJlNQwVMqCn0YWrZ83F/7zoWkwbe1zluKK/OYDFr2/Anz75AF7cuAbNELhcWc9mcbKRgUEk7jmKxk2XmW4zJUOjfu4nQ1IJKAM4sFFPUUAtBuTUM0TCAfWHuEIPXtp7ZBlOOX4ibrvh/bh05hx0kkIIuH/py3ho+WJcOWsuLpx+cseKVTet3f4m/uzxe/Gvi19oCVfqWuEOrKouqzZMw3qGtGbDZp+GMyZOxQkjRhf9DzSbWL9rO17auBZ3L1uIFza8hiPNAceDShlq12fhU+bAEl4mr1OlFJEjeVRZBmQjf+4Dwd8fDCdQlUpgO63wHiWRQj2EcoAdDJzgde5s7u3uwYfPuwy/dNX1GHeU1y0Gk5qhifU7tuGx1Utxz5IFWLBxbbHVOuadkxeZt99Tj20dpxSWjuXbWZahp6sLw3uHYHTfUDRDwM6D+3Gw/wj6B5qeJ1au2DjP9kgUO3nfOfV2DAeiBJY2yFoKQYEdzJiiylM4hWDIKEq4MUWmKRWFj04UkDFQlmWYffwk3Hb9+3DJzFOOarhTJw00m3hz327ct/RlPLB0ERZtXoc97Q/+613EzhWgylP4UIbxwPaXJd7ndK9jqJITNonwieJIPF1sTEFlPFeIGJJvOXwyVLZCX6kokXAqitAgFDvLMnQ1GvjYBVfil666nn4HcTRTCAHrd27DIyuX4P5XX8bz61cXnoBarho0T4YfbzUml2XOqnr4fMRRwYOIF6DyGPN+UcUmYbnrSij6yFs/EFy/qdiPIsCskgGfxoN8irZssjMtZ/FhDIcYQ2aNn4DP3/B+XDJzzlFbnAJaA85Nu3bgsZWv4gevvIglr2/A3kMHy1GVdeVq0bIOTyq8dYIHlfRVdFI/uMzUCMHreb8OpmSrcErIiJySbSmEo0WFUNXyChx4piBinS2JUNzrWAvlGWDrpYjf292NW86/HJ+++sbK7yyq0uu7d+KBpS/j3lcXYsHGNdh/+BBhiIeXCpVkbB2BMnilBChjjMi8AMVDWMMThlOn0QYrq2VYB+M52u2MuPX9wRFbaEwVwess3nlYOXAuZqwAHtH6XKnrMEXmp40bjy+8+4MdeYtmCFgrNgE+v34V+gcGCA5EKRLxd8z7MZpb25IclFbxJBV6MJASSlFrAZjkYxFJtN8KTxGXIRiFqGIQ7bwDjbbEr8GQOlYqHh96BtQJnyS8fT29+NC5l+BXrr4BY4byscVAs4kte3bigaWLcO+SBa2B8cGDov0EQ6roXWNMZHHoeIozYWmZ566LA5MXBl/HkwdRpeYwd7J4l4249f35NhAez9YRqhpWKkrwirym6dGwUgQnosRWgGYedwI+f8MHcOnMU9DVaCAgYP2ObfjR0kX40dKX8dy6VTjULwfGnuAS5nTMbrZJJzxHfZ4I+ho6ZSxf5SlsWYXlHcwYghkqD1pVSGjhj/CkUIhPthRCRyhpYOvGr8nVx04R9HFAwlMcJRyMVerp6saMY4/HtLHHYcuenVix9XUcOHxY1S+wrGGVkvH3YLwzkPR2MYFhisPg7QyHSMRh/3Q8zqgz1c8Vu1IpAGQjPvm+YJ5UWiV7CFcc2IrFpNoaXQehsr8AzxCHQ5aB7YWuMx2oGWC9UV0csqiwMG9dNp1WCI9D/Zka3oclYkW4pOgWkFL0wXqOeuOk1IKwgUjkG+7TRJmR22TV98L5NlzyXaLJ17vby+btkelZCYJtzIIc+ZQQtqscrvhXl+3X7U2cpFIKB80l/fmsArHMBNu8YqfBwR4D7wSK33nncYjgRHgUIlVlRl1BHKFx/i2C/Ua+MgV7RHRGuvHXOIvXVZnkidnGqFijsI+CWXFgsWNKRAmCe2QZEqEs747WrnMqLD13NTBie8J4HCKARi0Eex40PhUCE7vIkimyFtiS9+rrvDrwgzZvqZKbCa0ADH2iJOzMXE0TDr8mGVMKDXKjpHmgFSTT2AXaBZIWIUoc6LYs0zQeRR3+gbyBrcCB2AlzB4D6yL+NU+WH/07IQOD3QlPw1phLK0r6MAbrKYxhYgJDDBPDU3fLDBWRAwub8n5SPrzSBtVIoit2OoZmJLxaGE8WjDRapaDWSjOzEQxC1rwqBAsmhxjtogxBiDFExgQlQnURiPkCT3D7WkjCX+BpcYLByfVub6WJwWeFyioKeRJMWdwsx3EgAqPby3Q+WGEQLTlPZvhi4XVwBN+0UWqFQyhpTnnKKCG0L26EymJ9T7WyvFE/XiCkXVCFdLFWJEJJBYvcGaAQIlZVCVlCcRI4VB5v3wZCCyj3tjE3zctKpc5SL9jwo4oPKSNTtBeir1YNG3XrFoeQFK1cbN2Vaq6DmHoFhR+lLfPWIt9wTAxgRc5KMdqyUKPyYvMCIWuVLHWDVwBHn1AYKk5sFFZMOH+vFOZ9ZmWjKZR1qJKEFLwlYFKJS4fsvaPy4GjPUFXygDtY7zn8BSeGmAV8lgbOGiOOg5Ur9f1+BIdAZSQTTRbq5XiQMhkNTU/iKWzsx5oLFXlX34YeCoii0Mt+wrJFQbCunKTMvtth6GFxcgIbfasKckQzAqXAqtVw2L59Dp8zfKT5uqc0sratXIVadGINBQ4bIYw9QC/PF7NMcaVwGQiTBRsLFgiRwbctSAYoocx7T5Ry3aXFYXrAPF0xvmE4RokPIBViCcCjoYaxss5TwAiLBcnBq4XKwRY8Eb2lzSRY8kck1GAgWM/GcIhEG9ZbJ1LuNTSukejC4ST4IPKNmI46ggurxDxF9CLFYkAUyjIBDR/kWQbInzEbQO5bs3WskAWCt5LnQBmk5ZAP8qg5sAwnddLhkyzWoQYzHMxyVI6TxJgo6G4pDponcZrzYk0sZlxrKUkw8EmDbJVCwexTw8bbbtECqURYmvAMUY0PUSnh/jpHMOkpLKVYnjXN3pEWJfBFMitUstFgapiZG7ZQpIBjGhfFgSiJI3eg74d4o4XxItTyL0f1Ii1N5AWwIKjWtLikOFMKR+9WPw3XCuCslF5dLVErFIC5vgQDAgVeE5etUzAvzrgSW7eQAm/zpgWVDwZmNlHghYDFwX71NMAOYSI4WLIqIbM4eCWuWkANdB2FY2C9tYdVGqu4Uqu1o4RhKuhfoU8hVcZkVP5oPyeD6riVYgJpFYUxRDElwpC8jahxLIDyljYQHNhCl7IcDn7TZ0TIHU6G+MFz1hgJawFK+CkOBv7KxbsIDsxCV3oKTVhvaVk+aBV3A1cFi4TKypDmk+glAT9fpdfjOu7Z8kcNpQBK4olSRCkXqRYrYwgxt2YVIE4aAy/rvvyVmSJmaTtz8RJe67xEmTMkmt5pmsZhsaKVqudBrhAyMG9dBXrQFS2xI8X0+SDhtYg7wxo4ofXCHPnFBnkKcuGNpWcowwzWdgIh66ppXkCQ9ImWGPZuimD/qBeYla0zx+9XUxnx+bYJTiPznsSBeQEV1horSzxf5VpRIGVO0U3ewG9nc9xakZQhBbPG0b/MZYh6D9lIZux/G4eGLK22hwk7VBRmvFgxpI7r9gIetaqyzHESvsyGGh1iTK1Sah2lVQFskEchYJ6uijkh+qqjC5sWZx2GyrIKRU8BmkCW6IrHsWJMlOPpyWDHQLq/hkdQmkthkYzGOksrgTBuz40fCAJUyy0xnFCV8Mn+KWkcDvCW1rLUWiWDU/VkAVccaZXY1vLS4MY8rIDfeEMFr32PjutSPKD+CvmgWRoqZ8OCx4HNprFxUomjVQ37pwr+mLGVnlMrcUMiGDxvHAKuQ1stiiBpgCgO1/TIa9a7ybxz09YaMCEisCo0fLjhYA08vCvyGSlTQpUDroVOKoFtXGGm7FmAFICIjjr4U/nW+5nJC6EqtDniDYmiMAZYJSt7iOAdg5fiIBhhZEh9D1FsOI0pAAFHAxYVXSok5UJMhEt6pO8YYPsqeJXCIfiMtbyxsiiMCcvqFvMKT8dpUjKCwcwtrWk8JWeus1rbVOLL7BUBUM0wPKToTTyDEYfKcR3DIRJJNFzjhsCVVioiQHGcCMPMV15+kMqonkWYyWmuIAgpGSn8uGi/xCmI5+7VCA4hojQZDN2kwFvPYYCtsJMaXluhTvxthIpvEGzjkKQ58wpkVwFTiiKqIYovGmAbGhleapuHMEyy7QZ1cxII+ZjizCwoQTDxTmzmI8Wg3O1pOhvXLX2XYoohrmOQ5gvHQdOhFkOgRzhsSlaVSYpZZ0kME2OD7MeFfxbWypG7sU9CKSSRk7tkVZ9RYpNigoNpto4cESYpfBoKzsIqRRAiDJICHgjBg+jYxYPK4HDAk1uvo+sUSMCvcVDi6eAnOEg4asyJu26DoXfCvAbD+ag3kTxwneXv+tCDTXZUC1Rw2dTeVAlfMHlDUsUDq0hWKRQPashRDPzyrdaDhme6eVci5FyfRDrumpVoWeAToUVqI5dXYg+0BpUJmbUoxEpxhyLaJ94OOt+plXKSKeBNC5U2TK2UQQmQ4wHgFd2SwGyW62CaPFOPOA8qw6cYAyA4XcEDxxMHfwviRtxK1UlEoCqFijDE0TaNILNSyUY9+VRZ5eyZKvMMYfPdSUMV+ICuEy6EChydVbUUCPEGKT6ueh1PUcGTAMjTSFx7KbJaw2T7qPJ0bEEVcpaJrq7yHmMTKyz88G6OMIStU6TEg/p2g3QRTsVxsPBrQEPp+eicfvmu+Bw8x15b1QhDGE5+0Mf28isXVdLb4ZBQAFFGZTX37gkckiesKFpQmy7yxNOpMm1omaITM1c2WLC0eu2oYZ5qLRdab+PZHNhAFackuLKqEY0OqkGDYwyZkLs+LZls340HPe66SwZkBoQyFikUVrUf8Y6G+GzmRoOVeRxcXqAXNVYRpQgGJ9WW9d5+qzvFgfFL5U3HchGU8MDTTTLd0FxNaxPDGoL/IjKhFA0XTxWk0AzR0/vxmCAdfli37JXEzsJU73AU7wjiMqvkiBvDQT53uh4PLfL3/JRrmiHaOxOlokrB4K+Zd95Z1silTQptQsst/EWbRnMlxMVcLbf1PAaqwEG2TzxD1QSIGFTrAuv63XPCi/TKo0HaORTmOSqAj8R/XmC0ErM5eer9HBpmzcDSyMygZQaHOotfSCiJxsG1ZA2jac4+157D8kBhoXhcZZjYCCIy2eH60m487fk0g5ghCb4TG9x4HNoRR4Myw5YZIWbW0r6q6ilja7Q31lSFUfJ9es8RG3ky/bU4VU0PpkBt5ROLjdH3qoWsqOUMCwjDPQ6MB1EsoivmkRT1bCHxvPwZ9wfMm6S9NwevWqjEoJpYXtsIdYXtaK54VPgp+ZmIwcEqhRcwtm25clq2GAMRHJQXCK43hkMs/ItaVZev8mx89dcZEwe6xdGENzIciXgG6ilY6MHWXkQoUndKE6oPu9ZlaV7yw5HReoqIUVAylPB0lkcNVyHLNLC+zSRC1jUG+jySp/FsOtzwp+nlp5NrhDnB5A9mDkMCfsEQKWRUqOBTTLHbni1zdb07C+oRs5N1lMIw2C2g0q7TifAkRBphOATPHBeWM6VThkoZW29cdf9lvlG+JIkfEQ6PeS2C1VmNZFax+GnymT9IyfQXyGl38ZkaByQxItb7ufADRoAskwx8yf1bJO8ME6VRXFydXhI9jYce3lBVn4VLlCDwMQVSZQYHjxOz2tqAMB4479fG4f8H40Ah/a6bKfIAAAAldEVYdGRhdGU6Y3JlYXRlADIwMjMtMDktMzBUMDM6Mjg6MzcrMDA6MDAFZKF9AAAAJXRFWHRkYXRlOm1vZGlmeQAyMDIzLTA5LTMwVDAzOjI4OjM3KzAwOjAwdDkZwQAAAABJRU5ErkJggg==;" parent="1" vertex="1">
          <mxGeometry x="690" y="58" width="40" height="40" as="geometry" />
        </mxCell>
        <mxCell id="L_KWcjH4mNL9vExOsYk5-6" value="&lt;b&gt;Knowledge Base&lt;/b&gt; for Bedrock&lt;br&gt;(&lt;b&gt;Managed&lt;/b&gt; service)" style="text;html=1;strokeColor=none;fillColor=none;align=center;verticalAlign=middle;whiteSpace=wrap;rounded=0;" parent="1" vertex="1">
          <mxGeometry x="580" y="-25" width="180" height="29" as="geometry" />
        </mxCell>
        <mxCell id="L_KWcjH4mNL9vExOsYk5-7" value="" style="shape=image;aspect=fixed;image=data:image/png,iVBORw0KGgoAAAANSUhEUgAAAMQAAADECAYAAADApo5rAAAABGdBTUEAALGPC/xhBQAAACBjSFJNAAB6JgAAgIQAAPoAAACA6AAAdTAAAOpgAAA6mAAAF3CculE8AAAABmJLR0QA/wD/AP+gvaeTAAAACXBIWXMAAA7DAAAOwwHHb6hkAABb00lEQVR42t29d7xdR3ku/Kx9io66LNmyVa1iWZYl23Lv3caAbbAhQAjBwIUEJ9w0IOUj5ZqbLxBy8yW5KaRgU1KBYCAxuOJu3ItkybK61WVZVu/SOXu+P/Zea73lmVlrHyt1fj/p7Jk1a+bt7ztlzWSn/fHnQpZlkMnm0c4XpVnrv0z8NlXTZVn+K4P/k0XzZSu6jMGb6RdKeA0ineFg4a+Jg6Wf7sTjYOG3ZRR+1bvCKQMQBA6ZJ05tHjC+MR54njAeeHjZc08ugoMDSZbVkalWJw3USSG0SWqK8//E8xBcDbAX49VCRd63G4KpEFi/ASGFg3wWAduClEQ1+N/qnVQfIQ5rYO+aB0E9INWDJFGcRywf2pTsOAUjg7T9UHJJ4JPBs9ThEHiztrSgSOA1G63GvYA5IZPoCCXQgiGUQryviW8lJRQIqXaU0Bn4IjA7HJwkZiYv4BH5AP88qHwQDGbGQlMkGKXOy4KikWFSMDi16Z2pRoIUIa0tDEcDr6V3CWYwxYHgEJRUWpnJ86pnk8/fT7KjwC/UU2KJg8xLWK0MhbK/RglboEhJ4IO1XFEGWMsbqEaHKiXwskotL4W3aMLgQDyFZ0gwjs8yBCVOSfjlU+bpCD9Tih6kePh3RSPEm3j4YXmiDJOSrhKHOPlLGhO58TxIEcIaJoaDlSutTRaHoNrm9A0INUMmT0dDFcsAAQ5xdZKcGVh7HgEuyKHSU1SGMjQGcegR+BkxIv0VOAXOkJAUD6cUxN0gJq5O0QOoYttXrdcvCrQVENaXox/HgfpRjmdUhlgZg8B4xBC40AFohBBS8lAg4kXRWCVUMC1i14JvSAkQsxIJLfPEJ3ltyeEFysDrFD3qKYRFCpLNBN6EIrGQ1fEvMCsb4jyhKcR/OatqLIkNb1jT8oEdZAfTgDWskWY8DyI4Oh4bT2FbbDfYiDVmGeStUvAzIRGlqLSyqkvvqiloVbx27xELmrJaVeFN0jMQFlKrWKurSIcGKyagVMhKgQpG8uLhE0OVmUgLWSJ00j15Qql82nAqnAz8cb54pQ6hHTIVoUciPGm97y2vp2E0QheD7RANPbiYRJAzyOiBfPBu2sJrGSkGeZZBxRiAzqhxz5GE17xQDlIVgdOeg1loGX9bHIKuE+VRjC8CnGCe5/BVGhILGzO28HKl0BMtBc9QgxdRfAm/wCED0EhGOpF43DIgRBigNdCbVGallKVSik7tHKGlV1pT4HBySuxmqKShsMDmj7WV4nwySmvpbXAyos1xsorOyoylVWoYgqlDSCR5GAh8CpwaSkzgZTJk6R0kfFIxkm7d+jNvXIOo06AIxYif5xkDDDh+NgrxfAUy8DwzDDFiWmdKNjVQTYGZrONcQLK4oBQVMu3tnKKTvkMKhwQyNIRlxipFGaVpwXmLOoapLrxpHEqlNyA5Y+YMlwyZUq6Pr0uwvBUAb2lD+bMELOi8pq9nOx+UphkQi19lRllk4bq1EIt41uBg6SA9R6QzBECvLcif1ptwCYiRX3g2IgxBdUQV1VDAWLyg+GxRy2w5QYIrScRQGUZombWeTTyTcmXFxmoMkivVFSoamOu2Gud+EoQjCBm2VDEcgFuOr/RMbl0lEByEmgimMEvGVoCVLXImSdLM23xHciJAMQ+ugOKMaD2i661CmgxD2dqLxsHySLbP4XUKZUJWv8gqeqshQ7pxLo/5/+XC3CBCj+I9y6SYlnty+faslhMBYvkCXsMAN3AlNGKFyZCPFssQx+BA3lNKIFB14dNgeADLdFPLKoXFIatoK7D25UNN847XiiIpvfWGtWeVRD+3xjsAaPhBXrWbc6unlSvEot+S80WehUsKIdKQEiqnBHFah4hVrTN7o7029xyUCYzyqrbrzAgt8wKe3gG0UxdulACWVl96hcQkFKNoAa+LQAz9HA6WB6abQHBIewrhj6s8h/pT9tyoAp5pOEsxpTA+hxPTlbmGKhACfUfB1qmlDa5Ew1vtQNQ7icVR7rk8geOwCtC07oVaFBfoktYjhsr2V8FHZsnrzgByilJCppuLRhtlhQZDkHmKOhsAY4pjrWjUdVe48thAW2lMgQPxFDU8g+82sXbBPIWB1zYe3Pseh2DyRS9s4qBSqPi8v/dsnCd1La2lYUFv573rwGt5Yj2F9wzMexfNm7Uj5RUMzxvCcXo8zaR6HUvL5pwtwbyQRVwfM6kSoYQSFztRK4TKpaopWaoUgilJpYi8r8ITo/JUqCyJWfihJTvp/Yq83emrYY4ZJhf2Bvqa6MrY9+Dlhm1qtHzSoMYV3Xk7q+hChhreh1pnVMOdmxRSVipK8PpWCixvhCrA0aU+vAAqrZQFI9GRFhj6okbBKrpTAgIvDTdsvkopPBUKcDrCIZg+iRGqmuwAgd/JUaBvBdYKqcrGeQ2NhtWwCJBkm0RlslYKGemGr0dr4LmVKsEOKd4K6pqyqpmPoGxogs58XSVTDVtXbeGJUSEBX4TmHgfdDftoR0cZwuuaBRPq/fIyGaYYgKPiRRrks5gxoE1p0I9jSix50mBte60noYfDxSuJ3+Blwxvj9qSbI6aL6V3UiylieFfOVC8288Fob1vSfXorqq2sQ43T1mbYZIfypsERqWrgyratxKgaG9cxZJiuuJkFKzMW3pTRkWSxNLN8ScU6xjA1Sh4Si2TmxKlVTa6mxkjlTZFHiFsp1YYVcDbvlwg1WNOVK/KUHnSTt0GX4+BWuCMaWBpeYbFj1K302N6UBkS8s3IX7HsKOByo0ivWSAHNKA/UHqtK781kqOSLUpIAL1cCtkZswwf1AjnZvAFUyCjGtRFK8h2svYiWMytLZE15AStQNn5NKUUwDIoywHzeSYWsfN02xwZ5FkFrqAoxZWMg663t6i/1bG0lU4puJwskCQRshC8F1NazKRzyXatpJXafpJJ1Cydnmh2uzI6JQpCfkFpMgpypYVyVtAyOAQQj14BWsLhb0xotXbXxNh4wTlwCiZvN6XRF2AoZrRgzAxb3YMieEVyIhFZ5uxB/PW8jQTbn6eK/tOVlQspx4DBF81WD6rTLph03ZBlDy1pa1ahoN6tyffCWN3+zbLJQL0fFCvth6EMwIau7LtxzH3V5hnlXzj78926ZWvxgG/eeIlc0iQOxD86fljzRZc7K0kFqAgdqmCI0V8UBtFiVGW8Sgv/SzuIZnVIOxXNBQd9x0WXrQbkwJx4GUZk2AFOnAIGLbVIpmOtzdLduuY1k8AyJLbxYnPScuxCWThcgAyJCpRkk0FXI0phcE8i2qN83hsl/6EU5Ytqzm+fiOHhgDPMcMyUPtCENpO2gmUjpz/p3IaAFQ5oMYQwt3xp0nt+ywXtj0qFgiEn20Cq3cBRp3SNU8C+SIubH1lc7PEO0mVTywsasFGd6HIkIvRVaPlBJQNLuqs5erVSfmlpUSohhijduW9Qv0Jig1q4IzgP9KL1O0YioG+2LeQ470C4ar1AS9UoOfLBciCuFpVXVjgANf9yqMpJRHILpJAhaMHhtjENwUO8oEI1VNTzICBEqZ5pkeCrKtIGPCbzs33g/CSURJS5DuumyT+MrK3dFlGXSE1DDHck3QCprHtQwl45pnvHc9TGrlVAKQ+ySglwbHUNCBTZu6sc+rlAUHREIK6XDM79FImL7raJXeAqXqYI/4gVYI9GoKR2neENK4CegxsvIOkr1e9xbs7z6HqJyeb4wrpbzHOl6H50nyqIG1vffIlasZW160lZKWDyEaktbhVUNq6QoSJCXEFFPoTDUhqn6U04ClFVq5XnKd2KqHFuskzS3sKoWE96bkZoa2lCH8Na4FnuZAtTmAqk1wRBbkcC46Rwph2SKISS+dYM8Q3b/SMMrywJhUOFGg28PcAxgc/r2Odv7xISKWaU4DsIQ6cY1MZxiM9eYwCHkOBi+KBxaObvWUpCLCFmBg2pbG9ekDAXTVcE+ruhO/chkR3TrTbuThgOU+dxEMX1OAEvlc1BNgWMQHRgARqC4pdX0k2u83NsQ6qZxIDLIGw38edSqRtpXNYPLIVo3gQPhgYchMU5KpWB5QNCOevi8ZBDeOhgZlrpGDFUjhpcLn2BkQjVO/Czbt5JiRsT1KSJkFhmBUBCVYuFHMLBa7+fcuREyB161t3NnV8EIgaQg4YEltvMciuxB9GHx4YYIFF5ler23a2/MlDhoq55QSUlf9UQDW1JF4GOa9pM55Yq8Lq6a1cx7C+Vu17TuVZlP70CoEAxmNViGHybUcO/WsVhR6Yy8K4q6Gg1MGzMOl06dhVOOPQFDe3prjjHq7JKV/TFPl4Qy4h8IfevAG6qKOQ+S+mCQD/qHjwZgt5GINipmBEHOlHTkpd4Z6EYo38/7ybJQNFwuFoYi33rUjieDvImijWCx7tBuXP0JrXeKPoNep2grgC1rvR+QhQzIcnJm5ZRjBgVfC4csilPrzowSMAt2iVarzoljxuFXLrgW502ejq6sNfTavHcnfrxuJR5fuwILt6zH4YGBAqdW+5mCv/jZfh7afWdtehahXImOkpECh5C14RM8yEQ3JaqCZrKtkr65oZIXu5Q4ZKI9AVSRb1NHyIQSpgwIbUJmURnNlULilKEUkxJnuRkiE6vYIQR9iU7Rt1gDy6MDkhfijezkL34mFLC6m4E0V9TNOvYWHXmbjMtrith8K+sp9pZuBqpxk1H8ZqMy09fdjZtOOQufOPtSjBoylLJ0IDTx5r69eHz9Cjy6ZhleffN17Dt8yOOQKWgVUIPCIcKD2nypRXMDc+QmI8GOKLz0tqMkDxh93qIcRWQmL8lO/uJngsejihk1GJJlyjJmDtN6DKmDjGZIcYFUQgHqMWTK6HH4tUvejnMnTUcjbuJUCiFgw54deHbDa3hozTK8vGUDBkJTImRAZwphBawOvBn8nxqGqQZfBqfUHocs97cpnDpV6jpy5Qypv7Isf0crhOdCrbu9LIkZk5gABAY8RajKSnGGUKvrK+r74wD0dnXhvfPOwc+efTlG9A7BW0lv7NuDJ9atwMNrl+HVrZux/8hhAp8RnlBmOlNiK7ieidRLBPiyFD8sDyhP4vRmODCcxFNvbBPw1fMSggNtmmdZhuzkL3xajGA8AmkrZZnGGJJ5IJy8V2h5xCqx8IkRrQ68uVJMP+ZYfObi6zryCnXSQLOJLft24+mNq/Hga0uxfNuWlnI4UPxFkEZfK3HwZCeW1ypJikdWgGJ8oYYoq4BfAxuF15URxUb9fAwvqhCVbg2o7Sk4wY8CQoxJtVw3gx/oanThA6edi4+ffRlGR8YKRysFAJv27MTTG1bjkbXLseiNDTgyMOAFyvDF4dRhCOhvQ63ggVOMCtiKJp32WdBrwDsIGTJEGcy4tFSIKPHjCHUWPhlg6zCk1qC6jpUSZYQhJ409Hp+++G04d9J0bkn+DVMzNLHtwD48tnYFHl23HEvffB37jhyu8H4KkfSVwVaA3J8qpYDiWyr+rkXvCA9S+ZiSMPgGFVIJJc5mfeFXggWeCZjGIx4LMgbFGVIjnBrUrEFCqUW+p6sLPzH3HHzi7MswZugw/EenZgjYtGcnntm4Bo+sXYrFWzcpzyHQ64zmlqwRAcqyDL2NLozoHYLhPUPQ32xi1+EDODwwYCYGKkLYlGcmfOlsNq0sszhafDR4CaUQ8tdWiDyLpADFGFLpulPAx9xeJwM9yuCQxOmkscfjs5e8HedOno5OUggBj61djh+vXYmLpp6EsyeeiJFD+jpqo27auGcnvrbgx7hv9ZL2AlTcEFUOSiM8AYBj+obh4skzcenkk3DKuONVyNjfbGLdnu1Y+MYGPLR2OZZu34Jmex3DsIiO+1SdxBRzGqcS5trRRkWewQsA2azfaytEBFgWoxePO9Fy+ycxv+yAjZSxvGaAwSED+rp7cfOpZ+HW867sWJDf3L8Xf/3co7h7xUIcGWii0cgwbuhwnDNpOq6ePgennzAZo/uGeuv5FtLhgX586cn7cN/qVySmNmoCEyptV6whAoZ29+KdJ83DB089B+OGjqiE+vDAAF7csh5fXfQUVu3c6nlgvbMoc7AZHsWUoM7skzJ/LhpKh4TW25UKwV6wyASkEazhOZJa7tYukFYU67oTIV8G4MQx4/Drl1+P8yfP6GisEAA8s34V/uCJe7F+9/ZoPH7c8JE4a8KJuHrGqThv0nQM7emp3Ucqbdy9Ax/6/h3obzYTMXlV/K0zxw0dgd+48DqcM+HEjuHZd+Qw/nLB47j3tSV+pwFihslOM1sPXicCqQq5HcJ+jFExOZOd9Hu/HOpMnXlgLUAR4G1Z5p5WIFTh6todRIkPoK+nB++dew5+7oKrMbynF52m7736In7/8bvRbDaT8Ob5LMswckgfLpoyE1fPmIPTjp+MY/re2hjlfd/5K2zeu9vRW9NX4C7rtOUvp9uEkaPxB1fejKmjxg4anoHQxDcWP4N/fPV5v1XF8qiQfy5XGof42otQoaii11IKT7QC5m4XCLY3pxSd0+flT8DJa7lnqf1U7NLx+25cB7atgI5CkHz3ZZv40445Fv/PFTfgnLewrrB13x4MNJslFHqLlsuHELD70AHcu3Ix7lv1Co4bNhLnTDwRV047BWdNnIrhvX0dB1VDuq23URuWFAkdbcWGxpG9ffiti97xlpQBALqyBj4893xs2b8HD65dBvblQQs63X9UmGyZIW6wxLa/1H4t3W6x3yrTT5l36wbMRi7Tnt6M1kaRAJtvPMs3c7nNckWeKIXiW3szGgQMbgNg0BoeQrvJsqyn0YX3n3Yubj3/qqMz6I1uNrMb7IQgtGF/Y99u3LNiEe5ZuRjH9A3DBVNm4rITZ+GcCdPqw5ZvRhMCliketesJPmREgD56+oWYd9zEt04PAD2NBj41/1IseXMzNu3dpTdlajIpGgowC0mVGxpDW/qzmMURDZXth2LTY9aWCUmk1iZHkY98DtwtclqoAhCYWuW4ml2aQeUBqyjaU1gc1fZSJ2Q5sG6Hpt0lm7W8yfSxx+FzV9yIsydNO6qrzZ6CoIqd01MzpEWaHQf3454Vi3DfysUY0zcM50+ejitOnI3Lp82u2R9nRLnzVzw2O39njD4W75p1xlElwaghQ/HhuefjD555APknq1nSWNmdygSHdo1iN7AzvhpR6ynsBuw8Y8nXAi+fU2oVusOO3aFP7gMXo1npDfD0oxf7kY7oTDcL9rKoYz7I6coa+ND8C/G1n/gEzp18dLdeqL37Bc7Bwx9Uzmy7L583Q8D2A/tw74pX8Os/urNO75U8CPyNIt00+wz0dnUdRZq00sWTZmDSyNFlz5GvCSXZPLztsrgowctIyAXKi1KEDlVf/nTT7xHcOFZE8to/+zos1ss9RbDexsaH7fAMGdXoEmENcwgBM8eNx29d+W6cPXlaR8xshoDDA/3o607MCAlKq5DQ0KxFERLPSk/X5l5W4JhmkGWl5IEOzgSoxKqOGjIEF0+eWdED8Pj6FfjWqy9gxfY3MKK3D5dPnYVb5p2fnBQY3tOLiybOwLeXvajaUjJET+HjI0QdbZTRRx7x5E3p9uGiiyhPlMDlRS2ZauSZqAzkGfoppD39zud9q3mMa8ojWs0OI7Zpxtjx+PJNH+lYGbbv34vfffhf8fT61R29VwEyfxhIA4PoNHrsindHKk0edQyOHTYy2foPVy7C7/74HryydRMODwxg+4F9+N7yBfjNx/4Vuw4dSL47f/xkA1QcVhpUmAcVsQI9tZETxucD4oaoPIbGnUlkAHFWWnfgeGERJP1zVD0y9hSGAt52/tYLrsKEkWPQSXp49av46Hdux/eXvIAjA/2V9dlBBjofjNxbV+4Dmo6OuCkaykyeMcKf+zR99LjkzNbuQwdx+4If43BBixK2JW9uxl0rFyXBmz5mnD8yJhC5AjsLN3JwAcPR8MDSu+RBMMXk2M8i5MplNOgxBDuc2ALPT76QH8mLvEEwdrxKgYDIe89gY/ayziXTZqFu2rpvDz7/4Pfxq/d8G+t3ba9pqNsQWatUhrC6zOCkyMB420myAqSp42L0/IiYqnWQ5du3YMfBfQT+1q9nNq1Jvj+mvd2DKTq7L86SQZFCRCQuAiGelx7GYPKiBd5nO3Xz2M6+wMb/fvZJ59vxH/JQ0EWVZWX5jou/gfzbXcDHgwEBI3qrpy5DCHh87XL84WP3YN3ObXqaucNkZzqK+DaKVmjj4KP+OiEhZYqetInQt6xSNcHQ32zqFwxP+5sDyfcbWSP5XI1VrTwIHKykKRnK67jvtIOYZi5fVVOyeqEIcvGu1X6rrLvImEFqCXwo5obVB9tZKQwSQQ28pW+7juwukDpijtnymiloVXpz3x58+ekH8b1XXjCjk3ptFFYqNpng5vky8Sc4HKSi1030NBLXbXzyY9ehg8n2Z40dj2E9veVHSyETEVrA6cdNSr6/+9BBpUh2OlNQRhE1OMPEcEjRKZD2Sx64dQlpSdRUf+tJVK35XQ4eDuaANIh2DMHzOvyoYTJrHJOZp1+751u4c/HzaNqBTqirEtZ1w7tujS2sq7a1bXv1YCAOn56PC/MDWLtrW7LtsUOH4QNzzhGepHx54ojRuHn2/OT7a3en2ydE81jZ4VDxI3LquI3gk+GT7dUQqN1LcVBZnbsR+GHF8sx90xVTAjOmsMRX8V+BkwvWO5KlnQf3i7YT8W0ySRzKMQUB3DFOPY+8UxuEyGyf4glZO1qzcxt25HQgKUOGn553Pn72zEsxbuhwAEBXluHcE07EF6+4CScMH5UE7eU3NlI+sbO4qo/mF3IlcCgeiTqGOLoO44sAJ5jnABlDuHWJzDu0nIBFq3bvE/KYuf0T0OGGDLHYEMaMQ0rXR4LbUMPGB9+2dt+h1vuB9O/iWRkCZiLfxifLaVCAMhgcDNFsCNuuU6wQh5ZReG7TGrxtxqnRLrobDXzw1HPxntlnYvuBfRja3YtRQ/oqxx8HB/rxxMZVHie5HccGRnZMYcMnWyZCwILmBQ8gDkvgchUKvre3cMDA14a3dbZrSiCYRltL2+6AhU91uKxmnpwZNfbWuNU6C1vUK4Q6bybQCXUqiTJjpTQ5O4ydELO0vp0g6n9v2QIMyMFzJA3p6saEEaMxpm9ordX+l15fh9U73vR8sdFF8BLig5Y4DkiLqXuDhVSRTNGIONu1Anh35mc9V22oVKAcD59Ucw74cttHZ0JE76eoLYgShzKeVdPMAUaxZbTg2d7JGCh/p84CqlIwE38v2rIBD65Z2hHdqtKBI0fw1ZefRDP/xNTpKA8gYZ6V9DV1xXpYMBXL8KnEkwl9oA1D8SCnmR9UK1pqgN3MDuWpPQae6b0VEy1AFGYFfISgnaaQK3qtqnxsYJSWK7Eg1lvFwem0P5xY8UVYnwDgL194FGt21RgA10jNEPD1RU9h5Y6tYGJLwa86IDqvQxb0WBdyF4ZGV2iLEUi2dpT/aeiGiNhKQaTLzUzLuZBpDWZCFXlOgI/2D/5alCG1U33vYhfvHE7RfHX3lLKR8C0QGm/dtwe3PXoXtu3fO0g6lM39y/KF+M6yF4tdA6Xn1MZrUNchAES9ItdjsVAoq2grgKpvw7ruqL0USmGtKreyLL71M1I6rIgLDBPHQYt2CJ0rho6adPgUCZfki4E0FMjTwcJfd/YmAFix/Q388v3fxvLtWwZFv8MD/bhjwRP48xcfQX+zSYXUMo17AVs9cWy9CbFLIovwSXiFxCQUotIUYusQJu7jVskywHsKf4sO7czAGKLPleJ0ZFwHezWW7YMhEStzxKBrL3VxaFXs0NIGV1LA+9rON/Hp+7+Nf1z8jD5BMJGaIWDZ9i34jUe+j79f/Cz6B5q837rww8sMC/fqGkMbgTC+Me8t63XnQtb6Si0U06VyG3befNXqMP/yzrwZWlNpQHQmttWbms4MRaUgy/w+9Ur47Lbxei8K+GBwEjFsuW1Z5M1+jpKsJvitBwbdVdCik9xFgDgPClIG7Dx4AF9+/lH8y/KX8ZHTL8Q7T5oX7XvXwQP4g6fvx9ObXsOR9jYO/4lxyaA2tpJhRQguv5Mv9stVfhEZ+aBI8IR+zJZHUKmPjET94ou5ch85zPwsihbpcrxjSGhPq+v5YzYDrwnQQhDBA99qv9QehVDd+DvHizDg7178MR5Ysdi/166zetsbvj0hZKcfPwUfmn9hiV/RdOvHlr278cdP3qeIW6yr1FmDKMWJCpWv2l4xSe0dKr4dyLBx9w48tWF1UiF2HNqPx9evKNsQ76NkjeCnUHlmXNV+tDZOVq6yQoq0UhAelPkWIFkE55hhyuWs2yLDgK3DMr95ywuQ3ewnN064uzbIoMgsZykevJW0cPM6vPy6b8ldOE8YAmQYP2IUrj1pbrT91du34o+iVqkmhSsUn30wbzdh5p/YSoJquqb7b/GFwQ/PkzwcjHykwyKOyo/V5GKj4AHz1ppw5SJxi69xHIortZyxzV+OEN+GGxlZbnbjmMp1ADuw1vFwiFTtNOUWya29VL5oB31ZRyCw/Vx1B9XBVQueBmzGz73SwfVeJultelZmLDwauNTwsSbRot1kpM1C3AzhdAjrm3ffVDOEA3vTwc1WtANVgiC60KFA+YOSMviyusx0K6fk3UCUxO3cdzTpTCvpzHX9tzXDidDxK4N9Z2lKRHuvWP0lLdqM4kFws02xReEUEd06l+CL57EnhjRUDTdlyLQeQgCswFRt3rIIWYHXmuCAt9s6YjM1qZT3T7uyOLmXGXQJTxaHguRrjoHUWx4SOHmp8MQW9NowcBzYDlPWWV4s4WPhGlPsJCyFTPFdsdpdBGqn83wjqkkQT4IpY1JjS1JaLJSibC/Tebs6KVuKuOU6yX5KSJxOqUBBEzTK9w4Fqo6VZa8qgTKWNqkUgXnw0scMJrHFZDulybxQUC8IUxfSMlSuf0kF49P6mcoLRWFKIL1JMCGTUoBIbKZbE7DU2jEaV7tU+BFFppNEYyT5qGKrO+001BYpHc9KV11XqUMiJ0JCotiuXg360t6jFVmIogVeTF3GsSD7u9iRNlEitNtIUtTIof3VkMCXWi1cS0FEbRKLEKqdMgI8G1cwjfaew38kr9+xrro6MRyse88I05LfhNSP2jqqF32XrO66cM/OzrFBqfF8dZWSWnwbHhFPkVvz4mFwrBStajhaPCFyVWbITgkhtSasYXIl4e3WjZjP7nSmRFidRhcgv3nOmzEYlMP76HyyX+hpP/Kf3pqmO0stnNh0ID/piOOgzpGs2y9ZVwk11yF+Yu452HlgX/5ytF6dU81Zneljjq0BfylL5XoL+8bZv+eWIgP8/Kxcx2g3GP/Q1wianJItuqwQpsw3181W8lx9pRcZaawUEDq/DBt+sYWjTNOILmO3CRvQyefIKBWZ6KrqMwfPz+mr1eEC54jyRPkn6NshDu+be04nCP8bJS+E0Xn/dlWrAO2nkHKWV8hMmfrmKrIiL+sx++3FlS8S5+wpB9XUzQnwIuGT8UgloTredxN0/MfCKVG9kWWYP2kq/uzmWyrZeNu178UVM+egt9Fd4qRctT+zx/bH4B/a3YsbTpmPn7/g6koYBGfr1f3PmCrGPIEwz44pyqeaB8WKdidrQ8XEgJYjBaGdYSxywQlvQLF1o9Tq+GoqvIlVHqhc4WahTY6gXYlkGmzW9NXqZCPLcMr4ifjkhVfh8plz0kdQttOZk07En777w3hx4xp89blH8dTalfrYFcW0MnySdkQyqK+nB9ecNBcfPvNinHLchBphSqA4liu//zWSdHJFkGu9N0yMEYoAAKaY1YbLOKdUV4bgGolGTeKHG0O4fVWm6VJmvJIU36uKI8cLoYqEI6Fwu5Hl+Lz/DDjthCn4mQuvxhUz56Cnw0N7uxoNnDtlBs6ePB0LNq3FV555uFQMRSCpFIDcN9TX3YNrZs3Dx865FLPGHV+776awUvbY+k43KP5HJYcDDc0jhlXSVuBM6e3KQnvMEpeh2GCzPIKm/V8hl7nISbPXeomMIdoDvUwcSZ/3KZjoBt6tVsuBNjJqCeIIWYfUQqCr0cDpE6fgExdchUunzyYXh3SWGlmGsyZNw5/ddAte3rwOX3nmETyzbhUOt3dw5myX+7mG9fbiyplz8PFzL8eMseM7PlV8856dxaDBWqX/KlHU63t3aRyEEGp545MHKZmhMhSZ0LH3O6gxRRsIu/epiC8ie6EKJQbk/RDQloqNNk2KzB/QelXhUyCjzHkTpuAT51+Jq0+ei96ubhzN1N3owlmTpuMvbj4Rz294DV97/nE8/toyVacra+Cdp5yBW866GLPHTxyUIW+GgLuXvVwwqEWwSNz5nzQ1Q8B9q/JLH9lkRzQG0YlMbPjhNQmhEpTyEyA2xoLrMLSVNCM4dAubmJgtlZ4j19428EqjIaZgza5ZsmWZbR3PGg3Mn3QifuaCq3DVrLn/theeoHUE43lTZuLcKTPx0sY1uOO5R/HSprW4cuap+Pi5l2HG2PGDbnug2cTfL3hSby23s4IF1/5zpv5mE/+0+Fk8vGZZCar15lkpQzB2zcpQfiKg8hxtuhQD60KuytukgpQjtxVadFp4CukJ2CcJflZTDKoFXxJ90UQHNeIhuxuBNNjVaODU4yfj5y+5FpfMmF1rsMzBifeRShmAsyZNw+kTpuDNfXsxfsSoQStjf7OJRa+vxx3PP4an1q1sHf2SM8SEGnV7eGr9Kuw7fCiNADqYBs7kT8a5gG379+Lx9Sux4PX1xcXtcq0oCr8daBMZSnuAxKgaEaUAqjsgfdhq6nuIMhaMua9QajTyeoYyak1Cew6FkPAWw3uH4Levew/eNffsjgfLMm3ctQN/9/wT2HVwPz523mWYddyEjoOR7kYXThC34XSSmiFgweZ1uOO5R/HUupXFQFQSsZyNi3tmlv7ox/fhtR1bFV9KEpYtZJl+XvwZxD3gbp1Fhd6hjU/bKwB+nUWDpmfVisVRe0efntjUNJNtkSvWDJ7qC85CuItGkbszqb/dpfsuJ4RDflGvcWvxmYNMj4vMoNrQSqWurIHfftt78N7Tz6shFjyt2/Em/uHFJ/HdRc9hT/tQ33uXLcQ1J5+Gj517GeaMn9ixx+gk9TebWLBpLb76/GN4dsNqHBkoT8qOXhYpCFP70OXktHh6Nod/uhkXsryxAH/ItRqUOqEKZXiDrICluHlJ4hC5aUniEDqYbSrwTN1x58YxItyDDZmiPiwynWbVObFO4WeKW+SaNHosbpx3Vi2BsOn13bvwty88hjtffg47D+xXFunAkSP4wZIX8eCKxbh21jz8zAVXYeaxxx/V4WsIAS9tXouvPf84nly7olAEO1lgB318Lb/j3qM8ccfAc4a4afIcXntVgP/yrvUzTctBDrSrwjG/MAHUUGzdmJ+izbPdsoTPzxoGwNsiVUe5QhJOGQ2fPf6EjmeQNuzajr97/nF8a8HTOHDksCGQwDUA+w8fxr8ueRF3L12It59yOj567mU4dfykt+QxmiHghQ2v4esvtGem7Kebqe+DCyuaJeXEpfy9wnsLHtgY3XprcxOqZmzmBooZ2VqjPUMZLhUD4czuVTJ1wOC1SiznokWZnG7NcZD6lnVAxxwfMkWL4uJ25FNRROCDpp2Gr1QApoDyI3S1mU7U7q45ZggI2Lx7J77+7GP418UvYPuBvYLUoSCgHrjmDG9d+PGDJS/hoRVLcMVJc/Cz51+FWccdX3nRh0z9zQG8vHkDvvLsw3h2/ery+qk64YdDyJ4kUYOLBSViM4JkAAqrFP5ebSnUUXCYs5FTSoUCtNpWVdV4ogyF+IkqzsQSw2GUJDDjq+GlGzddOBVMyGSVgCoJ4LTcLroUTWVKKXQ8WyJUlTbv3olvPPco7lz4HHaJI93diddOQIQItPP7jxzC3a8uxEMrluCak+fiE+ddidnjJyT7DyHgpU1rcfuzj+DJtSvR3xwo/aeYQUsOj6kFE7t86yTj/TKjTS0hE/SXo2o62WHHedpTME/nDzIou4grTdtTGO/kccjcwDv/Y+EtlBilYkPQ0o05IlG9Bbvbj+qtPxKDDuPqnFIoGZFKQC5izxlQYR3X79yGd93+h9jbHixXLtnTUxi8oh/sP4wfLFmAB5Yvxl+856O4eNrJURj+ccFT+INHfoiB5kBUqOoIED+3qmRmVSrR1QPV5NVSiAlQm6uOJ1ASU6kUdAXensVVlpUiVvJE4+CnCBwrYSKOFA/sOIl9fiA8XXcN26aJa+NVi4aNB9VTN8SvFIVD/UcKZeAMYZ7CKgkDNWu331/MTMXSrgP7S6+gIzFvGSsEim99r0F3xKvT/WckhOI8sKNkEnZVKnYZE/U0utDX04MxfcOQAdhz+CD2HTmsj7wkfFIhX4gJvGwhPpKtyPpQSeDUXWqvHfS1OnWb0QpJYFaKKIWZxZDTCnXsYmtHcLXrLhRbWV05MRAP/+omSvzUzE0Oi12RtzjUcxAlBCTUcPSFEDJ1X5wGm1KFjIkYLLnM9DS6cOaEqXjbjFNx+vGTMXHkmGJRM4SArfv34pWtm/DQmqV4ZtNr2H/kiIs2IoApJWazUcVPleezZ5W7ZIsxhIj3C72Jhh/Wy1jXZ5Wi5FtsYF1LFIxQ+UUXWF0FTCyaAy1CW1G5CgDZVEnwkmElAwqhqjH7VHu2K2jO24FqaEu8EjIl8ICeAQTcvL/CoR2Dm810BQ/az+afMAU/d84VmHPsBHQ3/ARFlmUYP3wkxg+fjctPPBnrd+/AVxc8gUfXrRAr+Na4lvBmRCkg4RVjiEx4OjZWpTIkngP5DULtl52lyr2FyUcq0nyQeVmtxvihWkjIeTyRb54LCylPWajbTQoH2X7QdeqcMVT/3Ivgfge45nUdx6oQbVbJgaWpI3tAd9bALadfiD++7gM4bfwkqgw2NbIMJ44ei/912Y34tYuuw7Ce3tTZErx7woayLJR4y0esDVlHdNJgBAiuschZDSFFP8uQQIorqEEJxOD1QuaV2MLqiVejd/9LKLZSCt89xyEQnBK9B0tP01GI8CT3IPojf00D1jTDqbvRwKcvehs+efZlGDKIXciNLMM7Z87D7191M4b3DjFUlUfZG5mxBke848skDlZJggtQ8iNuGkUFQ0F2CLl1EFHemAelzDArW4OCVXWini0knquqlR0oprlmQ+23B50szSQzQp2XDBwRHlYpRQbgg6edj5tmz3/L22HOPGEqPnP+Nejt6uL6HQUsUFFKk5nIODFEjbyuO/VMWT14IROVCu2V4UjEM/h8dbJnDkUvDIngXzLUHnFTSUXViPN+EXoVFinilg2BOkjKrpvSvElhZW2/igcSB5/nJwQGzBs/CR8/85Kjtjfs2ulz8I6Z85ycSRy46Yl7hYLfQZeFwNrRSDbMG256ykuWIL4xr/ZXWimCxKky1apnPVvgVtHjUB8CHrsK5FLxbIJBtXonoYR8YGcmNf1DouGIfTBC1cga+OQ5lw96az5LWZbhY2dciNFD+rh3KkBghjRIUVKhURR1ZkgljpX3f1ljR8ONOGPd2LkDJXBtwR8axuH1kq/hT8RQdeAIRuAj1GfxLDtZop5iJOI8pYRI8ER6WQFvIhyRTZ02fhLOOH5KR7Sqk8YNG4lrps+B4Rw4nyroy5TEKkqC3N2y8WJyMrHwQvOKK/nUl2RY5laU1UEFHabq1VOQJXp/uUYb0BodQs3pa4K1fgSBnvumXKNe0LCTsOPOD/3CoGj1753W7tqGO156Ak9vWI3+ZhPzT5iCj5xxEc44fnL0nQzA1dPn4F+WLUR/aBZCy6f1Uco3WVxMTivL1dOC/XoKtlFkYvNbsk+ijRFjFUkqpqj1RhvaGlV8HRfeOE/BcPJp+tjjMGboMIeDm7WKDGLYYcT/HdPandvwK/d+Cw+sWoI9hw7iwJHDeHrDavzaA9/B85vWJt89eex4jOgdgg6EyTto9k7wv2MRDxC7dLHojF8QEkyrNr7N43M1nlP5oN+rxtvFXtXH7pcdFqXOStfr/51z5uN7H/1l3HL2pRg5ZCihdzo+L6hih2RHYy3mP1G646UnsGnPTk2CELD78AF8+fmHWwtxkdTX3YOJI0crYdIhuTRCofyXByuUmWbMZsd08GG4Pv3bClnbL0k3zxce7Il7BgEVM4vG6wpDEIJnhahikFSeDZWDxbxhdTph5Bj8+pU34Psf+xV85JzLcMzQ4QVgAluV957Bxuz/vbzHU+tXtXAi47qlb76OHWKnMkvH9A2PGlelKIamWiQYT+p760ZsQFcugvBwyrupuLktrWjVgCidQuxXhYALe0MxOHDkSK3+syzDhLZifPOnP4WPnXs5hvX0GpCIEtgVbaYU/w1Sf7P8dJZ57/6EhwCQHFM5CUyGq+B5GSaz6CIEMYawDx0A1tf4Kc7iT9p7qenOeqJgXZ9pz1PIh08EhxyD59uWrZM0Zcw4/OoV1+MHH/8sPnrOpRgzdJizUspSEVf93y2decJUlZf0njp6LMYNG558v/WtS3yrkJ3qj3uKkvghSHqT6Kb2GAJcMVwd2Y0btOhf5I36iY2eqjwD2dfk2gRw37KXsWDjms5hAnDCyNH41Suuxz9/+Bdxy9mXYHTfMIdxAsD/NuESAHz0zIsxqrfPlfc2uvA/zrwEPY3415FHmgOt8Yc1lBX0Sc8FBf/IGWL9q1E2HFC1GS1fDY5psIMw6DI20K6TrNYzOgWJg4E/eTNQCNh98AD+53e/gfuXvZwc+MVS67CEY/AbV95YKMbwIX0lvEG46Qod/a+cTj9+Mr5wzXsw59jy+J8po47B5y69Hm+bcWry3dU73sSuQwfahAmIrR2VkxN2oA2Sb5dF8qXDKSt0s6M8/Acocu9+u1Oz9Vp9pCO+oipmAcTaRetnaH8zUMeSwn/DArSXN9qZ1LoEub8ZJbRAAN7Yuwu/+L2/xbwTpuCTF12Fy2bMwZDuzjeuTRp9DH79yhvx0XMuxW/f9x08uaZ92XkbB/o9RY1LU37prr/H+l3bBYPKd+ySUIGXf+B/ZrYdDUvxRUkGzB0/Eb952Q3oSuxsPWfiNNz+ro9gx8H96G82ceyw4ehuVH83/9ja5e1v1P3ZrPI7Hfmti/quRZ0IaNaF8mrRre7lWlF3q9+qYztIEf10TtSKf1pn6qdTX3cPRgzpK7+aI1+BtYoT/bGv1AB3xlATAS9vXodf/N7fYv7Eqfj4+VfiipPm1GKoTBmAUUOG4c19ex1dCuKjZFAdOqzbuQ2rt2/1D8yRMTkNpC74w8ZEiaiY6UJXtnH3Dnxg3nmYfewJSVi7Gg0cO2xEbXrtPXwQd69cpCVTJGakbQrsjVI4ILTBFefvhGBCJvHIz5FXzvuDeCft+uSelMLrVaQpx4zD/Z/6TXz8wisxuj1wje97N6ER3QDoB9YW3oFmEy9uWINP3fk1/NTf/zkeWLZIHT5WJ92//GUse2NzZINaDn+Hs2x0m0dyOqXoT23rEKGv3RCo5/lllBdwqL8ff/XcI2o26Wikf1r8HLbs3S14Ag0v7LQ+Cnj1A7shUIZQLNbWkx8ZhEJkug3BOM8U3aSPyf2wuWovUTpNGDUGv/m2m/HDW38d/+OCKzC2bX2ic8qKlrpCRlwfwbIoW7hxHX7p+3+LD/3DX+BHKxbjYH/1FO3+w4fwtecekyQpYXGDxrc4kggVhsnoBxtM2hFsfJdpwFPrVuG7S158azCL9MLmtfjWK88Rw2RxEL5UKAEbfMcWgeP7z8rihuqTiXLV5jMmUGRhhlsy1La8WdY65e+3r3svvveJz+LjF16F4WapPx9Y+66FIDJcGLzCsw00m1i4aS1+8bvfwEf/6a/w4IrFGEjQ5P7li7By2xaCsyCY8b6VSTE8pcJlm35avMq7MJA0vANhAH/2zIN4cv3Kapgr0vpd2/G/H72rdYgzBcVfl1VBGpWrWgQWPqSo0zX8ovm32Q/K9aBMlFccmBu7qDA16BtoDuBD512aHKjZNHroMFw2cw7ec8Z5yLIGVr+5BQePHNF92MEiw4nE3zpvTmZAwOt7duLupS/j8VWvYszQ4ZhyzDgF+6GBI/jVu/4JOw7s9zF5xmHJAPz8Rdckcf7WwmewI7+FtCMe2DGEpYspMzCrfBv+/uYAHluzHOOGjcCscccP6tuIFzatxa/96E5s3b8njZMd8wigtFzZcZHFweKjGFK00DX8ojNvyyIPqxSiHvCJQV0G7Dl0EFOPORZzJ3S+rXjEkD5cOvMUvH3OfHQ3Gli1bQsO9feLbuyMCT9JQilPlUC10xt7d+P+5Yvw9NqVGDN0OCaPGYuuRgM/WPIS7lz0LMoP/g2XFAhl5lMVCvHNhU9j+/591QpQhUOFAFmYGQ5Z1lo3eGrdSmzeuwunHDsBw3uH1Do2Ys/hg/jGS0/iT57+EXa2t3LUO3Xcw8tm06yS5PCaxqNGsmv4RWfeptuIT8MxxWHAOwGKzGy0vvkPeOq1ZRg/cjROHj+xI0+RpzFDh+Gyk+bgxnlno5FlLY/R30/hrSdAXqmZlWqGgNd378Q9SxfiqTUrMaS7G3c8+wi2798rX6ycvUFWTyFyD1EHB2aoFASp2Sabjyh2MwQse3MLfrj8ZWzZuwvDe/swpm+Ym5U70hzAim1v4M4lL+BLT9yDJ9atwBEyMLdT5UkeUKUQJTWUgr2fjf/Mx4KpQ6cvk1aUlTmrZBmi811dDcybMBW/cMU7cNnMOejrGeSFKW0hvf3ph/Hdhc9i18H9kdCgQ28XERjZSqPRKBYvK5XAkPmVz34piddN3/gTrNr2hjZqgwhhq4UsEo4kvV3r/+6uLozsHYLJo45pTXxkwK6DB7Bx9w7sPnTQKYEL1WvwhN1XwZQiTe+Mvw8gG/+ZjwZJrEA7IApB5v3rAK8ZYL1RS6jOmjwdt156La6ZfVpHhxHb9OKGNfj5b9+BN/bu8t4uEvfWsVL6Z8Kj+sETDZcy/NsoBC3LOghpGY5VQqbwDobHgwjLqyKQSJiuldjSSZQZnjTUQNzO1amZEPEzn4FJTY4ENv9NKpmZkGaziefXrcIn/uGvcdPf/B/8YPGLOFRjqpOlsyZPw29f9x56NRabPeOnAVpwO10HsOsecfQ7SeXsmVl7qXwx8Y2LwZtN0VaeqFKgFWITRzpTNeNGyOvkipKRr6tkqmEzvYtANvcFzqc6uzMDnb5kxPZY+IUXYOHGtfiFf/4qfvJrf4L7Xl04KMW4ZvZpGNk3lK5JMPjZrt7o9ncDdHSOPDHnb56m4TOLeZRP7JttYnhKMPXko8OJwRuZwqyY24RdUGVT/XTqPHKiildB26db9OEsFb8bOY2jy2lmNx5b0a7+8L9q4cgzLH9toNnEi+tewye/+Td4/x1/jHtfXdjRqvGQ7m4cN2xk2WzsI3/rAVMnZNBFIW7uvZUix6vUMuxMaF0nvDlq5IwnC0SopFJE1zGIgAfLYBj2srUijq+p5bLMCEU9UwKHvLtGxCf5cEnhGCqZyLXcKBdhkupDLp2EgAUb1+DnvvkV3PSV/4O7X3mpfXtQdcrPIk3ShQpz1Ld5BgRAhR9W0Y2JY1sM6qYiZPAG0MGuTrsL3ooG2r7GkXk7amWjouTDE+fJCDDshEP/nYvnSWbyxEdSHMReJh9LaSeYwJYBL5GklNYQaQFl7ZSAN0MTizetw6e+fQd+6ut/inuWLEDtxPpXfVRpOW2kLAuMTh4H0n19+COGMxeN5FZ32mmAVrBo8OM+5SybY4pvLVCEnAYS9u08WL0YaYIxXHUYIVpo2OVtFluVnZWKU7pHA7x5v6PDfUNZhyqJgK8Zmnhx/Wu49ZtfQVWyVkpBIuDL10XUu2RcwYy79xz8I3njQjpSCoaDNUzlVuk4DvzDqUw0WaiX40EaXKkkunbxNpERF+6ZuQ169pbxfM4zhCAfEfitUrcS3fAfCphCCWFsGdICD3LHZvC3uqipMrvvPRMtqTzpsFayWprp45XafSg+ZqSJTDWhGWDv2CDtS0hk83WU4ifnX4Ad+8XWDUcGtn4QqZMBzWbA5j078fT6Vdi6b0+LvnJtSNBEXy9grz4A2B0h5ax8LriZvwQFaH9Ho2nktutLIiWuOW4dYpy6OCfkvQNB0ioUOHTrdgXw7cqKcRIZCzx0WVSJpNSRD3eUhcuvYQqEDgUVayYqxPJhSWyq1KosiFckwf3VUrkI2Hytz0VE+uD8C+tX7iC9uW8vPv/g9/D4muWIWQJ/wFtW8oHiYJWCMUB3JenLDBM1JKJSSgnYVV5l9aCyDe664+MF5fpUTV2HhlOmZTWdJry/DbLk8xiEyRTKvyx8Ml61JFTq+w/BSPuObY+FWOWDRJD975COHT4CX3rHB3DdyaeV4V7wgNuQkJLZk4wu28TCJzrQdn348AkupLVT+1Zw4jQ35zJRyCN50g99R8eu3GkYoVLIWoboeLx+DO7jbY8DURJbPbJwFOKNwi+GGePwH6cPAIBhPb34navejWtmnlpeuoSEUkgclIC5wUFRp0qUdNPWyNjHFYpiWV3IkB6bsnFeww2aiIYL1IwVD473bNiSXKdgU7iBzRP4JRzm4KM0pgzxSuIWv3KrRbydznsrxDCwDHir3wcdrTS8dwh+920/gWtOmutpFjWw3MjEow1jzOQPp3+SQ3UPhLYpxH9G8g3tcUomBYuwtBwufDIIRYRcZ729SZ7zZAsjQhclC8HJhXsRHHywV8NTEFcuKJiwvP9xaWhPD2675mZcN2ue92wCH8oOYljjM5j5i0HT1rE3TvP4HSEsfBLd2gVOaRqDWJiLL8frX5kpYpaWCVBlYmMMGOCZ0NVXieiTOvDWCZ9iYwxjbzoD/d85De8dgtuuuRlXzJhTAKoNPotTrQyFSJm1lXIQXR3SmgbbWW+YvINijXJGNESpr2CsqN7IFewf9QKzsnXm+P1qKkeGufNoMiFKCSvzdtpVu1DJhQc+BHQMCZH4O4rjf2wa2tOLL173Plw36zSBk4Ax81FTQbcgKkWUIrfcSRkKnieKZoYHpoCvcnswTKPqWt4AfT5QKDE3U2fl7Jl66FLrqa7DrqL1ZWbiM7JOUcwpv9XEUFXUzMRMXotTyc8mQyjPrYqWpWln049fW469hxMXzFfM4eZPu7u6cP6Ume3v0eNpaE8Pfufqd2MgNPGjVa8AAejuamBU31BMHT2uOLpzx4F92LBrB/YcPlic3dqabq3gjOGjkzO/wKV4ULXWFeu01UwW5Xm3nIZ1C2Z5qV14UesUbVXODyZDgF2csusStS4yZ+fztCe2y2uM6wtVWVPAj5xxBF55iJXAUcFrcMpii0aGIQj5V13lHHlV+v2H78KqbVtyqMsH5iMdtfyjPsIqn1990lx88e3vw9D8oOZIGt47BL977XsxtKcXY4YOw7Uz5+KU8RPQa24ePdh/BMu2bsZ9Kxbj3hWLsPPgAbN45xfzirJMGE1LZmGjB2NYQ1u45dlbeokitLttr3UB6C70rYBTKkCAbEkJlRMieAWwCPlrfRxC6jJ24rD0C6i5OBcMsS0mBF6hxII0lfBX3WwEl6/v45hQMQJZeEtD1XrnwZWv4HP3Ar973U+0LymJp9ZA+yY0skYU9b7uHpwxYSpOnzAVHzv7UvzNc4/grqULcLjYlSxgC4YH1lMongDyFiAwI2QWgOltUtDG1h5Q13b5CBBjiNziq5F3coBjh6I2HtdlUQ4nVnLcYp6IxzsZQwSKEwskqwZ1diTgO6++s09Fy28xBQNy4PCS8eOPVr6C2x74LvbX2DHclVAGmTIAxw0fic9dfgNuu+omjBwyhO5rsvDxMUbsPcIDOtsEX8+QiUGUWJiz/ZfAx2WkHKiK8/oEAGwgS7pk6wAG0AyDESiixITECl5boc5uTLKZjh3Fn8VozomCAipHc6IUeRlZdc7L7lu+CL9x9zdrb6Ovm7Isw9tPPg1/9M4PtjxQIX0CfiJXhA0aB92M7NE1kEVobukZVL79gVA5S2AXjspH0spaqxpTJKblTN8rVx7bkOld+R1aWUlEpWNWoDSgUilitp3f0ZcGQSrFYFxFeleBLSY4tIseXr0Uv3XfneXZuUcxnT1xGj57ydvR3WjAczOGE5EFg7DfehNkA+CtICZ8CoBGiL3HVbHIByPwbkXbio5FqMYcvgfeh091U7ANqdeJlRUwsu93/b4bT6o6X30l9+5b9JNWlUyLl6hp4CUPAnD/ikX4nfu/e9Q9BQDccMp8XNle03AL+jZcLYyroL8yZMS3B91C5QIwXSsqu2hot6G6cuZE7y0nsVOE/4H0XACfCD9q3eFcSylK7xcXqqB40EqZFiCDI7VcTubNZjm6wt2BYrPww/DA2UnGAEAJ1QMrF+P3HroLzUHcj5FKjSzDreddgWE9PQUVLfxMsR3ekgBKCRhPLM0qlEKMVRuuhShvaLCQ2M3IyjxD6Fd1KfkI9Swq0k0kcXRWtZ2yLCvuSY41WPmVIBhDBoMEIGdu7LOQIqs1TO0fo4cORVbjoLgjAwPYtHsn3ti7u/LeOACYOuZYXDR1VhLd+CbW4MqjxjjEe6g+uKDVQHfZnrkUpZgRI4thIfadRrtiaE/lZkEzDm6GTcfQmQ5PcnjqzfHHU2FVI98nsA9cEFBccHL8iNG4cMZsvPPUM/HYylfxD88/Dn0puCd+hkzRtHJKthqLkv5wE6yGB7Isp6eE10Id0NPVjbfNmpecTQoh4IfLFuKvn34I63ZtR5ZlOHX8RPzSxdfh/Ckzou81sgzXnnQqHly1BMHJkOCJxDXIadpWPpBqDKfcc8eOLpUNFDLefrFcYcnMY0FHAOrLtQKh4oEUKsquQjGKm+YTN8/HmNFqP1P5OopxTH7Zn5CD3PjYr7wAoNEAjhsxGhdNn4Ub5p2Ns6fMwJihw5BlGcYNH4F/eP4J1RhjAFtyozjYFe047xTQxU/DA0sOJXiW5gFFWyOH9OGU8ROTIPxw6UJ8/sHvt2/6acH/ypaN+NW7v4k/vfGnMX/i1Oi7px8/Bd2NLhwZ6If88k5/tdbKKMOkBL4FPJOZok4oZcLuKpBeQh08IcSuO/qVmmI3W1Qpa1i+sUUV1xb08nv+XrCeoXLhpTre+PIHPoE//NFd+NaLT7aFkFulMUNH4KqT5+K6U+fj/BNPKhVJpLknTMaJY4/F2u1b4VbgC0WXQlvhCUL56WYqFf4hn6ttS5LzUMwN24fyUZupU8eMw5Cu+BViRwYG8FfPPFScjSVx2nVoP25/7hH8+btvib4/fsQoDOvpwa62MilJiTr8UonrbOsoUY+GMKJIR0T5tppu3xggvz3NP7sLOVTMyqJ8x3vjVseq/aKptpVCFkVo8PtWBDNGjsaXbvoQrjv1DPzve76D17a9UdD4hFHH4IJps3D93DNx6Ulz0NfTm7TYQ7p7cM3s03D7Uw+12wig36ZKOlWuYHc2qNZmBMqN609utefjq/StRscMHZbsd+v+PVi3cxvHIQAvbFybfD/LMowaMhQ7Dx5w8Cl01E4JT6LiGFWkPAWcnGZVYXZ7TFHcMee2FETU1obijMTWkwSFtyaCj2ZRSwHke7sPHsCovqGVDLl69mk4beJU/PFDP8DB/n6849T5OHvqTIwdPqKDbXat0wC/8cyj4vBegkXGrdigExk4K8NEmlfe2kbZRoCqdLK7vVodq9bTVX0PX9PubAaAzCg1RVzKS4jbnki++GnknMlVt3gqvJMBQA0kJOnF7IoZQziFVN6PWFWXhwO+1b5wc+38w8sX492nn1vJEKDlLb747g/VqhtLZ06ahomjj8Ha7W/qvU+ZED8zxnHekGxwrExisgPI+LjOjOkUGRVZtVKUR/jzNHbYCMwZPwlL3tho4Gk1fvG0Wcn3B0KzuJi91bsMy/UEUWbGRNYblbe5QuBgPUVBJYimKz1Fw+7xyIRNkfOz8occ3/mhf/kgvm9IcCeUJNLfIrT7ZybJbIv4ox/dhQ07tuHfK/V2d+Pa2acrHAq4GI00FQaZPA1DTgrRUfDM0Ytd8GwAWtdbHTwSPzu3u9HApy99O0YNGWr6D5g06hjcet6VSeg37NqBA0eOeMIYeO3KvV+8q0EaWa1iAdWuddk1dbiDANotsM6s4nhqS3hCUaBXVCldxNNg2vMavuKNzfjpr/9fPLV6Gf690vnTTtJwxQhQajxySlaehUuSEgfL1ViZopvPy8XGPQcP4NWtm5IwnDdlBv783bfg0mknY1hPL0b3DcP1p8zHX970EZx4zLHJdxdsWqtvL41Yi+hpGYSeelXbUCppmAJnU2ivQ+TWWE8HAmoKNpPn85TPlQsGyKCuVU9hTRHMAPKOGOMLZvrZpxVvvI733/5H+NiFV+KXr7oBY4fXvye5TgohYM32rXh81VLc/cpLeG7dKjejFts6TuaCBrEOkbPSnpEE07Y/4E3PEorYVdQ5MjCAe5YuxPyJJyaHOvMnTsVf3PSRjqDubw7g7uUvK2NWRm121JgxCXATAyokLFGvHZYXU7LQIVZ3QSlPezLatSO5dkxbfPBS0UaNZ2qsFR1j+AZCCBgIAXc8+RAeXfEqvvDuD+LCGbPp3RD1GdnE67t34qFli3DPkgVYvHk99hw6oNjFYLRKwGLXRpZh7PARuGT6bFw354xqYISpK768KwaRbaESAh5TCkNlNdb74asL8InzLsf4EaMHTTOWXtmyCS9sWJMzCkxYSv0WxlaRLC4w6QPoso7kKD7x3AY+H7iWr1uNVpyBW6jL3xLzyZnU+iqNhhhEyUFpGz5mZVdu3Yyf/vqf4pbzL8dnrr4RoyqmFFla/eYWfP7u7+CpNcvbc+/ChsmBbF5miGuVIM+PHT4Sl580B9fOPg0XTJuF0X0dwuaNe1HObBY7hpJPgAXsPLAPX37qQfzONTe/JUMi0+H+fvzZkw+Yy97ZjKYdaAt4CyWR4/hE9GE/c7bHaNqJayFH3WrOv/BLQuSLEXzmYRBwFK7PWCX9lVfGZwkg3rFKIN7JO8xXWHOYMzIbdbi/H7f/+EE8vHwxvvCun8JFM2d3dD3XieOOwy3nX47V297Auh1boelkZmogdNmESw1kGD9yFC6cdjLePucMXDBtFkYO6RtUuKQECICbxoMMWUUe5XqS5wmUwHx/8Qs4e9J03HjqmR3CRyAOAbc//yie3/iaXwgDtJxJbbZKrOAXxlbwQEXdTAmk95YBkdSnDOgacu682+pcV8vudJbtyR/eI/L7vuz9waXu6nCk6s67WD6EgB379+EHi1/Ejv17ce6JJ6G3O+0U89TIMsw4djxumHcWdh04gKVbNoqphYzCm4OQZRlG9w3D2+ecgU9f8U585qobcfPp52LmscdjSHfPoO51vv3ph7H70AHtm6VAFWBk9idULUNzxYzQOlX96XWrcMaEKZg0emzHcOYphIDvL3kR//fH96MZmpRHeb9GVAgOFl4rQ3GeaBnS7pHecTfq538yRB9WXdhny6JKUYWQDKdMnUwg6HifVgpbNuO44/H/3vhBXHbSnI6EMoSAh5e/gv919z+3vEWEISeMGo3zp83C9XPPwiUzZmNYxffKddPa7W/iHX/zJRxp9rd56pWACrwHstbNnBmAYb1D8BtX3oib5p2Nrg4vvjw80I87nnsUtz/3qNsNq3YtROGtwMkogSFG9LbRolVbLOmjFMK8nCMgqUn6P7rAC6boOhH4JII1bhYd2tOLD557CT57zbswusOxxRt7duH/e+gu3LngWRwZ6Ecja+C4EaNw0YyTcf3cs3DO1BkYM3T4oDxALB3u78fnfvgt/Mvi5zlPBBGpEWJlNQwVMqCn0YWrZ83F/7zoWkwbe1zluKK/OYDFr2/Anz75AF7cuAbNELhcWc9mcbKRgUEk7jmKxk2XmW4zJUOjfu4nQ1IJKAM4sFFPUUAtBuTUM0TCAfWHuEIPXtp7ZBlOOX4ibrvh/bh05hx0kkIIuH/py3ho+WJcOWsuLpx+cseKVTet3f4m/uzxe/Gvi19oCVfqWuEOrKouqzZMw3qGtGbDZp+GMyZOxQkjRhf9DzSbWL9rO17auBZ3L1uIFza8hiPNAceDShlq12fhU+bAEl4mr1OlFJEjeVRZBmQjf+4Dwd8fDCdQlUpgO63wHiWRQj2EcoAdDJzgde5s7u3uwYfPuwy/dNX1GHeU1y0Gk5qhifU7tuGx1Utxz5IFWLBxbbHVOuadkxeZt99Tj20dpxSWjuXbWZahp6sLw3uHYHTfUDRDwM6D+3Gw/wj6B5qeJ1au2DjP9kgUO3nfOfV2DAeiBJY2yFoKQYEdzJiiylM4hWDIKEq4MUWmKRWFj04UkDFQlmWYffwk3Hb9+3DJzFOOarhTJw00m3hz327ct/RlPLB0ERZtXoc97Q/+613EzhWgylP4UIbxwPaXJd7ndK9jqJITNonwieJIPF1sTEFlPFeIGJJvOXwyVLZCX6kokXAqitAgFDvLMnQ1GvjYBVfil666nn4HcTRTCAHrd27DIyuX4P5XX8bz61cXnoBarho0T4YfbzUml2XOqnr4fMRRwYOIF6DyGPN+UcUmYbnrSij6yFs/EFy/qdiPIsCskgGfxoN8irZssjMtZ/FhDIcYQ2aNn4DP3/B+XDJzzlFbnAJaA85Nu3bgsZWv4gevvIglr2/A3kMHy1GVdeVq0bIOTyq8dYIHlfRVdFI/uMzUCMHreb8OpmSrcErIiJySbSmEo0WFUNXyChx4piBinS2JUNzrWAvlGWDrpYjf292NW86/HJ+++sbK7yyq0uu7d+KBpS/j3lcXYsHGNdh/+BBhiIeXCpVkbB2BMnilBChjjMi8AMVDWMMThlOn0QYrq2VYB+M52u2MuPX9wRFbaEwVwess3nlYOXAuZqwAHtH6XKnrMEXmp40bjy+8+4MdeYtmCFgrNgE+v34V+gcGCA5EKRLxd8z7MZpb25IclFbxJBV6MJASSlFrAZjkYxFJtN8KTxGXIRiFqGIQ7bwDjbbEr8GQOlYqHh96BtQJnyS8fT29+NC5l+BXrr4BY4byscVAs4kte3bigaWLcO+SBa2B8cGDov0EQ6roXWNMZHHoeIozYWmZ566LA5MXBl/HkwdRpeYwd7J4l4249f35NhAez9YRqhpWKkrwirym6dGwUgQnosRWgGYedwI+f8MHcOnMU9DVaCAgYP2ObfjR0kX40dKX8dy6VTjULwfGnuAS5nTMbrZJJzxHfZ4I+ho6ZSxf5SlsWYXlHcwYghkqD1pVSGjhj/CkUIhPthRCRyhpYOvGr8nVx04R9HFAwlMcJRyMVerp6saMY4/HtLHHYcuenVix9XUcOHxY1S+wrGGVkvH3YLwzkPR2MYFhisPg7QyHSMRh/3Q8zqgz1c8Vu1IpAGQjPvm+YJ5UWiV7CFcc2IrFpNoaXQehsr8AzxCHQ5aB7YWuMx2oGWC9UV0csqiwMG9dNp1WCI9D/Zka3oclYkW4pOgWkFL0wXqOeuOk1IKwgUjkG+7TRJmR22TV98L5NlzyXaLJ17vby+btkelZCYJtzIIc+ZQQtqscrvhXl+3X7U2cpFIKB80l/fmsArHMBNu8YqfBwR4D7wSK33nncYjgRHgUIlVlRl1BHKFx/i2C/Ua+MgV7RHRGuvHXOIvXVZnkidnGqFijsI+CWXFgsWNKRAmCe2QZEqEs747WrnMqLD13NTBie8J4HCKARi0Eex40PhUCE7vIkimyFtiS9+rrvDrwgzZvqZKbCa0ADH2iJOzMXE0TDr8mGVMKDXKjpHmgFSTT2AXaBZIWIUoc6LYs0zQeRR3+gbyBrcCB2AlzB4D6yL+NU+WH/07IQOD3QlPw1phLK0r6MAbrKYxhYgJDDBPDU3fLDBWRAwub8n5SPrzSBtVIoit2OoZmJLxaGE8WjDRapaDWSjOzEQxC1rwqBAsmhxjtogxBiDFExgQlQnURiPkCT3D7WkjCX+BpcYLByfVub6WJwWeFyioKeRJMWdwsx3EgAqPby3Q+WGEQLTlPZvhi4XVwBN+0UWqFQyhpTnnKKCG0L26EymJ9T7WyvFE/XiCkXVCFdLFWJEJJBYvcGaAQIlZVCVlCcRI4VB5v3wZCCyj3tjE3zctKpc5SL9jwo4oPKSNTtBeir1YNG3XrFoeQFK1cbN2Vaq6DmHoFhR+lLfPWIt9wTAxgRc5KMdqyUKPyYvMCIWuVLHWDVwBHn1AYKk5sFFZMOH+vFOZ9ZmWjKZR1qJKEFLwlYFKJS4fsvaPy4GjPUFXygDtY7zn8BSeGmAV8lgbOGiOOg5Ur9f1+BIdAZSQTTRbq5XiQMhkNTU/iKWzsx5oLFXlX34YeCoii0Mt+wrJFQbCunKTMvtth6GFxcgIbfasKckQzAqXAqtVw2L59Dp8zfKT5uqc0sratXIVadGINBQ4bIYw9QC/PF7NMcaVwGQiTBRsLFgiRwbctSAYoocx7T5Ry3aXFYXrAPF0xvmE4RokPIBViCcCjoYaxss5TwAiLBcnBq4XKwRY8Eb2lzSRY8kck1GAgWM/GcIhEG9ZbJ1LuNTSukejC4ST4IPKNmI46ggurxDxF9CLFYkAUyjIBDR/kWQbInzEbQO5bs3WskAWCt5LnQBmk5ZAP8qg5sAwnddLhkyzWoQYzHMxyVI6TxJgo6G4pDponcZrzYk0sZlxrKUkw8EmDbJVCwexTw8bbbtECqURYmvAMUY0PUSnh/jpHMOkpLKVYnjXN3pEWJfBFMitUstFgapiZG7ZQpIBjGhfFgSiJI3eg74d4o4XxItTyL0f1Ii1N5AWwIKjWtLikOFMKR+9WPw3XCuCslF5dLVErFIC5vgQDAgVeE5etUzAvzrgSW7eQAm/zpgWVDwZmNlHghYDFwX71NMAOYSI4WLIqIbM4eCWuWkANdB2FY2C9tYdVGqu4Uqu1o4RhKuhfoU8hVcZkVP5oPyeD6riVYgJpFYUxRDElwpC8jahxLIDyljYQHNhCl7IcDn7TZ0TIHU6G+MFz1hgJawFK+CkOBv7KxbsIDsxCV3oKTVhvaVk+aBV3A1cFi4TKypDmk+glAT9fpdfjOu7Z8kcNpQBK4olSRCkXqRYrYwgxt2YVIE4aAy/rvvyVmSJmaTtz8RJe67xEmTMkmt5pmsZhsaKVqudBrhAyMG9dBXrQFS2xI8X0+SDhtYg7wxo4ofXCHPnFBnkKcuGNpWcowwzWdgIh66ppXkCQ9ImWGPZuimD/qBeYla0zx+9XUxnx+bYJTiPznsSBeQEV1horSzxf5VpRIGVO0U3ewG9nc9xakZQhBbPG0b/MZYh6D9lIZux/G4eGLK22hwk7VBRmvFgxpI7r9gIetaqyzHESvsyGGh1iTK1Sah2lVQFskEchYJ6uijkh+qqjC5sWZx2GyrIKRU8BmkCW6IrHsWJMlOPpyWDHQLq/hkdQmkthkYzGOksrgTBuz40fCAJUyy0xnFCV8Mn+KWkcDvCW1rLUWiWDU/VkAVccaZXY1vLS4MY8rIDfeEMFr32PjutSPKD+CvmgWRoqZ8OCx4HNprFxUomjVQ37pwr+mLGVnlMrcUMiGDxvHAKuQ1stiiBpgCgO1/TIa9a7ybxz09YaMCEisCo0fLjhYA08vCvyGSlTQpUDroVOKoFtXGGm7FmAFICIjjr4U/nW+5nJC6EqtDniDYmiMAZYJSt7iOAdg5fiIBhhZEh9D1FsOI0pAAFHAxYVXSok5UJMhEt6pO8YYPsqeJXCIfiMtbyxsiiMCcvqFvMKT8dpUjKCwcwtrWk8JWeus1rbVOLL7BUBUM0wPKToTTyDEYfKcR3DIRJJNFzjhsCVVioiQHGcCMPMV15+kMqonkWYyWmuIAgpGSn8uGi/xCmI5+7VCA4hojQZDN2kwFvPYYCtsJMaXluhTvxthIpvEGzjkKQ58wpkVwFTiiKqIYovGmAbGhleapuHMEyy7QZ1cxII+ZjizCwoQTDxTmzmI8Wg3O1pOhvXLX2XYoohrmOQ5gvHQdOhFkOgRzhsSlaVSYpZZ0kME2OD7MeFfxbWypG7sU9CKSSRk7tkVZ9RYpNigoNpto4cESYpfBoKzsIqRRAiDJICHgjBg+jYxYPK4HDAk1uvo+sUSMCvcVDi6eAnOEg4asyJu26DoXfCvAbD+ag3kTxwneXv+tCDTXZUC1Rw2dTeVAlfMHlDUsUDq0hWKRQPashRDPzyrdaDhme6eVci5FyfRDrumpVoWeAToUVqI5dXYg+0BpUJmbUoxEpxhyLaJ94OOt+plXKSKeBNC5U2TK2UQQmQ4wHgFd2SwGyW62CaPFOPOA8qw6cYAyA4XcEDxxMHfwviRtxK1UlEoCqFijDE0TaNILNSyUY9+VRZ5eyZKvMMYfPdSUMV+ICuEy6EChydVbUUCPEGKT6ueh1PUcGTAMjTSFx7KbJaw2T7qPJ0bEEVcpaJrq7yHmMTKyz88G6OMIStU6TEg/p2g3QRTsVxsPBrQEPp+eicfvmu+Bw8x15b1QhDGE5+0Mf28isXVdLb4ZBQAFFGZTX37gkckiesKFpQmy7yxNOpMm1omaITM1c2WLC0eu2oYZ5qLRdab+PZHNhAFackuLKqEY0OqkGDYwyZkLs+LZls340HPe66SwZkBoQyFikUVrUf8Y6G+GzmRoOVeRxcXqAXNVYRpQgGJ9WW9d5+qzvFgfFL5U3HchGU8MDTTTLd0FxNaxPDGoL/IjKhFA0XTxWk0AzR0/vxmCAdfli37JXEzsJU73AU7wjiMqvkiBvDQT53uh4PLfL3/JRrmiHaOxOlokrB4K+Zd95Z1silTQptQsst/EWbRnMlxMVcLbf1PAaqwEG2TzxD1QSIGFTrAuv63XPCi/TKo0HaORTmOSqAj8R/XmC0ErM5eer9HBpmzcDSyMygZQaHOotfSCiJxsG1ZA2jac4+157D8kBhoXhcZZjYCCIy2eH60m487fk0g5ghCb4TG9x4HNoRR4Myw5YZIWbW0r6q6ilja7Q31lSFUfJ9es8RG3ky/bU4VU0PpkBt5ROLjdH3qoWsqOUMCwjDPQ6MB1EsoivmkRT1bCHxvPwZ9wfMm6S9NwevWqjEoJpYXtsIdYXtaK54VPgp+ZmIwcEqhRcwtm25clq2GAMRHJQXCK43hkMs/ItaVZev8mx89dcZEwe6xdGENzIciXgG6ilY6MHWXkQoUndKE6oPu9ZlaV7yw5HReoqIUVAylPB0lkcNVyHLNLC+zSRC1jUG+jySp/FsOtzwp+nlp5NrhDnB5A9mDkMCfsEQKWRUqOBTTLHbni1zdb07C+oRs5N1lMIw2C2g0q7TifAkRBphOATPHBeWM6VThkoZW29cdf9lvlG+JIkfEQ6PeS2C1VmNZFax+GnymT9IyfQXyGl38ZkaByQxItb7ufADRoAskwx8yf1bJO8ME6VRXFydXhI9jYce3lBVn4VLlCDwMQVSZQYHjxOz2tqAMB4479fG4f8H40Ah/a6bKfIAAAAldEVYdGRhdGU6Y3JlYXRlADIwMjMtMDktMzBUMDM6Mjg6MzcrMDA6MDAFZKF9AAAAJXRFWHRkYXRlOm1vZGlmeQAyMDIzLTA5LTMwVDAzOjI4OjM3KzAwOjAwdDkZwQAAAABJRU5ErkJggg==;" parent="1" vertex="1">
          <mxGeometry x="540" y="-30" width="40" height="40" as="geometry" />
        </mxCell>
        <mxCell id="75Ksel9VNYws9BzMBplG-6" value="" style="edgeStyle=orthogonalEdgeStyle;rounded=0;orthogonalLoop=1;jettySize=auto;html=1;endArrow=none;endFill=0;startArrow=classic;startFill=1;strokeWidth=2;" edge="1" parent="1" source="L_KWcjH4mNL9vExOsYk5-9" target="L_KWcjH4mNL9vExOsYk5-20">
          <mxGeometry relative="1" as="geometry" />
        </mxCell>
        <mxCell id="L_KWcjH4mNL9vExOsYk5-10" value="Generate Embeddings" style="rounded=1;whiteSpace=wrap;html=1;fillColor=none;" parent="1" vertex="1">
          <mxGeometry x="560" y="53" width="90" height="50" as="geometry" />
        </mxCell>
        <mxCell id="L_KWcjH4mNL9vExOsYk5-11" value="Titan embeddings model" style="text;html=1;strokeColor=none;fillColor=none;align=center;verticalAlign=middle;whiteSpace=wrap;rounded=0;" parent="1" vertex="1">
          <mxGeometry x="660" y="90" width="100" height="50" as="geometry" />
        </mxCell>
        <mxCell id="L_KWcjH4mNL9vExOsYk5-12" value="Store &amp;amp; Index Embeddings" style="rounded=1;whiteSpace=wrap;html=1;fillColor=none;" parent="1" vertex="1">
          <mxGeometry x="560" y="163" width="90" height="50" as="geometry" />
        </mxCell>
        <mxCell id="L_KWcjH4mNL9vExOsYk5-13" value="" style="shape=image;aspect=fixed;image=data:image/jpeg,/9j/4AAQSkZJRgABAQAAAQABAAD/2wCEAAkGBwgHBgkIBwgKCgkLDRYPDQwMDRsUFRAWIB0iIiAdHx8kKDQsJCYxJx8fLT0tMTU3Ojo6Iys/RD84QzQ5OjcBCgoKDQwNGg8PGjclHyU3Nzc3Nzc3Nzc3Nzc3Nzc3Nzc3Nzc3Nzc3Nzc3Nzc3Nzc3Nzc3Nzc3Nzc3Nzc3Nzc3N//AABEIAJQAlAMBEQACEQEDEQH/xAAbAAADAAMBAQAAAAAAAAAAAAABAgYEBQcDAP/EAFAQAAEDAwEDCAMKCQcNAAAAAAEAAgMEBREGEiExBxMiQVFhcrEzcXMjMjeBkaGywsTRFBUnUlWSk8HSFhcmNkNisyQ0NUJTVFZjlKLD4eL/xAAaAQEAAwEBAQAAAAAAAAAAAAAAAQMFAgQG/8QAOhEAAgECAggCBwcDBQAAAAAAAAECAxEEMQUSEyEyQVHwImEVNUJxgbHBFDRSkaHC8SXR4SMkM0NT/9oADAMBAAIRAxEAPwDTr7I9YQgHygCEAwKAYFSAhCRsoAgoB8oA5QBBUgYFCRgUAwQDAoBgVJNxsoAoCfXBWEISMCgHQHwQDBSBgUAcoSMEAwKAYIAhAMCpAQUJHBQBQDAoBgpJGygJ5cFYQgGCEjAoBgUAQgGygGypAcoSMN+4b0e7MDgEf6rvkS6Awa7813yJdA+CAKkDAoBgUJGQDAoBsqSbk9lcFY2UAQgGCEjAoBgUAcoBsqQFAX3JoGNpbpOY2ufGG4JG/gThYulruUEnYqqchG8ojy0H8Uw7x/tf/ld+iV+N9/EbLzM6y60fc7rTUTrbFGJ3Fu2JM4wCeGO5UYjR2ypSqKeXfUiVOyvcmdaNbHqivaxrWtBYcNGOMbStLR9/s0L+fzZZT4TShew7GCkBBQDAoSMgDlAT4K5ucDZQDZQBBQDAoSMCgGyOvcgPtodoUgbaHaoBf8mv+jrx4R9Fyx9KcdPvoU1c0QcZ6DfUFtPNl5vNG/1pt3tD9By8mO+6z75o4nws3F1trLvyh1NFLI6Nj9kuLeOBE0ryUa0qGAjOK7uzmMtWnczJtNaXp5XQz3wxysOHMfPGCD6sKqGOxc0nGnf4MjXl0F/k/pTqv4/6iP7l39sxq/6v0Y159DV6tsNPZHUrqWaSSOdpPTxkYx2etejA4ueI1tdWsdwm5ZmgBWgWDZQDZQE9lcFYwKEjAqQMEAQUAwKEo6RYZbdadA091qrdFUvMjg/LGlzsylo3nsGFh14VKuNdKMrfxcod5SsY/wDLex/8Os/Vj+5W+jq//p8ydm+pudN3Sz6kkqoI7LDDzUYc4ujYcg5HUO5eXFUa2GSbne/vIlFx5mt5OgG0V8A4DcPkcvRpJ+Kl30JqZo5/Geg31BbTzLjeaMP9Kbb7R30HLyY77rPvmjmfCyoh+FWbw/8Ahas9+rV37TK3/wAZL6r/AKy3L237gtLBfd4e4thw2NX1L1I6LnlH3Q2rwO8mrG0TxVCmlzIkFbJcNlANlCSfXBWEFAMPUjdiSpi0FqGSNr/waFocM4dMAQvE9JYdc/0ONoj0GgNQ/wC7wftwo9JYfq/yG0iYtz0jerVRvrKunjEEeNsslDiM7uC7p46hVkoxe8mM02UEp/JFB7b7QV5I+s37v2nHtkLla9y4z7Xdq+0ve+3VJgfKA1+GNdtAcB0ge3qVNahSrJbRXsRJJ5mZSaavlf7pDb5y13S2pMMB/Wwq54zD09zkt3xIcomVJovUETNo0G33MlYT5rlaRwz9r9AqkTEon1WnrxTVNVRyNkhcSIpMs2txHHB7VZU1MTScIyzDtJG/0zcTd9fCvdEITMxx5sO2sYj2eOB2LyYujscDs73t/c4krQsabVh/pNcvbfuC9eC+7w9xZDhRqs7l6kdF3yk+htXgd5NWNorOoU0eZELYLgqQNlAaAFcHAQgHiPTb4goeQOm8pV1uFsktgt9ZNTiSJ5eI3Y2sbOPNYujaFKprucblVNJ5kWNU379LVX660/smH/AizUj0LCKsqq/kur6itnfPMXOG285OA9uFmulCGkIqKt/BXa0zHlP5IIPbfaHKxesn7v2k+2R9soKm6VsdHRx7crz8QHae4LSrVoUouc8i1tIvtixaGhYZR+HXctz3j+FvzrI/3GPlZbod/mVeKZisvOsr/wC6W2A00DuDmMa0frP4/ErHQwVDdN3fv+iFoLM9HU+vqQc4J3zAcWh8b8/EQoU9HT3W+ZP+mxqbWDZnOturLc0NO5zubIx3lp8wono+y2mGnfyIcOcTzuFpk0vVx36xbFVR7J6LyXCMOGM5HEd/yrqjXWKg8PW3Mm6l4WSVwrX3CunrJmsa+Z204N4D1LWpU1SpqCyRalZWPDKsJLvlK9DavA7yasbRWdQpo8yIBWwXBygCgJ8FcnA+UA8fpG+sKHkDoPK56W0eyk82rK0VlP4fUrpczn4O5axadCtfwTV3jd9NqyKvrGPfJlXtko6/VrrAyyHmvwNrtodDpZ29vj6ytD7LDbbb2u0WaqvcsrEItJaOfeZYw6urMc01w34PvR6sdIrMrt4zFbOPCiuXilYx9MWinfSzao1PJzkZJkYJN/OH84jrydwH/pd4vESUlhqG4mUvZRiXfXtzq5Cy3EUVMPebIBeR3ngPiV1DRlOO+pvZKgka+m1bfqeQPFylkGd7ZQHA/KFfLAYaStq2OtSLKu3XK3a2pzb7rCyC4NaTFIzr7S0+YWbUoVcC9pTd4lbThkYuk6ua0XefTN22XQSEsYCOiCRnd3OHzqzG041qSxVLNZ9+RMldayJvUtrNnvE9Jv5sHaiJ62Hh93xLRwlfbUlJ9s7jK6Nb1L1I7LzlL9DavA7yasbRXFUKaXMhwVsFw2UAUBPZXBwOCpA8Z6bPEFDyB0Lld9LaPZSfVWVorKffUrp8znwO5axYdDtZ/JJXn++76bVkVfWMe+RU+Mg4WGaaOFp3yODB8ZwtectVN+Rb1OgcpxLq6z2mHox7O4eJwYPIrH0b4YTrd9Sun1F5T6kUrbbZ6foQRRCQtHDd0W+RTRUNZyqvqIb95B5Wwi4YFSD2pKmWjqoqqndiWJwe094XM4KpFxfMhq5c8o4AltF4pui97M5692y5vmVkaLd1OkyunzQOU6Nsv4rrmjBljc0/M4eZXWinqucBSeZD53LYRaXvKZ6G0+B/1Vj6KzmU0syGC2C8YFAHKAn1wcBygPSI9NniCPIPI6HyvemtHspPqrK0VlP4fUqhzOfZWsWnQ7X8Edf7R302rIqesY98mVPjIKCUwzRzAZMb2vx6jla0ldWLWdA5T8xXGz3WIbUezuPe1wePMrH0Y06c6T75FcOaF5U6bnnW27wnagli5vaHD85vzFy60VLV16Us8/yJpu24gwVsXLBgUJPamgkq6iOmgaXSyuDGDtJXM5qEXJ8iHuLnlJIzZ7RT4c9jeHXv2Wt+XBWRotW2lV95ldPJs+5TpGxC00IOTFE5x+Zo8iutFXbqT6/yKa5kPnctgtL3lN9BafA/yasbRXFMppZshcrZLxgUAcoDQLgrCChI8fv2eII8iHkdE5X/AEtn9lJ9VZWisp99TiHM57laxYdEtXwRV/jf9NqyKnrGPfIqfGRf4puAtYujqVwoCcCfabgna2eGc8d3BaSr09rsr+ItUlexe2Us1hot1pe8C4UOObJ68e9Pqx0SsmrfB4ra5plb8LuY2lbvSz0MmldTNEeyTHE6TdsH80nqIPArvFUJRksTQ39Q4+0jXXrQd3oJHOoozW0+ei6PG2B3t+5eihpKjUXj3P8AQ6VRPM11Lpi+1EmxHa6kHtkbsAfGcK+WMoRV3L8jrXiixtVoodF0put6mZJXFpEMTN+D2N7T39SzK1epjJbKkvCV3cnZGLpOmn1Bfp9R3PDaeF20zPvS4DAA7mj51Zi6kcPRWGp5vv8AUmXhVkePKNa68XE3RxE1C9rWsez+yGOB9Zyc9/y2aLr09TZZMmm1kRq1iwvuU70Fo8D/ACasbRXFMppZshVslwQUAUJNBlcFYyAeM+6M8QUPInkdF5YD7rZ/ZSfVWXorKfw+pVDmc7BWsW8zotq+CGv9o/8AxGrIqesI98ip8YJfgag9t9pcpS/qT937SVxkbaLpVWivjraJ+zIw8DwcOsHuWjVowrR1J/wdtXOgSRWLX8AkjkFFeGsw5p3k92N223vG9ZCdfASs1eBXviYkdDrnT+IaJzqqmbuaGlsrcep3SHxK11MBiN8lZk3gz0ddeUCrHNxUDoXHdtNp2t+dxwuVR0fDe5X+LFoDU2jZ5JHXPWFxDWN3vaZck+t3V6gk8fGK2eGgNe26JstYR1NXpiAabMclr2PdI4Bvczqx3ccjj86owbhDEPb8Xn1IhbW3k3pLVpt7BbroDPbXjZBcMmIHu6293UvfjMDtP9Slukdyjfej01VpMUcRuVmPPW17dohh2uaB689bfJRhMdry2dXdL5/5EZ8mYGpdSuv7KRrqMU/4OCARNt7Wcf3Rjgr8JhFh3LxXv5W+p1GGqaQFe06GBQBygJ4FcHA4KAeP0jPEEeQOi8sPpbP7KT6qydF5T+H1K4cznYO5axajo1q+CC4e0f8A4jVk1PWEe+RU+MEx/IxAf+f9pK6XrJ+79pK4yAWqWG305YK7UE87Le+FklOGvJleW8ScYwDv3Lz4jEQoJa99/QhySW82lq1Dq2NsjaGepq4oOi8GLnQ3HacZ6u1UVcNhHZzVr+ZDUQy6/wBQys2WVMUeR75kLc/PlStGYZPJjURpK+5VtyeJK+rlqHDhzjsgeocAvVSoU6e6CsdJJZGz0vqWqsFRlmZaSQ+6wZ4947D5qjF4SNdb90uolG5SX/TdJfKM3vTJDy/pS07d20evA6ndo614cNi54eexr5dThSa3SNNpTVE9im/BakOloHOxJE7jGesj94XqxeCjXWtHi+ZMoqW8yNfWWntdxhqKJoZT1bS7YHBrgd+O7eFGjcRKrBxnmhTdyXytEsGygCpBPrg4GBQDxH3RniCh5A6NyxnEtn9lJ9VZWisp/D6ldM51tDHEfKtYtudHtJB5H68jf7o/h7RqyKnrGPfIqfGLKR/MtT+3+0ldJ/1J+79pK4yABHaFrFh0Hke/z+6b/wCxj83LJ0vwQ97+hXUyRl8mp/yPUPi/c5V6R4qffQifI5tGQGN353BbjvcuN7ouOKfVVtimY2SN0h2mPGQeg7iF5Ma9XDzfP/JzPI99cwxU+rbhFBGyONpj2WMaAB7mw8FGAd8NBvN3+YhlcxtPX6ssVZz9K7ajd6WEnovH3966xOGhXhaWfUmUVIs5a/RN1mbdKwOhqdzpInNcNojtA3O9fWszZ4+ktnDeupXaS3E1q/UAv1xZJCx0dLA3Yia7id+8nszu+RaGBwuwh4s2dwjY0a9h2FANlAT65OA5QDNcQQRxB3IDpMfKmDFGKiyRyPa0Au57dnuy1Y/oqzbUzjZ+Y386MP6Bj/aj+FT6Ll+Pv8yNn5mBqDlBN3s09titjKZs+A5/OZwMg7gAOxWUNHbKoqjlexKhbeLpnXv4lssNsltrKhkTnFrucxnacXbxg9ZXWI0ftqrqa1rhwuzafznw/oKP9qP4VT6Ll+MbPzPjyntDXczZmMeRgHnd3x4Cj0U3nMbM0Gk9WSaefV7VI2pZVEOcNrZwRn17t69eLwX2hRu7WOpRuUI5S4f0FH+1H8K8vot/j7/M52fmM3lMiBBbZGAjrEo3f9qeim/bGzZG3y6OvN3qbhJG2J0xb0GnOMNDRv8AUAtLD0djSVNPL+5ZFWVjCCvJCNyAYFCRsoBgUAUBPArgrGQDAqSRgUAwKAYIAoSHKAcFSBgUAQgCCguMChIwKkDIAgoBkJGBQDZQE6uCsYFAMgGBUkjAoBgUAyAOUJCCgGBUgcFAEIAgoBgUJGBUgZAEFANlCQ5QE+FwVhCAcIBgpJCOCAYIB0AUJCEAwUgcIAhAEIBghIwUgYIAoBkCChJ//9k=;" parent="1" vertex="1">
          <mxGeometry x="800" y="168" width="40" height="40" as="geometry" />
        </mxCell>
        <mxCell id="L_KWcjH4mNL9vExOsYk5-14" value="OpenSearch Vector DB" style="text;html=1;strokeColor=none;fillColor=none;align=center;verticalAlign=middle;whiteSpace=wrap;rounded=0;" parent="1" vertex="1">
          <mxGeometry x="770" y="204" width="100" height="43" as="geometry" />
        </mxCell>
        <mxCell id="L_KWcjH4mNL9vExOsYk5-15" value="" style="shape=image;aspect=fixed;image=data:image/png,iVBORw0KGgoAAAANSUhEUgAAAMQAAADECAYAAADApo5rAAAABGdBTUEAALGPC/xhBQAAACBjSFJNAAB6JgAAgIQAAPoAAACA6AAAdTAAAOpgAAA6mAAAF3CculE8AAAABmJLR0QA/wD/AP+gvaeTAAAACXBIWXMAAA7DAAAOwwHHb6hkAABb00lEQVR42t29d7xdR3ku/Kx9io66LNmyVa1iWZYl23Lv3caAbbAhQAjBwIUEJ9w0IOUj5ZqbLxBy8yW5KaRgU1KBYCAxuOJu3ItkybK61WVZVu/SOXu+P/Zea73lmVlrHyt1fj/p7Jk1a+bt7ztlzWSn/fHnQpZlkMnm0c4XpVnrv0z8NlXTZVn+K4P/k0XzZSu6jMGb6RdKeA0ineFg4a+Jg6Wf7sTjYOG3ZRR+1bvCKQMQBA6ZJ05tHjC+MR54njAeeHjZc08ugoMDSZbVkalWJw3USSG0SWqK8//E8xBcDbAX49VCRd63G4KpEFi/ASGFg3wWAduClEQ1+N/qnVQfIQ5rYO+aB0E9INWDJFGcRywf2pTsOAUjg7T9UHJJ4JPBs9ThEHiztrSgSOA1G63GvYA5IZPoCCXQgiGUQryviW8lJRQIqXaU0Bn4IjA7HJwkZiYv4BH5AP88qHwQDGbGQlMkGKXOy4KikWFSMDi16Z2pRoIUIa0tDEcDr6V3CWYwxYHgEJRUWpnJ86pnk8/fT7KjwC/UU2KJg8xLWK0MhbK/RglboEhJ4IO1XFEGWMsbqEaHKiXwskotL4W3aMLgQDyFZ0gwjs8yBCVOSfjlU+bpCD9Tih6kePh3RSPEm3j4YXmiDJOSrhKHOPlLGhO58TxIEcIaJoaDlSutTRaHoNrm9A0INUMmT0dDFcsAAQ5xdZKcGVh7HgEuyKHSU1SGMjQGcegR+BkxIv0VOAXOkJAUD6cUxN0gJq5O0QOoYttXrdcvCrQVENaXox/HgfpRjmdUhlgZg8B4xBC40AFohBBS8lAg4kXRWCVUMC1i14JvSAkQsxIJLfPEJ3ltyeEFysDrFD3qKYRFCpLNBN6EIrGQ1fEvMCsb4jyhKcR/OatqLIkNb1jT8oEdZAfTgDWskWY8DyI4Oh4bT2FbbDfYiDVmGeStUvAzIRGlqLSyqkvvqiloVbx27xELmrJaVeFN0jMQFlKrWKurSIcGKyagVMhKgQpG8uLhE0OVmUgLWSJ00j15Qql82nAqnAz8cb54pQ6hHTIVoUciPGm97y2vp2E0QheD7RANPbiYRJAzyOiBfPBu2sJrGSkGeZZBxRiAzqhxz5GE17xQDlIVgdOeg1loGX9bHIKuE+VRjC8CnGCe5/BVGhILGzO28HKl0BMtBc9QgxdRfAm/wCED0EhGOpF43DIgRBigNdCbVGallKVSik7tHKGlV1pT4HBySuxmqKShsMDmj7WV4nwySmvpbXAyos1xsorOyoylVWoYgqlDSCR5GAh8CpwaSkzgZTJk6R0kfFIxkm7d+jNvXIOo06AIxYif5xkDDDh+NgrxfAUy8DwzDDFiWmdKNjVQTYGZrONcQLK4oBQVMu3tnKKTvkMKhwQyNIRlxipFGaVpwXmLOoapLrxpHEqlNyA5Y+YMlwyZUq6Pr0uwvBUAb2lD+bMELOi8pq9nOx+UphkQi19lRllk4bq1EIt41uBg6SA9R6QzBECvLcif1ptwCYiRX3g2IgxBdUQV1VDAWLyg+GxRy2w5QYIrScRQGUZombWeTTyTcmXFxmoMkivVFSoamOu2Gud+EoQjCBm2VDEcgFuOr/RMbl0lEByEmgimMEvGVoCVLXImSdLM23xHciJAMQ+ugOKMaD2i661CmgxD2dqLxsHySLbP4XUKZUJWv8gqeqshQ7pxLo/5/+XC3CBCj+I9y6SYlnty+faslhMBYvkCXsMAN3AlNGKFyZCPFssQx+BA3lNKIFB14dNgeADLdFPLKoXFIatoK7D25UNN847XiiIpvfWGtWeVRD+3xjsAaPhBXrWbc6unlSvEot+S80WehUsKIdKQEiqnBHFah4hVrTN7o7029xyUCYzyqrbrzAgt8wKe3gG0UxdulACWVl96hcQkFKNoAa+LQAz9HA6WB6abQHBIewrhj6s8h/pT9tyoAp5pOEsxpTA+hxPTlbmGKhACfUfB1qmlDa5Ew1vtQNQ7icVR7rk8geOwCtC07oVaFBfoktYjhsr2V8FHZsnrzgByilJCppuLRhtlhQZDkHmKOhsAY4pjrWjUdVe48thAW2lMgQPxFDU8g+82sXbBPIWB1zYe3Pseh2DyRS9s4qBSqPi8v/dsnCd1La2lYUFv573rwGt5Yj2F9wzMexfNm7Uj5RUMzxvCcXo8zaR6HUvL5pwtwbyQRVwfM6kSoYQSFztRK4TKpaopWaoUgilJpYi8r8ITo/JUqCyJWfihJTvp/Yq83emrYY4ZJhf2Bvqa6MrY9+Dlhm1qtHzSoMYV3Xk7q+hChhreh1pnVMOdmxRSVipK8PpWCixvhCrA0aU+vAAqrZQFI9GRFhj6okbBKrpTAgIvDTdsvkopPBUKcDrCIZg+iRGqmuwAgd/JUaBvBdYKqcrGeQ2NhtWwCJBkm0RlslYKGemGr0dr4LmVKsEOKd4K6pqyqpmPoGxogs58XSVTDVtXbeGJUSEBX4TmHgfdDftoR0cZwuuaBRPq/fIyGaYYgKPiRRrks5gxoE1p0I9jSix50mBte60noYfDxSuJ3+Blwxvj9qSbI6aL6V3UiylieFfOVC8288Fob1vSfXorqq2sQ43T1mbYZIfypsERqWrgyratxKgaG9cxZJiuuJkFKzMW3pTRkWSxNLN8ScU6xjA1Sh4Si2TmxKlVTa6mxkjlTZFHiFsp1YYVcDbvlwg1WNOVK/KUHnSTt0GX4+BWuCMaWBpeYbFj1K302N6UBkS8s3IX7HsKOByo0ivWSAHNKA/UHqtK781kqOSLUpIAL1cCtkZswwf1AjnZvAFUyCjGtRFK8h2svYiWMytLZE15AStQNn5NKUUwDIoywHzeSYWsfN02xwZ5FkFrqAoxZWMg663t6i/1bG0lU4puJwskCQRshC8F1NazKRzyXatpJXafpJJ1Cydnmh2uzI6JQpCfkFpMgpypYVyVtAyOAQQj14BWsLhb0xotXbXxNh4wTlwCiZvN6XRF2AoZrRgzAxb3YMieEVyIhFZ5uxB/PW8jQTbn6eK/tOVlQspx4DBF81WD6rTLph03ZBlDy1pa1ahoN6tyffCWN3+zbLJQL0fFCvth6EMwIau7LtxzH3V5hnlXzj78926ZWvxgG/eeIlc0iQOxD86fljzRZc7K0kFqAgdqmCI0V8UBtFiVGW8Sgv/SzuIZnVIOxXNBQd9x0WXrQbkwJx4GUZk2AFOnAIGLbVIpmOtzdLduuY1k8AyJLbxYnPScuxCWThcgAyJCpRkk0FXI0phcE8i2qN83hsl/6EU5Ytqzm+fiOHhgDPMcMyUPtCENpO2gmUjpz/p3IaAFQ5oMYQwt3xp0nt+ywXtj0qFgiEn20Cq3cBRp3SNU8C+SIubH1lc7PEO0mVTywsasFGd6HIkIvRVaPlBJQNLuqs5erVSfmlpUSohhijduW9Qv0Jig1q4IzgP9KL1O0YioG+2LeQ470C4ar1AS9UoOfLBciCuFpVXVjgANf9yqMpJRHILpJAhaMHhtjENwUO8oEI1VNTzICBEqZ5pkeCrKtIGPCbzs33g/CSURJS5DuumyT+MrK3dFlGXSE1DDHck3QCprHtQwl45pnvHc9TGrlVAKQ+ySglwbHUNCBTZu6sc+rlAUHREIK6XDM79FImL7raJXeAqXqYI/4gVYI9GoKR2neENK4CegxsvIOkr1e9xbs7z6HqJyeb4wrpbzHOl6H50nyqIG1vffIlasZW160lZKWDyEaktbhVUNq6QoSJCXEFFPoTDUhqn6U04ClFVq5XnKd2KqHFuskzS3sKoWE96bkZoa2lCH8Na4FnuZAtTmAqk1wRBbkcC46Rwph2SKISS+dYM8Q3b/SMMrywJhUOFGg28PcAxgc/r2Odv7xISKWaU4DsIQ6cY1MZxiM9eYwCHkOBi+KBxaObvWUpCLCFmBg2pbG9ekDAXTVcE+ruhO/chkR3TrTbuThgOU+dxEMX1OAEvlc1BNgWMQHRgARqC4pdX0k2u83NsQ6qZxIDLIGw38edSqRtpXNYPLIVo3gQPhgYchMU5KpWB5QNCOevi8ZBDeOhgZlrpGDFUjhpcLn2BkQjVO/Czbt5JiRsT1KSJkFhmBUBCVYuFHMLBa7+fcuREyB161t3NnV8EIgaQg4YEltvMciuxB9GHx4YYIFF5ler23a2/MlDhoq55QSUlf9UQDW1JF4GOa9pM55Yq8Lq6a1cx7C+Vu17TuVZlP70CoEAxmNViGHybUcO/WsVhR6Yy8K4q6Gg1MGzMOl06dhVOOPQFDe3prjjHq7JKV/TFPl4Qy4h8IfevAG6qKOQ+S+mCQD/qHjwZgt5GINipmBEHOlHTkpd4Z6EYo38/7ybJQNFwuFoYi33rUjieDvImijWCx7tBuXP0JrXeKPoNep2grgC1rvR+QhQzIcnJm5ZRjBgVfC4csilPrzowSMAt2iVarzoljxuFXLrgW502ejq6sNfTavHcnfrxuJR5fuwILt6zH4YGBAqdW+5mCv/jZfh7afWdtehahXImOkpECh5C14RM8yEQ3JaqCZrKtkr65oZIXu5Q4ZKI9AVSRb1NHyIQSpgwIbUJmURnNlULilKEUkxJnuRkiE6vYIQR9iU7Rt1gDy6MDkhfijezkL34mFLC6m4E0V9TNOvYWHXmbjMtrith8K+sp9pZuBqpxk1H8ZqMy09fdjZtOOQufOPtSjBoylLJ0IDTx5r69eHz9Cjy6ZhleffN17Dt8yOOQKWgVUIPCIcKD2nypRXMDc+QmI8GOKLz0tqMkDxh93qIcRWQmL8lO/uJngsejihk1GJJlyjJmDtN6DKmDjGZIcYFUQgHqMWTK6HH4tUvejnMnTUcjbuJUCiFgw54deHbDa3hozTK8vGUDBkJTImRAZwphBawOvBn8nxqGqQZfBqfUHocs97cpnDpV6jpy5Qypv7Isf0crhOdCrbu9LIkZk5gABAY8RajKSnGGUKvrK+r74wD0dnXhvfPOwc+efTlG9A7BW0lv7NuDJ9atwMNrl+HVrZux/8hhAp8RnlBmOlNiK7ieidRLBPiyFD8sDyhP4vRmODCcxFNvbBPw1fMSggNtmmdZhuzkL3xajGA8AmkrZZnGGJJ5IJy8V2h5xCqx8IkRrQ68uVJMP+ZYfObi6zryCnXSQLOJLft24+mNq/Hga0uxfNuWlnI4UPxFkEZfK3HwZCeW1ypJikdWgGJ8oYYoq4BfAxuF15URxUb9fAwvqhCVbg2o7Sk4wY8CQoxJtVw3gx/oanThA6edi4+ffRlGR8YKRysFAJv27MTTG1bjkbXLseiNDTgyMOAFyvDF4dRhCOhvQ63ggVOMCtiKJp32WdBrwDsIGTJEGcy4tFSIKPHjCHUWPhlg6zCk1qC6jpUSZYQhJ409Hp+++G04d9J0bkn+DVMzNLHtwD48tnYFHl23HEvffB37jhyu8H4KkfSVwVaA3J8qpYDiWyr+rkXvCA9S+ZiSMPgGFVIJJc5mfeFXggWeCZjGIx4LMgbFGVIjnBrUrEFCqUW+p6sLPzH3HHzi7MswZugw/EenZgjYtGcnntm4Bo+sXYrFWzcpzyHQ64zmlqwRAcqyDL2NLozoHYLhPUPQ32xi1+EDODwwYCYGKkLYlGcmfOlsNq0sszhafDR4CaUQ8tdWiDyLpADFGFLpulPAx9xeJwM9yuCQxOmkscfjs5e8HedOno5OUggBj61djh+vXYmLpp6EsyeeiJFD+jpqo27auGcnvrbgx7hv9ZL2AlTcEFUOSiM8AYBj+obh4skzcenkk3DKuONVyNjfbGLdnu1Y+MYGPLR2OZZu34Jmex3DsIiO+1SdxBRzGqcS5trRRkWewQsA2azfaytEBFgWoxePO9Fy+ycxv+yAjZSxvGaAwSED+rp7cfOpZ+HW867sWJDf3L8Xf/3co7h7xUIcGWii0cgwbuhwnDNpOq6ePgennzAZo/uGeuv5FtLhgX586cn7cN/qVySmNmoCEyptV6whAoZ29+KdJ83DB089B+OGjqiE+vDAAF7csh5fXfQUVu3c6nlgvbMoc7AZHsWUoM7skzJ/LhpKh4TW25UKwV6wyASkEazhOZJa7tYukFYU67oTIV8G4MQx4/Drl1+P8yfP6GisEAA8s34V/uCJe7F+9/ZoPH7c8JE4a8KJuHrGqThv0nQM7emp3Ucqbdy9Ax/6/h3obzYTMXlV/K0zxw0dgd+48DqcM+HEjuHZd+Qw/nLB47j3tSV+pwFihslOM1sPXicCqQq5HcJ+jFExOZOd9Hu/HOpMnXlgLUAR4G1Z5p5WIFTh6todRIkPoK+nB++dew5+7oKrMbynF52m7736In7/8bvRbDaT8Ob5LMswckgfLpoyE1fPmIPTjp+MY/re2hjlfd/5K2zeu9vRW9NX4C7rtOUvp9uEkaPxB1fejKmjxg4anoHQxDcWP4N/fPV5v1XF8qiQfy5XGof42otQoaii11IKT7QC5m4XCLY3pxSd0+flT8DJa7lnqf1U7NLx+25cB7atgI5CkHz3ZZv40445Fv/PFTfgnLewrrB13x4MNJslFHqLlsuHELD70AHcu3Ix7lv1Co4bNhLnTDwRV047BWdNnIrhvX0dB1VDuq23URuWFAkdbcWGxpG9ffiti97xlpQBALqyBj4893xs2b8HD65dBvblQQs63X9UmGyZIW6wxLa/1H4t3W6x3yrTT5l36wbMRi7Tnt6M1kaRAJtvPMs3c7nNckWeKIXiW3szGgQMbgNg0BoeQrvJsqyn0YX3n3Yubj3/qqMz6I1uNrMb7IQgtGF/Y99u3LNiEe5ZuRjH9A3DBVNm4rITZ+GcCdPqw5ZvRhMCliketesJPmREgD56+oWYd9zEt04PAD2NBj41/1IseXMzNu3dpTdlajIpGgowC0mVGxpDW/qzmMURDZXth2LTY9aWCUmk1iZHkY98DtwtclqoAhCYWuW4ml2aQeUBqyjaU1gc1fZSJ2Q5sG6Hpt0lm7W8yfSxx+FzV9yIsydNO6qrzZ6CoIqd01MzpEWaHQf3454Vi3DfysUY0zcM50+ejitOnI3Lp82u2R9nRLnzVzw2O39njD4W75p1xlElwaghQ/HhuefjD555APknq1nSWNmdygSHdo1iN7AzvhpR6ynsBuw8Y8nXAi+fU2oVusOO3aFP7gMXo1npDfD0oxf7kY7oTDcL9rKoYz7I6coa+ND8C/G1n/gEzp18dLdeqL37Bc7Bwx9Uzmy7L583Q8D2A/tw74pX8Os/urNO75U8CPyNIt00+wz0dnUdRZq00sWTZmDSyNFlz5GvCSXZPLztsrgowctIyAXKi1KEDlVf/nTT7xHcOFZE8to/+zos1ss9RbDexsaH7fAMGdXoEmENcwgBM8eNx29d+W6cPXlaR8xshoDDA/3o607MCAlKq5DQ0KxFERLPSk/X5l5W4JhmkGWl5IEOzgSoxKqOGjIEF0+eWdED8Pj6FfjWqy9gxfY3MKK3D5dPnYVb5p2fnBQY3tOLiybOwLeXvajaUjJET+HjI0QdbZTRRx7x5E3p9uGiiyhPlMDlRS2ZauSZqAzkGfoppD39zud9q3mMa8ojWs0OI7Zpxtjx+PJNH+lYGbbv34vfffhf8fT61R29VwEyfxhIA4PoNHrsindHKk0edQyOHTYy2foPVy7C7/74HryydRMODwxg+4F9+N7yBfjNx/4Vuw4dSL47f/xkA1QcVhpUmAcVsQI9tZETxucD4oaoPIbGnUlkAHFWWnfgeGERJP1zVD0y9hSGAt52/tYLrsKEkWPQSXp49av46Hdux/eXvIAjA/2V9dlBBjofjNxbV+4Dmo6OuCkaykyeMcKf+zR99LjkzNbuQwdx+4If43BBixK2JW9uxl0rFyXBmz5mnD8yJhC5AjsLN3JwAcPR8MDSu+RBMMXk2M8i5MplNOgxBDuc2ALPT76QH8mLvEEwdrxKgYDIe89gY/ayziXTZqFu2rpvDz7/4Pfxq/d8G+t3ba9pqNsQWatUhrC6zOCkyMB420myAqSp42L0/IiYqnWQ5du3YMfBfQT+1q9nNq1Jvj+mvd2DKTq7L86SQZFCRCQuAiGelx7GYPKiBd5nO3Xz2M6+wMb/fvZJ59vxH/JQ0EWVZWX5jou/gfzbXcDHgwEBI3qrpy5DCHh87XL84WP3YN3ObXqaucNkZzqK+DaKVmjj4KP+OiEhZYqetInQt6xSNcHQ32zqFwxP+5sDyfcbWSP5XI1VrTwIHKykKRnK67jvtIOYZi5fVVOyeqEIcvGu1X6rrLvImEFqCXwo5obVB9tZKQwSQQ28pW+7juwukDpijtnymiloVXpz3x58+ekH8b1XXjCjk3ptFFYqNpng5vky8Sc4HKSi1030NBLXbXzyY9ehg8n2Z40dj2E9veVHSyETEVrA6cdNSr6/+9BBpUh2OlNQRhE1OMPEcEjRKZD2Sx64dQlpSdRUf+tJVK35XQ4eDuaANIh2DMHzOvyoYTJrHJOZp1+751u4c/HzaNqBTqirEtZ1w7tujS2sq7a1bXv1YCAOn56PC/MDWLtrW7LtsUOH4QNzzhGepHx54ojRuHn2/OT7a3en2ydE81jZ4VDxI3LquI3gk+GT7dUQqN1LcVBZnbsR+GHF8sx90xVTAjOmsMRX8V+BkwvWO5KlnQf3i7YT8W0ySRzKMQUB3DFOPY+8UxuEyGyf4glZO1qzcxt25HQgKUOGn553Pn72zEsxbuhwAEBXluHcE07EF6+4CScMH5UE7eU3NlI+sbO4qo/mF3IlcCgeiTqGOLoO44sAJ5jnABlDuHWJzDu0nIBFq3bvE/KYuf0T0OGGDLHYEMaMQ0rXR4LbUMPGB9+2dt+h1vuB9O/iWRkCZiLfxifLaVCAMhgcDNFsCNuuU6wQh5ZReG7TGrxtxqnRLrobDXzw1HPxntlnYvuBfRja3YtRQ/oqxx8HB/rxxMZVHie5HccGRnZMYcMnWyZCwILmBQ8gDkvgchUKvre3cMDA14a3dbZrSiCYRltL2+6AhU91uKxmnpwZNfbWuNU6C1vUK4Q6bybQCXUqiTJjpTQ5O4ydELO0vp0g6n9v2QIMyMFzJA3p6saEEaMxpm9ordX+l15fh9U73vR8sdFF8BLig5Y4DkiLqXuDhVSRTNGIONu1Anh35mc9V22oVKAcD59Ucw74cttHZ0JE76eoLYgShzKeVdPMAUaxZbTg2d7JGCh/p84CqlIwE38v2rIBD65Z2hHdqtKBI0fw1ZefRDP/xNTpKA8gYZ6V9DV1xXpYMBXL8KnEkwl9oA1D8SCnmR9UK1pqgN3MDuWpPQae6b0VEy1AFGYFfISgnaaQK3qtqnxsYJSWK7Eg1lvFwem0P5xY8UVYnwDgL194FGt21RgA10jNEPD1RU9h5Y6tYGJLwa86IDqvQxb0WBdyF4ZGV2iLEUi2dpT/aeiGiNhKQaTLzUzLuZBpDWZCFXlOgI/2D/5alCG1U33vYhfvHE7RfHX3lLKR8C0QGm/dtwe3PXoXtu3fO0g6lM39y/KF+M6yF4tdA6Xn1MZrUNchAES9ItdjsVAoq2grgKpvw7ruqL0USmGtKreyLL71M1I6rIgLDBPHQYt2CJ0rho6adPgUCZfki4E0FMjTwcJfd/YmAFix/Q388v3fxvLtWwZFv8MD/bhjwRP48xcfQX+zSYXUMo17AVs9cWy9CbFLIovwSXiFxCQUotIUYusQJu7jVskywHsKf4sO7czAGKLPleJ0ZFwHezWW7YMhEStzxKBrL3VxaFXs0NIGV1LA+9rON/Hp+7+Nf1z8jD5BMJGaIWDZ9i34jUe+j79f/Cz6B5q837rww8sMC/fqGkMbgTC+Me8t63XnQtb6Si0U06VyG3befNXqMP/yzrwZWlNpQHQmttWbms4MRaUgy/w+9Ur47Lbxei8K+GBwEjFsuW1Z5M1+jpKsJvitBwbdVdCik9xFgDgPClIG7Dx4AF9+/lH8y/KX8ZHTL8Q7T5oX7XvXwQP4g6fvx9ObXsOR9jYO/4lxyaA2tpJhRQguv5Mv9stVfhEZ+aBI8IR+zJZHUKmPjET94ou5ch85zPwsihbpcrxjSGhPq+v5YzYDrwnQQhDBA99qv9QehVDd+DvHizDg7178MR5Ysdi/166zetsbvj0hZKcfPwUfmn9hiV/RdOvHlr278cdP3qeIW6yr1FmDKMWJCpWv2l4xSe0dKr4dyLBx9w48tWF1UiF2HNqPx9evKNsQ76NkjeCnUHlmXNV+tDZOVq6yQoq0UhAelPkWIFkE55hhyuWs2yLDgK3DMr95ywuQ3ewnN064uzbIoMgsZykevJW0cPM6vPy6b8ldOE8YAmQYP2IUrj1pbrT91du34o+iVqkmhSsUn30wbzdh5p/YSoJquqb7b/GFwQ/PkzwcjHykwyKOyo/V5GKj4AHz1ppw5SJxi69xHIortZyxzV+OEN+GGxlZbnbjmMp1ADuw1vFwiFTtNOUWya29VL5oB31ZRyCw/Vx1B9XBVQueBmzGz73SwfVeJultelZmLDwauNTwsSbRot1kpM1C3AzhdAjrm3ffVDOEA3vTwc1WtANVgiC60KFA+YOSMviyusx0K6fk3UCUxO3cdzTpTCvpzHX9tzXDidDxK4N9Z2lKRHuvWP0lLdqM4kFws02xReEUEd06l+CL57EnhjRUDTdlyLQeQgCswFRt3rIIWYHXmuCAt9s6YjM1qZT3T7uyOLmXGXQJTxaHguRrjoHUWx4SOHmp8MQW9NowcBzYDlPWWV4s4WPhGlPsJCyFTPFdsdpdBGqn83wjqkkQT4IpY1JjS1JaLJSibC/Tebs6KVuKuOU6yX5KSJxOqUBBEzTK9w4Fqo6VZa8qgTKWNqkUgXnw0scMJrHFZDulybxQUC8IUxfSMlSuf0kF49P6mcoLRWFKIL1JMCGTUoBIbKZbE7DU2jEaV7tU+BFFppNEYyT5qGKrO+001BYpHc9KV11XqUMiJ0JCotiuXg360t6jFVmIogVeTF3GsSD7u9iRNlEitNtIUtTIof3VkMCXWi1cS0FEbRKLEKqdMgI8G1cwjfaew38kr9+xrro6MRyse88I05LfhNSP2jqqF32XrO66cM/OzrFBqfF8dZWSWnwbHhFPkVvz4mFwrBStajhaPCFyVWbITgkhtSasYXIl4e3WjZjP7nSmRFidRhcgv3nOmzEYlMP76HyyX+hpP/Kf3pqmO0stnNh0ID/piOOgzpGs2y9ZVwk11yF+Yu452HlgX/5ytF6dU81Zneljjq0BfylL5XoL+8bZv+eWIgP8/Kxcx2g3GP/Q1wianJItuqwQpsw3181W8lx9pRcZaawUEDq/DBt+sYWjTNOILmO3CRvQyefIKBWZ6KrqMwfPz+mr1eEC54jyRPkn6NshDu+be04nCP8bJS+E0Xn/dlWrAO2nkHKWV8hMmfrmKrIiL+sx++3FlS8S5+wpB9XUzQnwIuGT8UgloTredxN0/MfCKVG9kWWYP2kq/uzmWyrZeNu178UVM+egt9Fd4qRctT+zx/bH4B/a3YsbTpmPn7/g6koYBGfr1f3PmCrGPIEwz44pyqeaB8WKdidrQ8XEgJYjBaGdYSxywQlvQLF1o9Tq+GoqvIlVHqhc4WahTY6gXYlkGmzW9NXqZCPLcMr4ifjkhVfh8plz0kdQttOZk07En777w3hx4xp89blH8dTalfrYFcW0MnySdkQyqK+nB9ecNBcfPvNinHLchBphSqA4liu//zWSdHJFkGu9N0yMEYoAAKaY1YbLOKdUV4bgGolGTeKHG0O4fVWm6VJmvJIU36uKI8cLoYqEI6Fwu5Hl+Lz/DDjthCn4mQuvxhUz56Cnw0N7uxoNnDtlBs6ePB0LNq3FV555uFQMRSCpFIDcN9TX3YNrZs3Dx865FLPGHV+776awUvbY+k43KP5HJYcDDc0jhlXSVuBM6e3KQnvMEpeh2GCzPIKm/V8hl7nISbPXeomMIdoDvUwcSZ/3KZjoBt6tVsuBNjJqCeIIWYfUQqCr0cDpE6fgExdchUunzyYXh3SWGlmGsyZNw5/ddAte3rwOX3nmETyzbhUOt3dw5myX+7mG9fbiyplz8PFzL8eMseM7PlV8856dxaDBWqX/KlHU63t3aRyEEGp545MHKZmhMhSZ0LH3O6gxRRsIu/epiC8ie6EKJQbk/RDQloqNNk2KzB/QelXhUyCjzHkTpuAT51+Jq0+ei96ubhzN1N3owlmTpuMvbj4Rz294DV97/nE8/toyVacra+Cdp5yBW866GLPHTxyUIW+GgLuXvVwwqEWwSNz5nzQ1Q8B9q/JLH9lkRzQG0YlMbPjhNQmhEpTyEyA2xoLrMLSVNCM4dAubmJgtlZ4j19428EqjIaZgza5ZsmWZbR3PGg3Mn3QifuaCq3DVrLn/theeoHUE43lTZuLcKTPx0sY1uOO5R/HSprW4cuap+Pi5l2HG2PGDbnug2cTfL3hSby23s4IF1/5zpv5mE/+0+Fk8vGZZCar15lkpQzB2zcpQfiKg8hxtuhQD60KuytukgpQjtxVadFp4CukJ2CcJflZTDKoFXxJ90UQHNeIhuxuBNNjVaODU4yfj5y+5FpfMmF1rsMzBifeRShmAsyZNw+kTpuDNfXsxfsSoQStjf7OJRa+vxx3PP4an1q1sHf2SM8SEGnV7eGr9Kuw7fCiNADqYBs7kT8a5gG379+Lx9Sux4PX1xcXtcq0oCr8daBMZSnuAxKgaEaUAqjsgfdhq6nuIMhaMua9QajTyeoYyak1Cew6FkPAWw3uH4Levew/eNffsjgfLMm3ctQN/9/wT2HVwPz523mWYddyEjoOR7kYXThC34XSSmiFgweZ1uOO5R/HUupXFQFQSsZyNi3tmlv7ox/fhtR1bFV9KEpYtZJl+XvwZxD3gbp1Fhd6hjU/bKwB+nUWDpmfVisVRe0efntjUNJNtkSvWDJ7qC85CuItGkbszqb/dpfsuJ4RDflGvcWvxmYNMj4vMoNrQSqWurIHfftt78N7Tz6shFjyt2/Em/uHFJ/HdRc9hT/tQ33uXLcQ1J5+Gj517GeaMn9ixx+gk9TebWLBpLb76/GN4dsNqHBkoT8qOXhYpCFP70OXktHh6Nod/uhkXsryxAH/ItRqUOqEKZXiDrICluHlJ4hC5aUniEDqYbSrwTN1x58YxItyDDZmiPiwynWbVObFO4WeKW+SaNHosbpx3Vi2BsOn13bvwty88hjtffg47D+xXFunAkSP4wZIX8eCKxbh21jz8zAVXYeaxxx/V4WsIAS9tXouvPf84nly7olAEO1lgB318Lb/j3qM8ccfAc4a4afIcXntVgP/yrvUzTctBDrSrwjG/MAHUUGzdmJ+izbPdsoTPzxoGwNsiVUe5QhJOGQ2fPf6EjmeQNuzajr97/nF8a8HTOHDksCGQwDUA+w8fxr8ueRF3L12It59yOj567mU4dfykt+QxmiHghQ2v4esvtGem7Kebqe+DCyuaJeXEpfy9wnsLHtgY3XprcxOqZmzmBooZ2VqjPUMZLhUD4czuVTJ1wOC1SiznokWZnG7NcZD6lnVAxxwfMkWL4uJ25FNRROCDpp2Gr1QApoDyI3S1mU7U7q45ZggI2Lx7J77+7GP418UvYPuBvYLUoSCgHrjmDG9d+PGDJS/hoRVLcMVJc/Cz51+FWccdX3nRh0z9zQG8vHkDvvLsw3h2/ery+qk64YdDyJ4kUYOLBSViM4JkAAqrFP5ebSnUUXCYs5FTSoUCtNpWVdV4ogyF+IkqzsQSw2GUJDDjq+GlGzddOBVMyGSVgCoJ4LTcLroUTWVKKXQ8WyJUlTbv3olvPPco7lz4HHaJI93diddOQIQItPP7jxzC3a8uxEMrluCak+fiE+ddidnjJyT7DyHgpU1rcfuzj+DJtSvR3xwo/aeYQUsOj6kFE7t86yTj/TKjTS0hE/SXo2o62WHHedpTME/nDzIou4grTdtTGO/kccjcwDv/Y+EtlBilYkPQ0o05IlG9Bbvbj+qtPxKDDuPqnFIoGZFKQC5izxlQYR3X79yGd93+h9jbHixXLtnTUxi8oh/sP4wfLFmAB5Yvxl+856O4eNrJURj+ccFT+INHfoiB5kBUqOoIED+3qmRmVSrR1QPV5NVSiAlQm6uOJ1ASU6kUdAXensVVlpUiVvJE4+CnCBwrYSKOFA/sOIl9fiA8XXcN26aJa+NVi4aNB9VTN8SvFIVD/UcKZeAMYZ7CKgkDNWu331/MTMXSrgP7S6+gIzFvGSsEim99r0F3xKvT/WckhOI8sKNkEnZVKnYZE/U0utDX04MxfcOQAdhz+CD2HTmsj7wkfFIhX4gJvGwhPpKtyPpQSeDUXWqvHfS1OnWb0QpJYFaKKIWZxZDTCnXsYmtHcLXrLhRbWV05MRAP/+omSvzUzE0Oi12RtzjUcxAlBCTUcPSFEDJ1X5wGm1KFjIkYLLnM9DS6cOaEqXjbjFNx+vGTMXHkmGJRM4SArfv34pWtm/DQmqV4ZtNr2H/kiIs2IoApJWazUcVPleezZ5W7ZIsxhIj3C72Jhh/Wy1jXZ5Wi5FtsYF1LFIxQ+UUXWF0FTCyaAy1CW1G5CgDZVEnwkmElAwqhqjH7VHu2K2jO24FqaEu8EjIl8ICeAQTcvL/CoR2Dm810BQ/az+afMAU/d84VmHPsBHQ3/ARFlmUYP3wkxg+fjctPPBnrd+/AVxc8gUfXrRAr+Na4lvBmRCkg4RVjiEx4OjZWpTIkngP5DULtl52lyr2FyUcq0nyQeVmtxvihWkjIeTyRb54LCylPWajbTQoH2X7QdeqcMVT/3Ivgfge45nUdx6oQbVbJgaWpI3tAd9bALadfiD++7gM4bfwkqgw2NbIMJ44ei/912Y34tYuuw7Ce3tTZErx7woayLJR4y0esDVlHdNJgBAiuschZDSFFP8uQQIorqEEJxOD1QuaV2MLqiVejd/9LKLZSCt89xyEQnBK9B0tP01GI8CT3IPojf00D1jTDqbvRwKcvehs+efZlGDKIXciNLMM7Z87D7191M4b3DjFUlUfZG5mxBke848skDlZJggtQ8iNuGkUFQ0F2CLl1EFHemAelzDArW4OCVXWini0knquqlR0oprlmQ+23B50szSQzQp2XDBwRHlYpRQbgg6edj5tmz3/L22HOPGEqPnP+Nejt6uL6HQUsUFFKk5nIODFEjbyuO/VMWT14IROVCu2V4UjEM/h8dbJnDkUvDIngXzLUHnFTSUXViPN+EXoVFinilg2BOkjKrpvSvElhZW2/igcSB5/nJwQGzBs/CR8/85Kjtjfs2ulz8I6Z85ycSRy46Yl7hYLfQZeFwNrRSDbMG256ykuWIL4xr/ZXWimCxKky1apnPVvgVtHjUB8CHrsK5FLxbIJBtXonoYR8YGcmNf1DouGIfTBC1cga+OQ5lw96az5LWZbhY2dciNFD+rh3KkBghjRIUVKhURR1ZkgljpX3f1ljR8ONOGPd2LkDJXBtwR8axuH1kq/hT8RQdeAIRuAj1GfxLDtZop5iJOI8pYRI8ER6WQFvIhyRTZ02fhLOOH5KR7Sqk8YNG4lrps+B4Rw4nyroy5TEKkqC3N2y8WJyMrHwQvOKK/nUl2RY5laU1UEFHabq1VOQJXp/uUYb0BodQs3pa4K1fgSBnvumXKNe0LCTsOPOD/3CoGj1753W7tqGO156Ak9vWI3+ZhPzT5iCj5xxEc44fnL0nQzA1dPn4F+WLUR/aBZCy6f1Uco3WVxMTivL1dOC/XoKtlFkYvNbsk+ijRFjFUkqpqj1RhvaGlV8HRfeOE/BcPJp+tjjMGboMIeDm7WKDGLYYcT/HdPandvwK/d+Cw+sWoI9hw7iwJHDeHrDavzaA9/B85vWJt89eex4jOgdgg6EyTto9k7wv2MRDxC7dLHojF8QEkyrNr7N43M1nlP5oN+rxtvFXtXH7pcdFqXOStfr/51z5uN7H/1l3HL2pRg5ZCihdzo+L6hih2RHYy3mP1G646UnsGnPTk2CELD78AF8+fmHWwtxkdTX3YOJI0crYdIhuTRCofyXByuUmWbMZsd08GG4Pv3bClnbL0k3zxce7Il7BgEVM4vG6wpDEIJnhahikFSeDZWDxbxhdTph5Bj8+pU34Psf+xV85JzLcMzQ4QVgAluV957Bxuz/vbzHU+tXtXAi47qlb76OHWKnMkvH9A2PGlelKIamWiQYT+p760ZsQFcugvBwyrupuLktrWjVgCidQuxXhYALe0MxOHDkSK3+syzDhLZifPOnP4WPnXs5hvX0GpCIEtgVbaYU/w1Sf7P8dJZ57/6EhwCQHFM5CUyGq+B5GSaz6CIEMYawDx0A1tf4Kc7iT9p7qenOeqJgXZ9pz1PIh08EhxyD59uWrZM0Zcw4/OoV1+MHH/8sPnrOpRgzdJizUspSEVf93y2decJUlZf0njp6LMYNG558v/WtS3yrkJ3qj3uKkvghSHqT6Kb2GAJcMVwd2Y0btOhf5I36iY2eqjwD2dfk2gRw37KXsWDjms5hAnDCyNH41Suuxz9/+Bdxy9mXYHTfMIdxAsD/NuESAHz0zIsxqrfPlfc2uvA/zrwEPY3415FHmgOt8Yc1lBX0Sc8FBf/IGWL9q1E2HFC1GS1fDY5psIMw6DI20K6TrNYzOgWJg4E/eTNQCNh98AD+53e/gfuXvZwc+MVS67CEY/AbV95YKMbwIX0lvEG46Qod/a+cTj9+Mr5wzXsw59jy+J8po47B5y69Hm+bcWry3dU73sSuQwfahAmIrR2VkxN2oA2Sb5dF8qXDKSt0s6M8/Acocu9+u1Oz9Vp9pCO+oipmAcTaRetnaH8zUMeSwn/DArSXN9qZ1LoEub8ZJbRAAN7Yuwu/+L2/xbwTpuCTF12Fy2bMwZDuzjeuTRp9DH79yhvx0XMuxW/f9x08uaZ92XkbB/o9RY1LU37prr/H+l3bBYPKd+ySUIGXf+B/ZrYdDUvxRUkGzB0/Eb952Q3oSuxsPWfiNNz+ro9gx8H96G82ceyw4ehuVH83/9ja5e1v1P3ZrPI7Hfmti/quRZ0IaNaF8mrRre7lWlF3q9+qYztIEf10TtSKf1pn6qdTX3cPRgzpK7+aI1+BtYoT/bGv1AB3xlATAS9vXodf/N7fYv7Eqfj4+VfiipPm1GKoTBmAUUOG4c19ex1dCuKjZFAdOqzbuQ2rt2/1D8yRMTkNpC74w8ZEiaiY6UJXtnH3Dnxg3nmYfewJSVi7Gg0cO2xEbXrtPXwQd69cpCVTJGakbQrsjVI4ILTBFefvhGBCJvHIz5FXzvuDeCft+uSelMLrVaQpx4zD/Z/6TXz8wisxuj1wje97N6ER3QDoB9YW3oFmEy9uWINP3fk1/NTf/zkeWLZIHT5WJ92//GUse2NzZINaDn+Hs2x0m0dyOqXoT23rEKGv3RCo5/lllBdwqL8ff/XcI2o26Wikf1r8HLbs3S14Ag0v7LQ+Cnj1A7shUIZQLNbWkx8ZhEJkug3BOM8U3aSPyf2wuWovUTpNGDUGv/m2m/HDW38d/+OCKzC2bX2ic8qKlrpCRlwfwbIoW7hxHX7p+3+LD/3DX+BHKxbjYH/1FO3+w4fwtecekyQpYXGDxrc4kggVhsnoBxtM2hFsfJdpwFPrVuG7S158azCL9MLmtfjWK88Rw2RxEL5UKAEbfMcWgeP7z8rihuqTiXLV5jMmUGRhhlsy1La8WdY65e+3r3svvveJz+LjF16F4WapPx9Y+66FIDJcGLzCsw00m1i4aS1+8bvfwEf/6a/w4IrFGEjQ5P7li7By2xaCsyCY8b6VSTE8pcJlm35avMq7MJA0vANhAH/2zIN4cv3Kapgr0vpd2/G/H72rdYgzBcVfl1VBGpWrWgQWPqSo0zX8ovm32Q/K9aBMlFccmBu7qDA16BtoDuBD512aHKjZNHroMFw2cw7ec8Z5yLIGVr+5BQePHNF92MEiw4nE3zpvTmZAwOt7duLupS/j8VWvYszQ4ZhyzDgF+6GBI/jVu/4JOw7s9zF5xmHJAPz8Rdckcf7WwmewI7+FtCMe2DGEpYspMzCrfBv+/uYAHluzHOOGjcCscccP6tuIFzatxa/96E5s3b8njZMd8wigtFzZcZHFweKjGFK00DX8ojNvyyIPqxSiHvCJQV0G7Dl0EFOPORZzJ3S+rXjEkD5cOvMUvH3OfHQ3Gli1bQsO9feLbuyMCT9JQilPlUC10xt7d+P+5Yvw9NqVGDN0OCaPGYuuRgM/WPIS7lz0LMoP/g2XFAhl5lMVCvHNhU9j+/591QpQhUOFAFmYGQ5Z1lo3eGrdSmzeuwunHDsBw3uH1Do2Ys/hg/jGS0/iT57+EXa2t3LUO3Xcw8tm06yS5PCaxqNGsmv4RWfeptuIT8MxxWHAOwGKzGy0vvkPeOq1ZRg/cjROHj+xI0+RpzFDh+Gyk+bgxnlno5FlLY/R30/hrSdAXqmZlWqGgNd378Q9SxfiqTUrMaS7G3c8+wi2798rX6ycvUFWTyFyD1EHB2aoFASp2Sabjyh2MwQse3MLfrj8ZWzZuwvDe/swpm+Ym5U70hzAim1v4M4lL+BLT9yDJ9atwBEyMLdT5UkeUKUQJTWUgr2fjf/Mx4KpQ6cvk1aUlTmrZBmi811dDcybMBW/cMU7cNnMOejrGeSFKW0hvf3ph/Hdhc9i18H9kdCgQ28XERjZSqPRKBYvK5XAkPmVz34piddN3/gTrNr2hjZqgwhhq4UsEo4kvV3r/+6uLozsHYLJo45pTXxkwK6DB7Bx9w7sPnTQKYEL1WvwhN1XwZQiTe+Mvw8gG/+ZjwZJrEA7IApB5v3rAK8ZYL1RS6jOmjwdt156La6ZfVpHhxHb9OKGNfj5b9+BN/bu8t4uEvfWsVL6Z8Kj+sETDZcy/NsoBC3LOghpGY5VQqbwDobHgwjLqyKQSJiuldjSSZQZnjTUQNzO1amZEPEzn4FJTY4ENv9NKpmZkGaziefXrcIn/uGvcdPf/B/8YPGLOFRjqpOlsyZPw29f9x56NRabPeOnAVpwO10HsOsecfQ7SeXsmVl7qXwx8Y2LwZtN0VaeqFKgFWITRzpTNeNGyOvkipKRr6tkqmEzvYtANvcFzqc6uzMDnb5kxPZY+IUXYOHGtfiFf/4qfvJrf4L7Xl04KMW4ZvZpGNk3lK5JMPjZrt7o9ncDdHSOPDHnb56m4TOLeZRP7JttYnhKMPXko8OJwRuZwqyY24RdUGVT/XTqPHKiildB26db9OEsFb8bOY2jy2lmNx5b0a7+8L9q4cgzLH9toNnEi+tewye/+Td4/x1/jHtfXdjRqvGQ7m4cN2xk2WzsI3/rAVMnZNBFIW7uvZUix6vUMuxMaF0nvDlq5IwnC0SopFJE1zGIgAfLYBj2srUijq+p5bLMCEU9UwKHvLtGxCf5cEnhGCqZyLXcKBdhkupDLp2EgAUb1+DnvvkV3PSV/4O7X3mpfXtQdcrPIk3ShQpz1Ld5BgRAhR9W0Y2JY1sM6qYiZPAG0MGuTrsL3ooG2r7GkXk7amWjouTDE+fJCDDshEP/nYvnSWbyxEdSHMReJh9LaSeYwJYBL5GklNYQaQFl7ZSAN0MTizetw6e+fQd+6ut/inuWLEDtxPpXfVRpOW2kLAuMTh4H0n19+COGMxeN5FZ32mmAVrBo8OM+5SybY4pvLVCEnAYS9u08WL0YaYIxXHUYIVpo2OVtFluVnZWKU7pHA7x5v6PDfUNZhyqJgK8Zmnhx/Wu49ZtfQVWyVkpBIuDL10XUu2RcwYy79xz8I3njQjpSCoaDNUzlVuk4DvzDqUw0WaiX40EaXKkkunbxNpERF+6ZuQ169pbxfM4zhCAfEfitUrcS3fAfCphCCWFsGdICD3LHZvC3uqipMrvvPRMtqTzpsFayWprp45XafSg+ZqSJTDWhGWDv2CDtS0hk83WU4ifnX4Ad+8XWDUcGtn4QqZMBzWbA5j078fT6Vdi6b0+LvnJtSNBEXy9grz4A2B0h5ax8LriZvwQFaH9Ho2nktutLIiWuOW4dYpy6OCfkvQNB0ioUOHTrdgXw7cqKcRIZCzx0WVSJpNSRD3eUhcuvYQqEDgUVayYqxPJhSWyq1KosiFckwf3VUrkI2Hytz0VE+uD8C+tX7iC9uW8vPv/g9/D4muWIWQJ/wFtW8oHiYJWCMUB3JenLDBM1JKJSSgnYVV5l9aCyDe664+MF5fpUTV2HhlOmZTWdJry/DbLk8xiEyRTKvyx8Ml61JFTq+w/BSPuObY+FWOWDRJD975COHT4CX3rHB3DdyaeV4V7wgNuQkJLZk4wu28TCJzrQdn348AkupLVT+1Zw4jQ35zJRyCN50g99R8eu3GkYoVLIWoboeLx+DO7jbY8DURJbPbJwFOKNwi+GGePwH6cPAIBhPb34navejWtmnlpeuoSEUkgclIC5wUFRp0qUdNPWyNjHFYpiWV3IkB6bsnFeww2aiIYL1IwVD473bNiSXKdgU7iBzRP4JRzm4KM0pgzxSuIWv3KrRbydznsrxDCwDHir3wcdrTS8dwh+920/gWtOmutpFjWw3MjEow1jzOQPp3+SQ3UPhLYpxH9G8g3tcUomBYuwtBwufDIIRYRcZ729SZ7zZAsjQhclC8HJhXsRHHywV8NTEFcuKJiwvP9xaWhPD2675mZcN2ue92wCH8oOYljjM5j5i0HT1rE3TvP4HSEsfBLd2gVOaRqDWJiLL8frX5kpYpaWCVBlYmMMGOCZ0NVXieiTOvDWCZ9iYwxjbzoD/d85De8dgtuuuRlXzJhTAKoNPotTrQyFSJm1lXIQXR3SmgbbWW+YvINijXJGNESpr2CsqN7IFewf9QKzsnXm+P1qKkeGufNoMiFKCSvzdtpVu1DJhQc+BHQMCZH4O4rjf2wa2tOLL173Plw36zSBk4Ax81FTQbcgKkWUIrfcSRkKnieKZoYHpoCvcnswTKPqWt4AfT5QKDE3U2fl7Jl66FLrqa7DrqL1ZWbiM7JOUcwpv9XEUFXUzMRMXotTyc8mQyjPrYqWpWln049fW469hxMXzFfM4eZPu7u6cP6Ume3v0eNpaE8Pfufqd2MgNPGjVa8AAejuamBU31BMHT2uOLpzx4F92LBrB/YcPlic3dqabq3gjOGjkzO/wKV4ULXWFeu01UwW5Xm3nIZ1C2Z5qV14UesUbVXODyZDgF2csusStS4yZ+fztCe2y2uM6wtVWVPAj5xxBF55iJXAUcFrcMpii0aGIQj5V13lHHlV+v2H78KqbVtyqMsH5iMdtfyjPsIqn1990lx88e3vw9D8oOZIGt47BL977XsxtKcXY4YOw7Uz5+KU8RPQa24ePdh/BMu2bsZ9Kxbj3hWLsPPgAbN45xfzirJMGE1LZmGjB2NYQ1u45dlbeokitLttr3UB6C70rYBTKkCAbEkJlRMieAWwCPlrfRxC6jJ24rD0C6i5OBcMsS0mBF6hxII0lfBX3WwEl6/v45hQMQJZeEtD1XrnwZWv4HP3Ar973U+0LymJp9ZA+yY0skYU9b7uHpwxYSpOnzAVHzv7UvzNc4/grqULcLjYlSxgC4YH1lMongDyFiAwI2QWgOltUtDG1h5Q13b5CBBjiNziq5F3coBjh6I2HtdlUQ4nVnLcYp6IxzsZQwSKEwskqwZ1diTgO6++s09Fy28xBQNy4PCS8eOPVr6C2x74LvbX2DHclVAGmTIAxw0fic9dfgNuu+omjBwyhO5rsvDxMUbsPcIDOtsEX8+QiUGUWJiz/ZfAx2WkHKiK8/oEAGwgS7pk6wAG0AyDESiixITECl5boc5uTLKZjh3Fn8VozomCAipHc6IUeRlZdc7L7lu+CL9x9zdrb6Ovm7Isw9tPPg1/9M4PtjxQIX0CfiJXhA0aB92M7NE1kEVobukZVL79gVA5S2AXjspH0spaqxpTJKblTN8rVx7bkOld+R1aWUlEpWNWoDSgUilitp3f0ZcGQSrFYFxFeleBLSY4tIseXr0Uv3XfneXZuUcxnT1xGj57ydvR3WjAczOGE5EFg7DfehNkA+CtICZ8CoBGiL3HVbHIByPwbkXbio5FqMYcvgfeh091U7ANqdeJlRUwsu93/b4bT6o6X30l9+5b9JNWlUyLl6hp4CUPAnD/ikX4nfu/e9Q9BQDccMp8XNle03AL+jZcLYyroL8yZMS3B91C5QIwXSsqu2hot6G6cuZE7y0nsVOE/4H0XACfCD9q3eFcSylK7xcXqqB40EqZFiCDI7VcTubNZjm6wt2BYrPww/DA2UnGAEAJ1QMrF+P3HroLzUHcj5FKjSzDreddgWE9PQUVLfxMsR3ekgBKCRhPLM0qlEKMVRuuhShvaLCQ2M3IyjxD6Fd1KfkI9Swq0k0kcXRWtZ2yLCvuSY41WPmVIBhDBoMEIGdu7LOQIqs1TO0fo4cORVbjoLgjAwPYtHsn3ti7u/LeOACYOuZYXDR1VhLd+CbW4MqjxjjEe6g+uKDVQHfZnrkUpZgRI4thIfadRrtiaE/lZkEzDm6GTcfQmQ5PcnjqzfHHU2FVI98nsA9cEFBccHL8iNG4cMZsvPPUM/HYylfxD88/Dn0puCd+hkzRtHJKthqLkv5wE6yGB7Isp6eE10Id0NPVjbfNmpecTQoh4IfLFuKvn34I63ZtR5ZlOHX8RPzSxdfh/Ckzou81sgzXnnQqHly1BMHJkOCJxDXIadpWPpBqDKfcc8eOLpUNFDLefrFcYcnMY0FHAOrLtQKh4oEUKsquQjGKm+YTN8/HmNFqP1P5OopxTH7Zn5CD3PjYr7wAoNEAjhsxGhdNn4Ub5p2Ns6fMwJihw5BlGcYNH4F/eP4J1RhjAFtyozjYFe047xTQxU/DA0sOJXiW5gFFWyOH9OGU8ROTIPxw6UJ8/sHvt2/6acH/ypaN+NW7v4k/vfGnMX/i1Oi7px8/Bd2NLhwZ6If88k5/tdbKKMOkBL4FPJOZok4oZcLuKpBeQh08IcSuO/qVmmI3W1Qpa1i+sUUV1xb08nv+XrCeoXLhpTre+PIHPoE//NFd+NaLT7aFkFulMUNH4KqT5+K6U+fj/BNPKhVJpLknTMaJY4/F2u1b4VbgC0WXQlvhCUL56WYqFf4hn6ttS5LzUMwN24fyUZupU8eMw5Cu+BViRwYG8FfPPFScjSVx2nVoP25/7hH8+btvib4/fsQoDOvpwa62MilJiTr8UonrbOsoUY+GMKJIR0T5tppu3xggvz3NP7sLOVTMyqJ8x3vjVseq/aKptpVCFkVo8PtWBDNGjsaXbvoQrjv1DPzve76D17a9UdD4hFHH4IJps3D93DNx6Ulz0NfTm7TYQ7p7cM3s03D7Uw+12wig36ZKOlWuYHc2qNZmBMqN609utefjq/StRscMHZbsd+v+PVi3cxvHIQAvbFybfD/LMowaMhQ7Dx5w8Cl01E4JT6LiGFWkPAWcnGZVYXZ7TFHcMee2FETU1obijMTWkwSFtyaCj2ZRSwHke7sPHsCovqGVDLl69mk4beJU/PFDP8DB/n6849T5OHvqTIwdPqKDbXat0wC/8cyj4vBegkXGrdigExk4K8NEmlfe2kbZRoCqdLK7vVodq9bTVX0PX9PubAaAzCg1RVzKS4jbnki++GnknMlVt3gqvJMBQA0kJOnF7IoZQziFVN6PWFWXhwO+1b5wc+38w8sX492nn1vJEKDlLb747g/VqhtLZ06ahomjj8Ha7W/qvU+ZED8zxnHekGxwrExisgPI+LjOjOkUGRVZtVKUR/jzNHbYCMwZPwlL3tho4Gk1fvG0Wcn3B0KzuJi91bsMy/UEUWbGRNYblbe5QuBgPUVBJYimKz1Fw+7xyIRNkfOz8occ3/mhf/kgvm9IcCeUJNLfIrT7ZybJbIv4ox/dhQ07tuHfK/V2d+Pa2acrHAq4GI00FQaZPA1DTgrRUfDM0Ytd8GwAWtdbHTwSPzu3u9HApy99O0YNGWr6D5g06hjcet6VSeg37NqBA0eOeMIYeO3KvV+8q0EaWa1iAdWuddk1dbiDANotsM6s4nhqS3hCUaBXVCldxNNg2vMavuKNzfjpr/9fPLV6Gf690vnTTtJwxQhQajxySlaehUuSEgfL1ViZopvPy8XGPQcP4NWtm5IwnDdlBv783bfg0mknY1hPL0b3DcP1p8zHX970EZx4zLHJdxdsWqtvL41Yi+hpGYSeelXbUCppmAJnU2ivQ+TWWE8HAmoKNpPn85TPlQsGyKCuVU9hTRHMAPKOGOMLZvrZpxVvvI733/5H+NiFV+KXr7oBY4fXvye5TgohYM32rXh81VLc/cpLeG7dKjejFts6TuaCBrEOkbPSnpEE07Y/4E3PEorYVdQ5MjCAe5YuxPyJJyaHOvMnTsVf3PSRjqDubw7g7uUvK2NWRm121JgxCXATAyokLFGvHZYXU7LQIVZ3QSlPezLatSO5dkxbfPBS0UaNZ2qsFR1j+AZCCBgIAXc8+RAeXfEqvvDuD+LCGbPp3RD1GdnE67t34qFli3DPkgVYvHk99hw6oNjFYLRKwGLXRpZh7PARuGT6bFw354xqYISpK768KwaRbaESAh5TCkNlNdb74asL8InzLsf4EaMHTTOWXtmyCS9sWJMzCkxYSv0WxlaRLC4w6QPoso7kKD7x3AY+H7iWr1uNVpyBW6jL3xLzyZnU+iqNhhhEyUFpGz5mZVdu3Yyf/vqf4pbzL8dnrr4RoyqmFFla/eYWfP7u7+CpNcvbc+/ChsmBbF5miGuVIM+PHT4Sl580B9fOPg0XTJuF0X0dwuaNe1HObBY7hpJPgAXsPLAPX37qQfzONTe/JUMi0+H+fvzZkw+Yy97ZjKYdaAt4CyWR4/hE9GE/c7bHaNqJayFH3WrOv/BLQuSLEXzmYRBwFK7PWCX9lVfGZwkg3rFKIN7JO8xXWHOYMzIbdbi/H7f/+EE8vHwxvvCun8JFM2d3dD3XieOOwy3nX47V297Auh1boelkZmogdNmESw1kGD9yFC6cdjLePucMXDBtFkYO6RtUuKQECICbxoMMWUUe5XqS5wmUwHx/8Qs4e9J03HjqmR3CRyAOAbc//yie3/iaXwgDtJxJbbZKrOAXxlbwQEXdTAmk95YBkdSnDOgacu682+pcV8vudJbtyR/eI/L7vuz9waXu6nCk6s67WD6EgB379+EHi1/Ejv17ce6JJ6G3O+0U89TIMsw4djxumHcWdh04gKVbNoqphYzCm4OQZRlG9w3D2+ecgU9f8U585qobcfPp52LmscdjSHfPoO51vv3ph7H70AHtm6VAFWBk9idULUNzxYzQOlX96XWrcMaEKZg0emzHcOYphIDvL3kR//fH96MZmpRHeb9GVAgOFl4rQ3GeaBnS7pHecTfq538yRB9WXdhny6JKUYWQDKdMnUwg6HifVgpbNuO44/H/3vhBXHbSnI6EMoSAh5e/gv919z+3vEWEISeMGo3zp83C9XPPwiUzZmNYxffKddPa7W/iHX/zJRxp9rd56pWACrwHstbNnBmAYb1D8BtX3oib5p2Nrg4vvjw80I87nnsUtz/3qNsNq3YtROGtwMkogSFG9LbRolVbLOmjFMK8nCMgqUn6P7rAC6boOhH4JII1bhYd2tOLD557CT57zbswusOxxRt7duH/e+gu3LngWRwZ6Ecja+C4EaNw0YyTcf3cs3DO1BkYM3T4oDxALB3u78fnfvgt/Mvi5zlPBBGpEWJlNQwVMqCn0YWrZ83F/7zoWkwbe1zluKK/OYDFr2/Anz75AF7cuAbNELhcWc9mcbKRgUEk7jmKxk2XmW4zJUOjfu4nQ1IJKAM4sFFPUUAtBuTUM0TCAfWHuEIPXtp7ZBlOOX4ibrvh/bh05hx0kkIIuH/py3ho+WJcOWsuLpx+cseKVTet3f4m/uzxe/Gvi19oCVfqWuEOrKouqzZMw3qGtGbDZp+GMyZOxQkjRhf9DzSbWL9rO17auBZ3L1uIFza8hiPNAceDShlq12fhU+bAEl4mr1OlFJEjeVRZBmQjf+4Dwd8fDCdQlUpgO63wHiWRQj2EcoAdDJzgde5s7u3uwYfPuwy/dNX1GHeU1y0Gk5qhifU7tuGx1Utxz5IFWLBxbbHVOuadkxeZt99Tj20dpxSWjuXbWZahp6sLw3uHYHTfUDRDwM6D+3Gw/wj6B5qeJ1au2DjP9kgUO3nfOfV2DAeiBJY2yFoKQYEdzJiiylM4hWDIKEq4MUWmKRWFj04UkDFQlmWYffwk3Hb9+3DJzFOOarhTJw00m3hz327ct/RlPLB0ERZtXoc97Q/+613EzhWgylP4UIbxwPaXJd7ndK9jqJITNonwieJIPF1sTEFlPFeIGJJvOXwyVLZCX6kokXAqitAgFDvLMnQ1GvjYBVfil666nn4HcTRTCAHrd27DIyuX4P5XX8bz61cXnoBarho0T4YfbzUml2XOqnr4fMRRwYOIF6DyGPN+UcUmYbnrSij6yFs/EFy/qdiPIsCskgGfxoN8irZssjMtZ/FhDIcYQ2aNn4DP3/B+XDJzzlFbnAJaA85Nu3bgsZWv4gevvIglr2/A3kMHy1GVdeVq0bIOTyq8dYIHlfRVdFI/uMzUCMHreb8OpmSrcErIiJySbSmEo0WFUNXyChx4piBinS2JUNzrWAvlGWDrpYjf292NW86/HJ+++sbK7yyq0uu7d+KBpS/j3lcXYsHGNdh/+BBhiIeXCpVkbB2BMnilBChjjMi8AMVDWMMThlOn0QYrq2VYB+M52u2MuPX9wRFbaEwVwess3nlYOXAuZqwAHtH6XKnrMEXmp40bjy+8+4MdeYtmCFgrNgE+v34V+gcGCA5EKRLxd8z7MZpb25IclFbxJBV6MJASSlFrAZjkYxFJtN8KTxGXIRiFqGIQ7bwDjbbEr8GQOlYqHh96BtQJnyS8fT29+NC5l+BXrr4BY4byscVAs4kte3bigaWLcO+SBa2B8cGDov0EQ6roXWNMZHHoeIozYWmZ566LA5MXBl/HkwdRpeYwd7J4l4249f35NhAez9YRqhpWKkrwirym6dGwUgQnosRWgGYedwI+f8MHcOnMU9DVaCAgYP2ObfjR0kX40dKX8dy6VTjULwfGnuAS5nTMbrZJJzxHfZ4I+ho6ZSxf5SlsWYXlHcwYghkqD1pVSGjhj/CkUIhPthRCRyhpYOvGr8nVx04R9HFAwlMcJRyMVerp6saMY4/HtLHHYcuenVix9XUcOHxY1S+wrGGVkvH3YLwzkPR2MYFhisPg7QyHSMRh/3Q8zqgz1c8Vu1IpAGQjPvm+YJ5UWiV7CFcc2IrFpNoaXQehsr8AzxCHQ5aB7YWuMx2oGWC9UV0csqiwMG9dNp1WCI9D/Zka3oclYkW4pOgWkFL0wXqOeuOk1IKwgUjkG+7TRJmR22TV98L5NlzyXaLJ17vby+btkelZCYJtzIIc+ZQQtqscrvhXl+3X7U2cpFIKB80l/fmsArHMBNu8YqfBwR4D7wSK33nncYjgRHgUIlVlRl1BHKFx/i2C/Ua+MgV7RHRGuvHXOIvXVZnkidnGqFijsI+CWXFgsWNKRAmCe2QZEqEs747WrnMqLD13NTBie8J4HCKARi0Eex40PhUCE7vIkimyFtiS9+rrvDrwgzZvqZKbCa0ADH2iJOzMXE0TDr8mGVMKDXKjpHmgFSTT2AXaBZIWIUoc6LYs0zQeRR3+gbyBrcCB2AlzB4D6yL+NU+WH/07IQOD3QlPw1phLK0r6MAbrKYxhYgJDDBPDU3fLDBWRAwub8n5SPrzSBtVIoit2OoZmJLxaGE8WjDRapaDWSjOzEQxC1rwqBAsmhxjtogxBiDFExgQlQnURiPkCT3D7WkjCX+BpcYLByfVub6WJwWeFyioKeRJMWdwsx3EgAqPby3Q+WGEQLTlPZvhi4XVwBN+0UWqFQyhpTnnKKCG0L26EymJ9T7WyvFE/XiCkXVCFdLFWJEJJBYvcGaAQIlZVCVlCcRI4VB5v3wZCCyj3tjE3zctKpc5SL9jwo4oPKSNTtBeir1YNG3XrFoeQFK1cbN2Vaq6DmHoFhR+lLfPWIt9wTAxgRc5KMdqyUKPyYvMCIWuVLHWDVwBHn1AYKk5sFFZMOH+vFOZ9ZmWjKZR1qJKEFLwlYFKJS4fsvaPy4GjPUFXygDtY7zn8BSeGmAV8lgbOGiOOg5Ur9f1+BIdAZSQTTRbq5XiQMhkNTU/iKWzsx5oLFXlX34YeCoii0Mt+wrJFQbCunKTMvtth6GFxcgIbfasKckQzAqXAqtVw2L59Dp8zfKT5uqc0sratXIVadGINBQ4bIYw9QC/PF7NMcaVwGQiTBRsLFgiRwbctSAYoocx7T5Ry3aXFYXrAPF0xvmE4RokPIBViCcCjoYaxss5TwAiLBcnBq4XKwRY8Eb2lzSRY8kck1GAgWM/GcIhEG9ZbJ1LuNTSukejC4ST4IPKNmI46ggurxDxF9CLFYkAUyjIBDR/kWQbInzEbQO5bs3WskAWCt5LnQBmk5ZAP8qg5sAwnddLhkyzWoQYzHMxyVI6TxJgo6G4pDponcZrzYk0sZlxrKUkw8EmDbJVCwexTw8bbbtECqURYmvAMUY0PUSnh/jpHMOkpLKVYnjXN3pEWJfBFMitUstFgapiZG7ZQpIBjGhfFgSiJI3eg74d4o4XxItTyL0f1Ii1N5AWwIKjWtLikOFMKR+9WPw3XCuCslF5dLVErFIC5vgQDAgVeE5etUzAvzrgSW7eQAm/zpgWVDwZmNlHghYDFwX71NMAOYSI4WLIqIbM4eCWuWkANdB2FY2C9tYdVGqu4Uqu1o4RhKuhfoU8hVcZkVP5oPyeD6riVYgJpFYUxRDElwpC8jahxLIDyljYQHNhCl7IcDn7TZ0TIHU6G+MFz1hgJawFK+CkOBv7KxbsIDsxCV3oKTVhvaVk+aBV3A1cFi4TKypDmk+glAT9fpdfjOu7Z8kcNpQBK4olSRCkXqRYrYwgxt2YVIE4aAy/rvvyVmSJmaTtz8RJe67xEmTMkmt5pmsZhsaKVqudBrhAyMG9dBXrQFS2xI8X0+SDhtYg7wxo4ofXCHPnFBnkKcuGNpWcowwzWdgIh66ppXkCQ9ImWGPZuimD/qBeYla0zx+9XUxnx+bYJTiPznsSBeQEV1horSzxf5VpRIGVO0U3ewG9nc9xakZQhBbPG0b/MZYh6D9lIZux/G4eGLK22hwk7VBRmvFgxpI7r9gIetaqyzHESvsyGGh1iTK1Sah2lVQFskEchYJ6uijkh+qqjC5sWZx2GyrIKRU8BmkCW6IrHsWJMlOPpyWDHQLq/hkdQmkthkYzGOksrgTBuz40fCAJUyy0xnFCV8Mn+KWkcDvCW1rLUWiWDU/VkAVccaZXY1vLS4MY8rIDfeEMFr32PjutSPKD+CvmgWRoqZ8OCx4HNprFxUomjVQ37pwr+mLGVnlMrcUMiGDxvHAKuQ1stiiBpgCgO1/TIa9a7ybxz09YaMCEisCo0fLjhYA08vCvyGSlTQpUDroVOKoFtXGGm7FmAFICIjjr4U/nW+5nJC6EqtDniDYmiMAZYJSt7iOAdg5fiIBhhZEh9D1FsOI0pAAFHAxYVXSok5UJMhEt6pO8YYPsqeJXCIfiMtbyxsiiMCcvqFvMKT8dpUjKCwcwtrWk8JWeus1rbVOLL7BUBUM0wPKToTTyDEYfKcR3DIRJJNFzjhsCVVioiQHGcCMPMV15+kMqonkWYyWmuIAgpGSn8uGi/xCmI5+7VCA4hojQZDN2kwFvPYYCtsJMaXluhTvxthIpvEGzjkKQ58wpkVwFTiiKqIYovGmAbGhleapuHMEyy7QZ1cxII+ZjizCwoQTDxTmzmI8Wg3O1pOhvXLX2XYoohrmOQ5gvHQdOhFkOgRzhsSlaVSYpZZ0kME2OD7MeFfxbWypG7sU9CKSSRk7tkVZ9RYpNigoNpto4cESYpfBoKzsIqRRAiDJICHgjBg+jYxYPK4HDAk1uvo+sUSMCvcVDi6eAnOEg4asyJu26DoXfCvAbD+ag3kTxwneXv+tCDTXZUC1Rw2dTeVAlfMHlDUsUDq0hWKRQPashRDPzyrdaDhme6eVci5FyfRDrumpVoWeAToUVqI5dXYg+0BpUJmbUoxEpxhyLaJ94OOt+plXKSKeBNC5U2TK2UQQmQ4wHgFd2SwGyW62CaPFOPOA8qw6cYAyA4XcEDxxMHfwviRtxK1UlEoCqFijDE0TaNILNSyUY9+VRZ5eyZKvMMYfPdSUMV+ICuEy6EChydVbUUCPEGKT6ueh1PUcGTAMjTSFx7KbJaw2T7qPJ0bEEVcpaJrq7yHmMTKyz88G6OMIStU6TEg/p2g3QRTsVxsPBrQEPp+eicfvmu+Bw8x15b1QhDGE5+0Mf28isXVdLb4ZBQAFFGZTX37gkckiesKFpQmy7yxNOpMm1omaITM1c2WLC0eu2oYZ5qLRdab+PZHNhAFackuLKqEY0OqkGDYwyZkLs+LZls340HPe66SwZkBoQyFikUVrUf8Y6G+GzmRoOVeRxcXqAXNVYRpQgGJ9WW9d5+qzvFgfFL5U3HchGU8MDTTTLd0FxNaxPDGoL/IjKhFA0XTxWk0AzR0/vxmCAdfli37JXEzsJU73AU7wjiMqvkiBvDQT53uh4PLfL3/JRrmiHaOxOlokrB4K+Zd95Z1silTQptQsst/EWbRnMlxMVcLbf1PAaqwEG2TzxD1QSIGFTrAuv63XPCi/TKo0HaORTmOSqAj8R/XmC0ErM5eer9HBpmzcDSyMygZQaHOotfSCiJxsG1ZA2jac4+157D8kBhoXhcZZjYCCIy2eH60m487fk0g5ghCb4TG9x4HNoRR4Myw5YZIWbW0r6q6ilja7Q31lSFUfJ9es8RG3ky/bU4VU0PpkBt5ROLjdH3qoWsqOUMCwjDPQ6MB1EsoivmkRT1bCHxvPwZ9wfMm6S9NwevWqjEoJpYXtsIdYXtaK54VPgp+ZmIwcEqhRcwtm25clq2GAMRHJQXCK43hkMs/ItaVZev8mx89dcZEwe6xdGENzIciXgG6ilY6MHWXkQoUndKE6oPu9ZlaV7yw5HReoqIUVAylPB0lkcNVyHLNLC+zSRC1jUG+jySp/FsOtzwp+nlp5NrhDnB5A9mDkMCfsEQKWRUqOBTTLHbni1zdb07C+oRs5N1lMIw2C2g0q7TifAkRBphOATPHBeWM6VThkoZW29cdf9lvlG+JIkfEQ6PeS2C1VmNZFax+GnymT9IyfQXyGl38ZkaByQxItb7ufADRoAskwx8yf1bJO8ME6VRXFydXhI9jYce3lBVn4VLlCDwMQVSZQYHjxOz2tqAMB4479fG4f8H40Ah/a6bKfIAAAAldEVYdGRhdGU6Y3JlYXRlADIwMjMtMDktMzBUMDM6Mjg6MzcrMDA6MDAFZKF9AAAAJXRFWHRkYXRlOm1vZGlmeQAyMDIzLTA5LTMwVDAzOjI4OjM3KzAwOjAwdDkZwQAAAABJRU5ErkJggg==;" parent="1" vertex="1">
          <mxGeometry x="585" y="280" width="40" height="40" as="geometry" />
        </mxCell>
        <mxCell id="L_KWcjH4mNL9vExOsYk5-16" value="Retrive Context" style="text;html=1;strokeColor=none;fillColor=none;align=center;verticalAlign=middle;whiteSpace=wrap;rounded=0;" parent="1" vertex="1">
          <mxGeometry x="550" y="320" width="100" height="20" as="geometry" />
        </mxCell>
        <mxCell id="L_KWcjH4mNL9vExOsYk5-17" value="DynamoDB Tables&lt;br&gt;for conversational memory,&lt;br&gt;documents metadata" style="sketch=0;points=[[0,0,0],[0.25,0,0],[0.5,0,0],[0.75,0,0],[1,0,0],[0,1,0],[0.25,1,0],[0.5,1,0],[0.75,1,0],[1,1,0],[0,0.25,0],[0,0.5,0],[0,0.75,0],[1,0.25,0],[1,0.5,0],[1,0.75,0]];outlineConnect=0;fontColor=#232F3E;gradientColor=#4D72F3;gradientDirection=north;fillColor=#3334B9;strokeColor=#ffffff;dashed=0;verticalLabelPosition=bottom;verticalAlign=top;align=center;html=1;fontSize=12;fontStyle=0;aspect=fixed;shape=mxgraph.aws4.resourceIcon;resIcon=mxgraph.aws4.dynamodb;" parent="1" vertex="1">
          <mxGeometry x="581" y="522" width="38" height="38" as="geometry" />
        </mxCell>
        <mxCell id="L_KWcjH4mNL9vExOsYk5-18" value="" style="shape=image;aspect=fixed;image=data:image/png,iVBORw0KGgoAAAANSUhEUgAAAMQAAADECAYAAADApo5rAAAABGdBTUEAALGPC/xhBQAAACBjSFJNAAB6JgAAgIQAAPoAAACA6AAAdTAAAOpgAAA6mAAAF3CculE8AAAABmJLR0QA/wD/AP+gvaeTAAAACXBIWXMAAA7DAAAOwwHHb6hkAABb00lEQVR42t29d7xdR3ku/Kx9io66LNmyVa1iWZYl23Lv3caAbbAhQAjBwIUEJ9w0IOUj5ZqbLxBy8yW5KaRgU1KBYCAxuOJu3ItkybK61WVZVu/SOXu+P/Zea73lmVlrHyt1fj/p7Jk1a+bt7ztlzWSn/fHnQpZlkMnm0c4XpVnrv0z8NlXTZVn+K4P/k0XzZSu6jMGb6RdKeA0ineFg4a+Jg6Wf7sTjYOG3ZRR+1bvCKQMQBA6ZJ05tHjC+MR54njAeeHjZc08ugoMDSZbVkalWJw3USSG0SWqK8//E8xBcDbAX49VCRd63G4KpEFi/ASGFg3wWAduClEQ1+N/qnVQfIQ5rYO+aB0E9INWDJFGcRywf2pTsOAUjg7T9UHJJ4JPBs9ThEHiztrSgSOA1G63GvYA5IZPoCCXQgiGUQryviW8lJRQIqXaU0Bn4IjA7HJwkZiYv4BH5AP88qHwQDGbGQlMkGKXOy4KikWFSMDi16Z2pRoIUIa0tDEcDr6V3CWYwxYHgEJRUWpnJ86pnk8/fT7KjwC/UU2KJg8xLWK0MhbK/RglboEhJ4IO1XFEGWMsbqEaHKiXwskotL4W3aMLgQDyFZ0gwjs8yBCVOSfjlU+bpCD9Tih6kePh3RSPEm3j4YXmiDJOSrhKHOPlLGhO58TxIEcIaJoaDlSutTRaHoNrm9A0INUMmT0dDFcsAAQ5xdZKcGVh7HgEuyKHSU1SGMjQGcegR+BkxIv0VOAXOkJAUD6cUxN0gJq5O0QOoYttXrdcvCrQVENaXox/HgfpRjmdUhlgZg8B4xBC40AFohBBS8lAg4kXRWCVUMC1i14JvSAkQsxIJLfPEJ3ltyeEFysDrFD3qKYRFCpLNBN6EIrGQ1fEvMCsb4jyhKcR/OatqLIkNb1jT8oEdZAfTgDWskWY8DyI4Oh4bT2FbbDfYiDVmGeStUvAzIRGlqLSyqkvvqiloVbx27xELmrJaVeFN0jMQFlKrWKurSIcGKyagVMhKgQpG8uLhE0OVmUgLWSJ00j15Qql82nAqnAz8cb54pQ6hHTIVoUciPGm97y2vp2E0QheD7RANPbiYRJAzyOiBfPBu2sJrGSkGeZZBxRiAzqhxz5GE17xQDlIVgdOeg1loGX9bHIKuE+VRjC8CnGCe5/BVGhILGzO28HKl0BMtBc9QgxdRfAm/wCED0EhGOpF43DIgRBigNdCbVGallKVSik7tHKGlV1pT4HBySuxmqKShsMDmj7WV4nwySmvpbXAyos1xsorOyoylVWoYgqlDSCR5GAh8CpwaSkzgZTJk6R0kfFIxkm7d+jNvXIOo06AIxYif5xkDDDh+NgrxfAUy8DwzDDFiWmdKNjVQTYGZrONcQLK4oBQVMu3tnKKTvkMKhwQyNIRlxipFGaVpwXmLOoapLrxpHEqlNyA5Y+YMlwyZUq6Pr0uwvBUAb2lD+bMELOi8pq9nOx+UphkQi19lRllk4bq1EIt41uBg6SA9R6QzBECvLcif1ptwCYiRX3g2IgxBdUQV1VDAWLyg+GxRy2w5QYIrScRQGUZombWeTTyTcmXFxmoMkivVFSoamOu2Gud+EoQjCBm2VDEcgFuOr/RMbl0lEByEmgimMEvGVoCVLXImSdLM23xHciJAMQ+ugOKMaD2i661CmgxD2dqLxsHySLbP4XUKZUJWv8gqeqshQ7pxLo/5/+XC3CBCj+I9y6SYlnty+faslhMBYvkCXsMAN3AlNGKFyZCPFssQx+BA3lNKIFB14dNgeADLdFPLKoXFIatoK7D25UNN847XiiIpvfWGtWeVRD+3xjsAaPhBXrWbc6unlSvEot+S80WehUsKIdKQEiqnBHFah4hVrTN7o7029xyUCYzyqrbrzAgt8wKe3gG0UxdulACWVl96hcQkFKNoAa+LQAz9HA6WB6abQHBIewrhj6s8h/pT9tyoAp5pOEsxpTA+hxPTlbmGKhACfUfB1qmlDa5Ew1vtQNQ7icVR7rk8geOwCtC07oVaFBfoktYjhsr2V8FHZsnrzgByilJCppuLRhtlhQZDkHmKOhsAY4pjrWjUdVe48thAW2lMgQPxFDU8g+82sXbBPIWB1zYe3Pseh2DyRS9s4qBSqPi8v/dsnCd1La2lYUFv573rwGt5Yj2F9wzMexfNm7Uj5RUMzxvCcXo8zaR6HUvL5pwtwbyQRVwfM6kSoYQSFztRK4TKpaopWaoUgilJpYi8r8ITo/JUqCyJWfihJTvp/Yq83emrYY4ZJhf2Bvqa6MrY9+Dlhm1qtHzSoMYV3Xk7q+hChhreh1pnVMOdmxRSVipK8PpWCixvhCrA0aU+vAAqrZQFI9GRFhj6okbBKrpTAgIvDTdsvkopPBUKcDrCIZg+iRGqmuwAgd/JUaBvBdYKqcrGeQ2NhtWwCJBkm0RlslYKGemGr0dr4LmVKsEOKd4K6pqyqpmPoGxogs58XSVTDVtXbeGJUSEBX4TmHgfdDftoR0cZwuuaBRPq/fIyGaYYgKPiRRrks5gxoE1p0I9jSix50mBte60noYfDxSuJ3+Blwxvj9qSbI6aL6V3UiylieFfOVC8288Fob1vSfXorqq2sQ43T1mbYZIfypsERqWrgyratxKgaG9cxZJiuuJkFKzMW3pTRkWSxNLN8ScU6xjA1Sh4Si2TmxKlVTa6mxkjlTZFHiFsp1YYVcDbvlwg1WNOVK/KUHnSTt0GX4+BWuCMaWBpeYbFj1K302N6UBkS8s3IX7HsKOByo0ivWSAHNKA/UHqtK781kqOSLUpIAL1cCtkZswwf1AjnZvAFUyCjGtRFK8h2svYiWMytLZE15AStQNn5NKUUwDIoywHzeSYWsfN02xwZ5FkFrqAoxZWMg663t6i/1bG0lU4puJwskCQRshC8F1NazKRzyXatpJXafpJJ1Cydnmh2uzI6JQpCfkFpMgpypYVyVtAyOAQQj14BWsLhb0xotXbXxNh4wTlwCiZvN6XRF2AoZrRgzAxb3YMieEVyIhFZ5uxB/PW8jQTbn6eK/tOVlQspx4DBF81WD6rTLph03ZBlDy1pa1ahoN6tyffCWN3+zbLJQL0fFCvth6EMwIau7LtxzH3V5hnlXzj78926ZWvxgG/eeIlc0iQOxD86fljzRZc7K0kFqAgdqmCI0V8UBtFiVGW8Sgv/SzuIZnVIOxXNBQd9x0WXrQbkwJx4GUZk2AFOnAIGLbVIpmOtzdLduuY1k8AyJLbxYnPScuxCWThcgAyJCpRkk0FXI0phcE8i2qN83hsl/6EU5Ytqzm+fiOHhgDPMcMyUPtCENpO2gmUjpz/p3IaAFQ5oMYQwt3xp0nt+ywXtj0qFgiEn20Cq3cBRp3SNU8C+SIubH1lc7PEO0mVTywsasFGd6HIkIvRVaPlBJQNLuqs5erVSfmlpUSohhijduW9Qv0Jig1q4IzgP9KL1O0YioG+2LeQ470C4ar1AS9UoOfLBciCuFpVXVjgANf9yqMpJRHILpJAhaMHhtjENwUO8oEI1VNTzICBEqZ5pkeCrKtIGPCbzs33g/CSURJS5DuumyT+MrK3dFlGXSE1DDHck3QCprHtQwl45pnvHc9TGrlVAKQ+ySglwbHUNCBTZu6sc+rlAUHREIK6XDM79FImL7raJXeAqXqYI/4gVYI9GoKR2neENK4CegxsvIOkr1e9xbs7z6HqJyeb4wrpbzHOl6H50nyqIG1vffIlasZW160lZKWDyEaktbhVUNq6QoSJCXEFFPoTDUhqn6U04ClFVq5XnKd2KqHFuskzS3sKoWE96bkZoa2lCH8Na4FnuZAtTmAqk1wRBbkcC46Rwph2SKISS+dYM8Q3b/SMMrywJhUOFGg28PcAxgc/r2Odv7xISKWaU4DsIQ6cY1MZxiM9eYwCHkOBi+KBxaObvWUpCLCFmBg2pbG9ekDAXTVcE+ruhO/chkR3TrTbuThgOU+dxEMX1OAEvlc1BNgWMQHRgARqC4pdX0k2u83NsQ6qZxIDLIGw38edSqRtpXNYPLIVo3gQPhgYchMU5KpWB5QNCOevi8ZBDeOhgZlrpGDFUjhpcLn2BkQjVO/Czbt5JiRsT1KSJkFhmBUBCVYuFHMLBa7+fcuREyB161t3NnV8EIgaQg4YEltvMciuxB9GHx4YYIFF5ler23a2/MlDhoq55QSUlf9UQDW1JF4GOa9pM55Yq8Lq6a1cx7C+Vu17TuVZlP70CoEAxmNViGHybUcO/WsVhR6Yy8K4q6Gg1MGzMOl06dhVOOPQFDe3prjjHq7JKV/TFPl4Qy4h8IfevAG6qKOQ+S+mCQD/qHjwZgt5GINipmBEHOlHTkpd4Z6EYo38/7ybJQNFwuFoYi33rUjieDvImijWCx7tBuXP0JrXeKPoNep2grgC1rvR+QhQzIcnJm5ZRjBgVfC4csilPrzowSMAt2iVarzoljxuFXLrgW502ejq6sNfTavHcnfrxuJR5fuwILt6zH4YGBAqdW+5mCv/jZfh7afWdtehahXImOkpECh5C14RM8yEQ3JaqCZrKtkr65oZIXu5Q4ZKI9AVSRb1NHyIQSpgwIbUJmURnNlULilKEUkxJnuRkiE6vYIQR9iU7Rt1gDy6MDkhfijezkL34mFLC6m4E0V9TNOvYWHXmbjMtrith8K+sp9pZuBqpxk1H8ZqMy09fdjZtOOQufOPtSjBoylLJ0IDTx5r69eHz9Cjy6ZhleffN17Dt8yOOQKWgVUIPCIcKD2nypRXMDc+QmI8GOKLz0tqMkDxh93qIcRWQmL8lO/uJngsejihk1GJJlyjJmDtN6DKmDjGZIcYFUQgHqMWTK6HH4tUvejnMnTUcjbuJUCiFgw54deHbDa3hozTK8vGUDBkJTImRAZwphBawOvBn8nxqGqQZfBqfUHocs97cpnDpV6jpy5Qypv7Isf0crhOdCrbu9LIkZk5gABAY8RajKSnGGUKvrK+r74wD0dnXhvfPOwc+efTlG9A7BW0lv7NuDJ9atwMNrl+HVrZux/8hhAp8RnlBmOlNiK7ieidRLBPiyFD8sDyhP4vRmODCcxFNvbBPw1fMSggNtmmdZhuzkL3xajGA8AmkrZZnGGJJ5IJy8V2h5xCqx8IkRrQ68uVJMP+ZYfObi6zryCnXSQLOJLft24+mNq/Hga0uxfNuWlnI4UPxFkEZfK3HwZCeW1ypJikdWgGJ8oYYoq4BfAxuF15URxUb9fAwvqhCVbg2o7Sk4wY8CQoxJtVw3gx/oanThA6edi4+ffRlGR8YKRysFAJv27MTTG1bjkbXLseiNDTgyMOAFyvDF4dRhCOhvQ63ggVOMCtiKJp32WdBrwDsIGTJEGcy4tFSIKPHjCHUWPhlg6zCk1qC6jpUSZYQhJ409Hp+++G04d9J0bkn+DVMzNLHtwD48tnYFHl23HEvffB37jhyu8H4KkfSVwVaA3J8qpYDiWyr+rkXvCA9S+ZiSMPgGFVIJJc5mfeFXggWeCZjGIx4LMgbFGVIjnBrUrEFCqUW+p6sLPzH3HHzi7MswZugw/EenZgjYtGcnntm4Bo+sXYrFWzcpzyHQ64zmlqwRAcqyDL2NLozoHYLhPUPQ32xi1+EDODwwYCYGKkLYlGcmfOlsNq0sszhafDR4CaUQ8tdWiDyLpADFGFLpulPAx9xeJwM9yuCQxOmkscfjs5e8HedOno5OUggBj61djh+vXYmLpp6EsyeeiJFD+jpqo27auGcnvrbgx7hv9ZL2AlTcEFUOSiM8AYBj+obh4skzcenkk3DKuONVyNjfbGLdnu1Y+MYGPLR2OZZu34Jmex3DsIiO+1SdxBRzGqcS5trRRkWewQsA2azfaytEBFgWoxePO9Fy+ycxv+yAjZSxvGaAwSED+rp7cfOpZ+HW867sWJDf3L8Xf/3co7h7xUIcGWii0cgwbuhwnDNpOq6ePgennzAZo/uGeuv5FtLhgX586cn7cN/qVySmNmoCEyptV6whAoZ29+KdJ83DB089B+OGjqiE+vDAAF7csh5fXfQUVu3c6nlgvbMoc7AZHsWUoM7skzJ/LhpKh4TW25UKwV6wyASkEazhOZJa7tYukFYU67oTIV8G4MQx4/Drl1+P8yfP6GisEAA8s34V/uCJe7F+9/ZoPH7c8JE4a8KJuHrGqThv0nQM7emp3Ucqbdy9Ax/6/h3obzYTMXlV/K0zxw0dgd+48DqcM+HEjuHZd+Qw/nLB47j3tSV+pwFihslOM1sPXicCqQq5HcJ+jFExOZOd9Hu/HOpMnXlgLUAR4G1Z5p5WIFTh6todRIkPoK+nB++dew5+7oKrMbynF52m7736In7/8bvRbDaT8Ob5LMswckgfLpoyE1fPmIPTjp+MY/re2hjlfd/5K2zeu9vRW9NX4C7rtOUvp9uEkaPxB1fejKmjxg4anoHQxDcWP4N/fPV5v1XF8qiQfy5XGof42otQoaii11IKT7QC5m4XCLY3pxSd0+flT8DJa7lnqf1U7NLx+25cB7atgI5CkHz3ZZv40445Fv/PFTfgnLewrrB13x4MNJslFHqLlsuHELD70AHcu3Ix7lv1Co4bNhLnTDwRV047BWdNnIrhvX0dB1VDuq23URuWFAkdbcWGxpG9ffiti97xlpQBALqyBj4893xs2b8HD65dBvblQQs63X9UmGyZIW6wxLa/1H4t3W6x3yrTT5l36wbMRi7Tnt6M1kaRAJtvPMs3c7nNckWeKIXiW3szGgQMbgNg0BoeQrvJsqyn0YX3n3Yubj3/qqMz6I1uNrMb7IQgtGF/Y99u3LNiEe5ZuRjH9A3DBVNm4rITZ+GcCdPqw5ZvRhMCliketesJPmREgD56+oWYd9zEt04PAD2NBj41/1IseXMzNu3dpTdlajIpGgowC0mVGxpDW/qzmMURDZXth2LTY9aWCUmk1iZHkY98DtwtclqoAhCYWuW4ml2aQeUBqyjaU1gc1fZSJ2Q5sG6Hpt0lm7W8yfSxx+FzV9yIsydNO6qrzZ6CoIqd01MzpEWaHQf3454Vi3DfysUY0zcM50+ejitOnI3Lp82u2R9nRLnzVzw2O39njD4W75p1xlElwaghQ/HhuefjD555APknq1nSWNmdygSHdo1iN7AzvhpR6ynsBuw8Y8nXAi+fU2oVusOO3aFP7gMXo1npDfD0oxf7kY7oTDcL9rKoYz7I6coa+ND8C/G1n/gEzp18dLdeqL37Bc7Bwx9Uzmy7L583Q8D2A/tw74pX8Os/urNO75U8CPyNIt00+wz0dnUdRZq00sWTZmDSyNFlz5GvCSXZPLztsrgowctIyAXKi1KEDlVf/nTT7xHcOFZE8to/+zos1ss9RbDexsaH7fAMGdXoEmENcwgBM8eNx29d+W6cPXlaR8xshoDDA/3o607MCAlKq5DQ0KxFERLPSk/X5l5W4JhmkGWl5IEOzgSoxKqOGjIEF0+eWdED8Pj6FfjWqy9gxfY3MKK3D5dPnYVb5p2fnBQY3tOLiybOwLeXvajaUjJET+HjI0QdbZTRRx7x5E3p9uGiiyhPlMDlRS2ZauSZqAzkGfoppD39zud9q3mMa8ojWs0OI7Zpxtjx+PJNH+lYGbbv34vfffhf8fT61R29VwEyfxhIA4PoNHrsindHKk0edQyOHTYy2foPVy7C7/74HryydRMODwxg+4F9+N7yBfjNx/4Vuw4dSL47f/xkA1QcVhpUmAcVsQI9tZETxucD4oaoPIbGnUlkAHFWWnfgeGERJP1zVD0y9hSGAt52/tYLrsKEkWPQSXp49av46Hdux/eXvIAjA/2V9dlBBjofjNxbV+4Dmo6OuCkaykyeMcKf+zR99LjkzNbuQwdx+4If43BBixK2JW9uxl0rFyXBmz5mnD8yJhC5AjsLN3JwAcPR8MDSu+RBMMXk2M8i5MplNOgxBDuc2ALPT76QH8mLvEEwdrxKgYDIe89gY/ayziXTZqFu2rpvDz7/4Pfxq/d8G+t3ba9pqNsQWatUhrC6zOCkyMB420myAqSp42L0/IiYqnWQ5du3YMfBfQT+1q9nNq1Jvj+mvd2DKTq7L86SQZFCRCQuAiGelx7GYPKiBd5nO3Xz2M6+wMb/fvZJ59vxH/JQ0EWVZWX5jou/gfzbXcDHgwEBI3qrpy5DCHh87XL84WP3YN3ObXqaucNkZzqK+DaKVmjj4KP+OiEhZYqetInQt6xSNcHQ32zqFwxP+5sDyfcbWSP5XI1VrTwIHKykKRnK67jvtIOYZi5fVVOyeqEIcvGu1X6rrLvImEFqCXwo5obVB9tZKQwSQQ28pW+7juwukDpijtnymiloVXpz3x58+ekH8b1XXjCjk3ptFFYqNpng5vky8Sc4HKSi1030NBLXbXzyY9ehg8n2Z40dj2E9veVHSyETEVrA6cdNSr6/+9BBpUh2OlNQRhE1OMPEcEjRKZD2Sx64dQlpSdRUf+tJVK35XQ4eDuaANIh2DMHzOvyoYTJrHJOZp1+751u4c/HzaNqBTqirEtZ1w7tujS2sq7a1bXv1YCAOn56PC/MDWLtrW7LtsUOH4QNzzhGepHx54ojRuHn2/OT7a3en2ydE81jZ4VDxI3LquI3gk+GT7dUQqN1LcVBZnbsR+GHF8sx90xVTAjOmsMRX8V+BkwvWO5KlnQf3i7YT8W0ySRzKMQUB3DFOPY+8UxuEyGyf4glZO1qzcxt25HQgKUOGn553Pn72zEsxbuhwAEBXluHcE07EF6+4CScMH5UE7eU3NlI+sbO4qo/mF3IlcCgeiTqGOLoO44sAJ5jnABlDuHWJzDu0nIBFq3bvE/KYuf0T0OGGDLHYEMaMQ0rXR4LbUMPGB9+2dt+h1vuB9O/iWRkCZiLfxifLaVCAMhgcDNFsCNuuU6wQh5ZReG7TGrxtxqnRLrobDXzw1HPxntlnYvuBfRja3YtRQ/oqxx8HB/rxxMZVHie5HccGRnZMYcMnWyZCwILmBQ8gDkvgchUKvre3cMDA14a3dbZrSiCYRltL2+6AhU91uKxmnpwZNfbWuNU6C1vUK4Q6bybQCXUqiTJjpTQ5O4ydELO0vp0g6n9v2QIMyMFzJA3p6saEEaMxpm9ordX+l15fh9U73vR8sdFF8BLig5Y4DkiLqXuDhVSRTNGIONu1Anh35mc9V22oVKAcD59Ucw74cttHZ0JE76eoLYgShzKeVdPMAUaxZbTg2d7JGCh/p84CqlIwE38v2rIBD65Z2hHdqtKBI0fw1ZefRDP/xNTpKA8gYZ6V9DV1xXpYMBXL8KnEkwl9oA1D8SCnmR9UK1pqgN3MDuWpPQae6b0VEy1AFGYFfISgnaaQK3qtqnxsYJSWK7Eg1lvFwem0P5xY8UVYnwDgL194FGt21RgA10jNEPD1RU9h5Y6tYGJLwa86IDqvQxb0WBdyF4ZGV2iLEUi2dpT/aeiGiNhKQaTLzUzLuZBpDWZCFXlOgI/2D/5alCG1U33vYhfvHE7RfHX3lLKR8C0QGm/dtwe3PXoXtu3fO0g6lM39y/KF+M6yF4tdA6Xn1MZrUNchAES9ItdjsVAoq2grgKpvw7ruqL0USmGtKreyLL71M1I6rIgLDBPHQYt2CJ0rho6adPgUCZfki4E0FMjTwcJfd/YmAFix/Q388v3fxvLtWwZFv8MD/bhjwRP48xcfQX+zSYXUMo17AVs9cWy9CbFLIovwSXiFxCQUotIUYusQJu7jVskywHsKf4sO7czAGKLPleJ0ZFwHezWW7YMhEStzxKBrL3VxaFXs0NIGV1LA+9rON/Hp+7+Nf1z8jD5BMJGaIWDZ9i34jUe+j79f/Cz6B5q837rww8sMC/fqGkMbgTC+Me8t63XnQtb6Si0U06VyG3befNXqMP/yzrwZWlNpQHQmttWbms4MRaUgy/w+9Ur47Lbxei8K+GBwEjFsuW1Z5M1+jpKsJvitBwbdVdCik9xFgDgPClIG7Dx4AF9+/lH8y/KX8ZHTL8Q7T5oX7XvXwQP4g6fvx9ObXsOR9jYO/4lxyaA2tpJhRQguv5Mv9stVfhEZ+aBI8IR+zJZHUKmPjET94ou5ch85zPwsihbpcrxjSGhPq+v5YzYDrwnQQhDBA99qv9QehVDd+DvHizDg7178MR5Ysdi/166zetsbvj0hZKcfPwUfmn9hiV/RdOvHlr278cdP3qeIW6yr1FmDKMWJCpWv2l4xSe0dKr4dyLBx9w48tWF1UiF2HNqPx9evKNsQ76NkjeCnUHlmXNV+tDZOVq6yQoq0UhAelPkWIFkE55hhyuWs2yLDgK3DMr95ywuQ3ewnN064uzbIoMgsZykevJW0cPM6vPy6b8ldOE8YAmQYP2IUrj1pbrT91du34o+iVqkmhSsUn30wbzdh5p/YSoJquqb7b/GFwQ/PkzwcjHykwyKOyo/V5GKj4AHz1ppw5SJxi69xHIortZyxzV+OEN+GGxlZbnbjmMp1ADuw1vFwiFTtNOUWya29VL5oB31ZRyCw/Vx1B9XBVQueBmzGz73SwfVeJultelZmLDwauNTwsSbRot1kpM1C3AzhdAjrm3ffVDOEA3vTwc1WtANVgiC60KFA+YOSMviyusx0K6fk3UCUxO3cdzTpTCvpzHX9tzXDidDxK4N9Z2lKRHuvWP0lLdqM4kFws02xReEUEd06l+CL57EnhjRUDTdlyLQeQgCswFRt3rIIWYHXmuCAt9s6YjM1qZT3T7uyOLmXGXQJTxaHguRrjoHUWx4SOHmp8MQW9NowcBzYDlPWWV4s4WPhGlPsJCyFTPFdsdpdBGqn83wjqkkQT4IpY1JjS1JaLJSibC/Tebs6KVuKuOU6yX5KSJxOqUBBEzTK9w4Fqo6VZa8qgTKWNqkUgXnw0scMJrHFZDulybxQUC8IUxfSMlSuf0kF49P6mcoLRWFKIL1JMCGTUoBIbKZbE7DU2jEaV7tU+BFFppNEYyT5qGKrO+001BYpHc9KV11XqUMiJ0JCotiuXg360t6jFVmIogVeTF3GsSD7u9iRNlEitNtIUtTIof3VkMCXWi1cS0FEbRKLEKqdMgI8G1cwjfaew38kr9+xrro6MRyse88I05LfhNSP2jqqF32XrO66cM/OzrFBqfF8dZWSWnwbHhFPkVvz4mFwrBStajhaPCFyVWbITgkhtSasYXIl4e3WjZjP7nSmRFidRhcgv3nOmzEYlMP76HyyX+hpP/Kf3pqmO0stnNh0ID/piOOgzpGs2y9ZVwk11yF+Yu452HlgX/5ytF6dU81Zneljjq0BfylL5XoL+8bZv+eWIgP8/Kxcx2g3GP/Q1wianJItuqwQpsw3181W8lx9pRcZaawUEDq/DBt+sYWjTNOILmO3CRvQyefIKBWZ6KrqMwfPz+mr1eEC54jyRPkn6NshDu+be04nCP8bJS+E0Xn/dlWrAO2nkHKWV8hMmfrmKrIiL+sx++3FlS8S5+wpB9XUzQnwIuGT8UgloTredxN0/MfCKVG9kWWYP2kq/uzmWyrZeNu178UVM+egt9Fd4qRctT+zx/bH4B/a3YsbTpmPn7/g6koYBGfr1f3PmCrGPIEwz44pyqeaB8WKdidrQ8XEgJYjBaGdYSxywQlvQLF1o9Tq+GoqvIlVHqhc4WahTY6gXYlkGmzW9NXqZCPLcMr4ifjkhVfh8plz0kdQttOZk07En777w3hx4xp89blH8dTalfrYFcW0MnySdkQyqK+nB9ecNBcfPvNinHLchBphSqA4liu//zWSdHJFkGu9N0yMEYoAAKaY1YbLOKdUV4bgGolGTeKHG0O4fVWm6VJmvJIU36uKI8cLoYqEI6Fwu5Hl+Lz/DDjthCn4mQuvxhUz56Cnw0N7uxoNnDtlBs6ePB0LNq3FV555uFQMRSCpFIDcN9TX3YNrZs3Dx865FLPGHV+776awUvbY+k43KP5HJYcDDc0jhlXSVuBM6e3KQnvMEpeh2GCzPIKm/V8hl7nISbPXeomMIdoDvUwcSZ/3KZjoBt6tVsuBNjJqCeIIWYfUQqCr0cDpE6fgExdchUunzyYXh3SWGlmGsyZNw5/ddAte3rwOX3nmETyzbhUOt3dw5myX+7mG9fbiyplz8PFzL8eMseM7PlV8856dxaDBWqX/KlHU63t3aRyEEGp545MHKZmhMhSZ0LH3O6gxRRsIu/epiC8ie6EKJQbk/RDQloqNNk2KzB/QelXhUyCjzHkTpuAT51+Jq0+ei96ubhzN1N3owlmTpuMvbj4Rz294DV97/nE8/toyVacra+Cdp5yBW866GLPHTxyUIW+GgLuXvVwwqEWwSNz5nzQ1Q8B9q/JLH9lkRzQG0YlMbPjhNQmhEpTyEyA2xoLrMLSVNCM4dAubmJgtlZ4j19428EqjIaZgza5ZsmWZbR3PGg3Mn3QifuaCq3DVrLn/theeoHUE43lTZuLcKTPx0sY1uOO5R/HSprW4cuap+Pi5l2HG2PGDbnug2cTfL3hSby23s4IF1/5zpv5mE/+0+Fk8vGZZCar15lkpQzB2zcpQfiKg8hxtuhQD60KuytukgpQjtxVadFp4CukJ2CcJflZTDKoFXxJ90UQHNeIhuxuBNNjVaODU4yfj5y+5FpfMmF1rsMzBifeRShmAsyZNw+kTpuDNfXsxfsSoQStjf7OJRa+vxx3PP4an1q1sHf2SM8SEGnV7eGr9Kuw7fCiNADqYBs7kT8a5gG379+Lx9Sux4PX1xcXtcq0oCr8daBMZSnuAxKgaEaUAqjsgfdhq6nuIMhaMua9QajTyeoYyak1Cew6FkPAWw3uH4Levew/eNffsjgfLMm3ctQN/9/wT2HVwPz523mWYddyEjoOR7kYXThC34XSSmiFgweZ1uOO5R/HUupXFQFQSsZyNi3tmlv7ox/fhtR1bFV9KEpYtZJl+XvwZxD3gbp1Fhd6hjU/bKwB+nUWDpmfVisVRe0efntjUNJNtkSvWDJ7qC85CuItGkbszqb/dpfsuJ4RDflGvcWvxmYNMj4vMoNrQSqWurIHfftt78N7Tz6shFjyt2/Em/uHFJ/HdRc9hT/tQ33uXLcQ1J5+Gj517GeaMn9ixx+gk9TebWLBpLb76/GN4dsNqHBkoT8qOXhYpCFP70OXktHh6Nod/uhkXsryxAH/ItRqUOqEKZXiDrICluHlJ4hC5aUniEDqYbSrwTN1x58YxItyDDZmiPiwynWbVObFO4WeKW+SaNHosbpx3Vi2BsOn13bvwty88hjtffg47D+xXFunAkSP4wZIX8eCKxbh21jz8zAVXYeaxxx/V4WsIAS9tXouvPf84nly7olAEO1lgB318Lb/j3qM8ccfAc4a4afIcXntVgP/yrvUzTctBDrSrwjG/MAHUUGzdmJ+izbPdsoTPzxoGwNsiVUe5QhJOGQ2fPf6EjmeQNuzajr97/nF8a8HTOHDksCGQwDUA+w8fxr8ueRF3L12It59yOj567mU4dfykt+QxmiHghQ2v4esvtGem7Kebqe+DCyuaJeXEpfy9wnsLHtgY3XprcxOqZmzmBooZ2VqjPUMZLhUD4czuVTJ1wOC1SiznokWZnG7NcZD6lnVAxxwfMkWL4uJ25FNRROCDpp2Gr1QApoDyI3S1mU7U7q45ZggI2Lx7J77+7GP418UvYPuBvYLUoSCgHrjmDG9d+PGDJS/hoRVLcMVJc/Cz51+FWccdX3nRh0z9zQG8vHkDvvLsw3h2/ery+qk64YdDyJ4kUYOLBSViM4JkAAqrFP5ebSnUUXCYs5FTSoUCtNpWVdV4ogyF+IkqzsQSw2GUJDDjq+GlGzddOBVMyGSVgCoJ4LTcLroUTWVKKXQ8WyJUlTbv3olvPPco7lz4HHaJI93diddOQIQItPP7jxzC3a8uxEMrluCak+fiE+ddidnjJyT7DyHgpU1rcfuzj+DJtSvR3xwo/aeYQUsOj6kFE7t86yTj/TKjTS0hE/SXo2o62WHHedpTME/nDzIou4grTdtTGO/kccjcwDv/Y+EtlBilYkPQ0o05IlG9Bbvbj+qtPxKDDuPqnFIoGZFKQC5izxlQYR3X79yGd93+h9jbHixXLtnTUxi8oh/sP4wfLFmAB5Yvxl+856O4eNrJURj+ccFT+INHfoiB5kBUqOoIED+3qmRmVSrR1QPV5NVSiAlQm6uOJ1ASU6kUdAXensVVlpUiVvJE4+CnCBwrYSKOFA/sOIl9fiA8XXcN26aJa+NVi4aNB9VTN8SvFIVD/UcKZeAMYZ7CKgkDNWu331/MTMXSrgP7S6+gIzFvGSsEim99r0F3xKvT/WckhOI8sKNkEnZVKnYZE/U0utDX04MxfcOQAdhz+CD2HTmsj7wkfFIhX4gJvGwhPpKtyPpQSeDUXWqvHfS1OnWb0QpJYFaKKIWZxZDTCnXsYmtHcLXrLhRbWV05MRAP/+omSvzUzE0Oi12RtzjUcxAlBCTUcPSFEDJ1X5wGm1KFjIkYLLnM9DS6cOaEqXjbjFNx+vGTMXHkmGJRM4SArfv34pWtm/DQmqV4ZtNr2H/kiIs2IoApJWazUcVPleezZ5W7ZIsxhIj3C72Jhh/Wy1jXZ5Wi5FtsYF1LFIxQ+UUXWF0FTCyaAy1CW1G5CgDZVEnwkmElAwqhqjH7VHu2K2jO24FqaEu8EjIl8ICeAQTcvL/CoR2Dm810BQ/az+afMAU/d84VmHPsBHQ3/ARFlmUYP3wkxg+fjctPPBnrd+/AVxc8gUfXrRAr+Na4lvBmRCkg4RVjiEx4OjZWpTIkngP5DULtl52lyr2FyUcq0nyQeVmtxvihWkjIeTyRb54LCylPWajbTQoH2X7QdeqcMVT/3Ivgfge45nUdx6oQbVbJgaWpI3tAd9bALadfiD++7gM4bfwkqgw2NbIMJ44ei/912Y34tYuuw7Ce3tTZErx7woayLJR4y0esDVlHdNJgBAiuschZDSFFP8uQQIorqEEJxOD1QuaV2MLqiVejd/9LKLZSCt89xyEQnBK9B0tP01GI8CT3IPojf00D1jTDqbvRwKcvehs+efZlGDKIXciNLMM7Z87D7191M4b3DjFUlUfZG5mxBke848skDlZJggtQ8iNuGkUFQ0F2CLl1EFHemAelzDArW4OCVXWini0knquqlR0oprlmQ+23B50szSQzQp2XDBwRHlYpRQbgg6edj5tmz3/L22HOPGEqPnP+Nejt6uL6HQUsUFFKk5nIODFEjbyuO/VMWT14IROVCu2V4UjEM/h8dbJnDkUvDIngXzLUHnFTSUXViPN+EXoVFinilg2BOkjKrpvSvElhZW2/igcSB5/nJwQGzBs/CR8/85Kjtjfs2ulz8I6Z85ycSRy46Yl7hYLfQZeFwNrRSDbMG256ykuWIL4xr/ZXWimCxKky1apnPVvgVtHjUB8CHrsK5FLxbIJBtXonoYR8YGcmNf1DouGIfTBC1cga+OQ5lw96az5LWZbhY2dciNFD+rh3KkBghjRIUVKhURR1ZkgljpX3f1ljR8ONOGPd2LkDJXBtwR8axuH1kq/hT8RQdeAIRuAj1GfxLDtZop5iJOI8pYRI8ER6WQFvIhyRTZ02fhLOOH5KR7Sqk8YNG4lrps+B4Rw4nyroy5TEKkqC3N2y8WJyMrHwQvOKK/nUl2RY5laU1UEFHabq1VOQJXp/uUYb0BodQs3pa4K1fgSBnvumXKNe0LCTsOPOD/3CoGj1753W7tqGO156Ak9vWI3+ZhPzT5iCj5xxEc44fnL0nQzA1dPn4F+WLUR/aBZCy6f1Uco3WVxMTivL1dOC/XoKtlFkYvNbsk+ijRFjFUkqpqj1RhvaGlV8HRfeOE/BcPJp+tjjMGboMIeDm7WKDGLYYcT/HdPandvwK/d+Cw+sWoI9hw7iwJHDeHrDavzaA9/B85vWJt89eex4jOgdgg6EyTto9k7wv2MRDxC7dLHojF8QEkyrNr7N43M1nlP5oN+rxtvFXtXH7pcdFqXOStfr/51z5uN7H/1l3HL2pRg5ZCihdzo+L6hih2RHYy3mP1G646UnsGnPTk2CELD78AF8+fmHWwtxkdTX3YOJI0crYdIhuTRCofyXByuUmWbMZsd08GG4Pv3bClnbL0k3zxce7Il7BgEVM4vG6wpDEIJnhahikFSeDZWDxbxhdTph5Bj8+pU34Psf+xV85JzLcMzQ4QVgAluV957Bxuz/vbzHU+tXtXAi47qlb76OHWKnMkvH9A2PGlelKIamWiQYT+p760ZsQFcugvBwyrupuLktrWjVgCidQuxXhYALe0MxOHDkSK3+syzDhLZifPOnP4WPnXs5hvX0GpCIEtgVbaYU/w1Sf7P8dJZ57/6EhwCQHFM5CUyGq+B5GSaz6CIEMYawDx0A1tf4Kc7iT9p7qenOeqJgXZ9pz1PIh08EhxyD59uWrZM0Zcw4/OoV1+MHH/8sPnrOpRgzdJizUspSEVf93y2decJUlZf0njp6LMYNG558v/WtS3yrkJ3qj3uKkvghSHqT6Kb2GAJcMVwd2Y0btOhf5I36iY2eqjwD2dfk2gRw37KXsWDjms5hAnDCyNH41Suuxz9/+Bdxy9mXYHTfMIdxAsD/NuESAHz0zIsxqrfPlfc2uvA/zrwEPY3415FHmgOt8Yc1lBX0Sc8FBf/IGWL9q1E2HFC1GS1fDY5psIMw6DI20K6TrNYzOgWJg4E/eTNQCNh98AD+53e/gfuXvZwc+MVS67CEY/AbV95YKMbwIX0lvEG46Qod/a+cTj9+Mr5wzXsw59jy+J8po47B5y69Hm+bcWry3dU73sSuQwfahAmIrR2VkxN2oA2Sb5dF8qXDKSt0s6M8/Acocu9+u1Oz9Vp9pCO+oipmAcTaRetnaH8zUMeSwn/DArSXN9qZ1LoEub8ZJbRAAN7Yuwu/+L2/xbwTpuCTF12Fy2bMwZDuzjeuTRp9DH79yhvx0XMuxW/f9x08uaZ92XkbB/o9RY1LU37prr/H+l3bBYPKd+ySUIGXf+B/ZrYdDUvxRUkGzB0/Eb952Q3oSuxsPWfiNNz+ro9gx8H96G82ceyw4ehuVH83/9ja5e1v1P3ZrPI7Hfmti/quRZ0IaNaF8mrRre7lWlF3q9+qYztIEf10TtSKf1pn6qdTX3cPRgzpK7+aI1+BtYoT/bGv1AB3xlATAS9vXodf/N7fYv7Eqfj4+VfiipPm1GKoTBmAUUOG4c19ex1dCuKjZFAdOqzbuQ2rt2/1D8yRMTkNpC74w8ZEiaiY6UJXtnH3Dnxg3nmYfewJSVi7Gg0cO2xEbXrtPXwQd69cpCVTJGakbQrsjVI4ILTBFefvhGBCJvHIz5FXzvuDeCft+uSelMLrVaQpx4zD/Z/6TXz8wisxuj1wje97N6ER3QDoB9YW3oFmEy9uWINP3fk1/NTf/zkeWLZIHT5WJ92//GUse2NzZINaDn+Hs2x0m0dyOqXoT23rEKGv3RCo5/lllBdwqL8ff/XcI2o26Wikf1r8HLbs3S14Ag0v7LQ+Cnj1A7shUIZQLNbWkx8ZhEJkug3BOM8U3aSPyf2wuWovUTpNGDUGv/m2m/HDW38d/+OCKzC2bX2ic8qKlrpCRlwfwbIoW7hxHX7p+3+LD/3DX+BHKxbjYH/1FO3+w4fwtecekyQpYXGDxrc4kggVhsnoBxtM2hFsfJdpwFPrVuG7S158azCL9MLmtfjWK88Rw2RxEL5UKAEbfMcWgeP7z8rihuqTiXLV5jMmUGRhhlsy1La8WdY65e+3r3svvveJz+LjF16F4WapPx9Y+66FIDJcGLzCsw00m1i4aS1+8bvfwEf/6a/w4IrFGEjQ5P7li7By2xaCsyCY8b6VSTE8pcJlm35avMq7MJA0vANhAH/2zIN4cv3Kapgr0vpd2/G/H72rdYgzBcVfl1VBGpWrWgQWPqSo0zX8ovm32Q/K9aBMlFccmBu7qDA16BtoDuBD512aHKjZNHroMFw2cw7ec8Z5yLIGVr+5BQePHNF92MEiw4nE3zpvTmZAwOt7duLupS/j8VWvYszQ4ZhyzDgF+6GBI/jVu/4JOw7s9zF5xmHJAPz8Rdckcf7WwmewI7+FtCMe2DGEpYspMzCrfBv+/uYAHluzHOOGjcCscccP6tuIFzatxa/96E5s3b8njZMd8wigtFzZcZHFweKjGFK00DX8ojNvyyIPqxSiHvCJQV0G7Dl0EFOPORZzJ3S+rXjEkD5cOvMUvH3OfHQ3Gli1bQsO9feLbuyMCT9JQilPlUC10xt7d+P+5Yvw9NqVGDN0OCaPGYuuRgM/WPIS7lz0LMoP/g2XFAhl5lMVCvHNhU9j+/591QpQhUOFAFmYGQ5Z1lo3eGrdSmzeuwunHDsBw3uH1Do2Ys/hg/jGS0/iT57+EXa2t3LUO3Xcw8tm06yS5PCaxqNGsmv4RWfeptuIT8MxxWHAOwGKzGy0vvkPeOq1ZRg/cjROHj+xI0+RpzFDh+Gyk+bgxnlno5FlLY/R30/hrSdAXqmZlWqGgNd378Q9SxfiqTUrMaS7G3c8+wi2798rX6ycvUFWTyFyD1EHB2aoFASp2Sabjyh2MwQse3MLfrj8ZWzZuwvDe/swpm+Ym5U70hzAim1v4M4lL+BLT9yDJ9atwBEyMLdT5UkeUKUQJTWUgr2fjf/Mx4KpQ6cvk1aUlTmrZBmi811dDcybMBW/cMU7cNnMOejrGeSFKW0hvf3ph/Hdhc9i18H9kdCgQ28XERjZSqPRKBYvK5XAkPmVz34piddN3/gTrNr2hjZqgwhhq4UsEo4kvV3r/+6uLozsHYLJo45pTXxkwK6DB7Bx9w7sPnTQKYEL1WvwhN1XwZQiTe+Mvw8gG/+ZjwZJrEA7IApB5v3rAK8ZYL1RS6jOmjwdt156La6ZfVpHhxHb9OKGNfj5b9+BN/bu8t4uEvfWsVL6Z8Kj+sETDZcy/NsoBC3LOghpGY5VQqbwDobHgwjLqyKQSJiuldjSSZQZnjTUQNzO1amZEPEzn4FJTY4ENv9NKpmZkGaziefXrcIn/uGvcdPf/B/8YPGLOFRjqpOlsyZPw29f9x56NRabPeOnAVpwO10HsOsecfQ7SeXsmVl7qXwx8Y2LwZtN0VaeqFKgFWITRzpTNeNGyOvkipKRr6tkqmEzvYtANvcFzqc6uzMDnb5kxPZY+IUXYOHGtfiFf/4qfvJrf4L7Xl04KMW4ZvZpGNk3lK5JMPjZrt7o9ncDdHSOPDHnb56m4TOLeZRP7JttYnhKMPXko8OJwRuZwqyY24RdUGVT/XTqPHKiildB26db9OEsFb8bOY2jy2lmNx5b0a7+8L9q4cgzLH9toNnEi+tewye/+Td4/x1/jHtfXdjRqvGQ7m4cN2xk2WzsI3/rAVMnZNBFIW7uvZUix6vUMuxMaF0nvDlq5IwnC0SopFJE1zGIgAfLYBj2srUijq+p5bLMCEU9UwKHvLtGxCf5cEnhGCqZyLXcKBdhkupDLp2EgAUb1+DnvvkV3PSV/4O7X3mpfXtQdcrPIk3ShQpz1Ld5BgRAhR9W0Y2JY1sM6qYiZPAG0MGuTrsL3ooG2r7GkXk7amWjouTDE+fJCDDshEP/nYvnSWbyxEdSHMReJh9LaSeYwJYBL5GklNYQaQFl7ZSAN0MTizetw6e+fQd+6ut/inuWLEDtxPpXfVRpOW2kLAuMTh4H0n19+COGMxeN5FZ32mmAVrBo8OM+5SybY4pvLVCEnAYS9u08WL0YaYIxXHUYIVpo2OVtFluVnZWKU7pHA7x5v6PDfUNZhyqJgK8Zmnhx/Wu49ZtfQVWyVkpBIuDL10XUu2RcwYy79xz8I3njQjpSCoaDNUzlVuk4DvzDqUw0WaiX40EaXKkkunbxNpERF+6ZuQ169pbxfM4zhCAfEfitUrcS3fAfCphCCWFsGdICD3LHZvC3uqipMrvvPRMtqTzpsFayWprp45XafSg+ZqSJTDWhGWDv2CDtS0hk83WU4ifnX4Ad+8XWDUcGtn4QqZMBzWbA5j078fT6Vdi6b0+LvnJtSNBEXy9grz4A2B0h5ax8LriZvwQFaH9Ho2nktutLIiWuOW4dYpy6OCfkvQNB0ioUOHTrdgXw7cqKcRIZCzx0WVSJpNSRD3eUhcuvYQqEDgUVayYqxPJhSWyq1KosiFckwf3VUrkI2Hytz0VE+uD8C+tX7iC9uW8vPv/g9/D4muWIWQJ/wFtW8oHiYJWCMUB3JenLDBM1JKJSSgnYVV5l9aCyDe664+MF5fpUTV2HhlOmZTWdJry/DbLk8xiEyRTKvyx8Ml61JFTq+w/BSPuObY+FWOWDRJD975COHT4CX3rHB3DdyaeV4V7wgNuQkJLZk4wu28TCJzrQdn348AkupLVT+1Zw4jQ35zJRyCN50g99R8eu3GkYoVLIWoboeLx+DO7jbY8DURJbPbJwFOKNwi+GGePwH6cPAIBhPb34navejWtmnlpeuoSEUkgclIC5wUFRp0qUdNPWyNjHFYpiWV3IkB6bsnFeww2aiIYL1IwVD473bNiSXKdgU7iBzRP4JRzm4KM0pgzxSuIWv3KrRbydznsrxDCwDHir3wcdrTS8dwh+920/gWtOmutpFjWw3MjEow1jzOQPp3+SQ3UPhLYpxH9G8g3tcUomBYuwtBwufDIIRYRcZ729SZ7zZAsjQhclC8HJhXsRHHywV8NTEFcuKJiwvP9xaWhPD2675mZcN2ue92wCH8oOYljjM5j5i0HT1rE3TvP4HSEsfBLd2gVOaRqDWJiLL8frX5kpYpaWCVBlYmMMGOCZ0NVXieiTOvDWCZ9iYwxjbzoD/d85De8dgtuuuRlXzJhTAKoNPotTrQyFSJm1lXIQXR3SmgbbWW+YvINijXJGNESpr2CsqN7IFewf9QKzsnXm+P1qKkeGufNoMiFKCSvzdtpVu1DJhQc+BHQMCZH4O4rjf2wa2tOLL173Plw36zSBk4Ax81FTQbcgKkWUIrfcSRkKnieKZoYHpoCvcnswTKPqWt4AfT5QKDE3U2fl7Jl66FLrqa7DrqL1ZWbiM7JOUcwpv9XEUFXUzMRMXotTyc8mQyjPrYqWpWln049fW469hxMXzFfM4eZPu7u6cP6Ume3v0eNpaE8Pfufqd2MgNPGjVa8AAejuamBU31BMHT2uOLpzx4F92LBrB/YcPlic3dqabq3gjOGjkzO/wKV4ULXWFeu01UwW5Xm3nIZ1C2Z5qV14UesUbVXODyZDgF2csusStS4yZ+fztCe2y2uM6wtVWVPAj5xxBF55iJXAUcFrcMpii0aGIQj5V13lHHlV+v2H78KqbVtyqMsH5iMdtfyjPsIqn1990lx88e3vw9D8oOZIGt47BL977XsxtKcXY4YOw7Uz5+KU8RPQa24ePdh/BMu2bsZ9Kxbj3hWLsPPgAbN45xfzirJMGE1LZmGjB2NYQ1u45dlbeokitLttr3UB6C70rYBTKkCAbEkJlRMieAWwCPlrfRxC6jJ24rD0C6i5OBcMsS0mBF6hxII0lfBX3WwEl6/v45hQMQJZeEtD1XrnwZWv4HP3Ar973U+0LymJp9ZA+yY0skYU9b7uHpwxYSpOnzAVHzv7UvzNc4/grqULcLjYlSxgC4YH1lMongDyFiAwI2QWgOltUtDG1h5Q13b5CBBjiNziq5F3coBjh6I2HtdlUQ4nVnLcYp6IxzsZQwSKEwskqwZ1diTgO6++s09Fy28xBQNy4PCS8eOPVr6C2x74LvbX2DHclVAGmTIAxw0fic9dfgNuu+omjBwyhO5rsvDxMUbsPcIDOtsEX8+QiUGUWJiz/ZfAx2WkHKiK8/oEAGwgS7pk6wAG0AyDESiixITECl5boc5uTLKZjh3Fn8VozomCAipHc6IUeRlZdc7L7lu+CL9x9zdrb6Ovm7Isw9tPPg1/9M4PtjxQIX0CfiJXhA0aB92M7NE1kEVobukZVL79gVA5S2AXjspH0spaqxpTJKblTN8rVx7bkOld+R1aWUlEpWNWoDSgUilitp3f0ZcGQSrFYFxFeleBLSY4tIseXr0Uv3XfneXZuUcxnT1xGj57ydvR3WjAczOGE5EFg7DfehNkA+CtICZ8CoBGiL3HVbHIByPwbkXbio5FqMYcvgfeh091U7ANqdeJlRUwsu93/b4bT6o6X30l9+5b9JNWlUyLl6hp4CUPAnD/ikX4nfu/e9Q9BQDccMp8XNle03AL+jZcLYyroL8yZMS3B91C5QIwXSsqu2hot6G6cuZE7y0nsVOE/4H0XACfCD9q3eFcSylK7xcXqqB40EqZFiCDI7VcTubNZjm6wt2BYrPww/DA2UnGAEAJ1QMrF+P3HroLzUHcj5FKjSzDreddgWE9PQUVLfxMsR3ekgBKCRhPLM0qlEKMVRuuhShvaLCQ2M3IyjxD6Fd1KfkI9Swq0k0kcXRWtZ2yLCvuSY41WPmVIBhDBoMEIGdu7LOQIqs1TO0fo4cORVbjoLgjAwPYtHsn3ti7u/LeOACYOuZYXDR1VhLd+CbW4MqjxjjEe6g+uKDVQHfZnrkUpZgRI4thIfadRrtiaE/lZkEzDm6GTcfQmQ5PcnjqzfHHU2FVI98nsA9cEFBccHL8iNG4cMZsvPPUM/HYylfxD88/Dn0puCd+hkzRtHJKthqLkv5wE6yGB7Isp6eE10Id0NPVjbfNmpecTQoh4IfLFuKvn34I63ZtR5ZlOHX8RPzSxdfh/Ckzou81sgzXnnQqHly1BMHJkOCJxDXIadpWPpBqDKfcc8eOLpUNFDLefrFcYcnMY0FHAOrLtQKh4oEUKsquQjGKm+YTN8/HmNFqP1P5OopxTH7Zn5CD3PjYr7wAoNEAjhsxGhdNn4Ub5p2Ns6fMwJihw5BlGcYNH4F/eP4J1RhjAFtyozjYFe047xTQxU/DA0sOJXiW5gFFWyOH9OGU8ROTIPxw6UJ8/sHvt2/6acH/ypaN+NW7v4k/vfGnMX/i1Oi7px8/Bd2NLhwZ6If88k5/tdbKKMOkBL4FPJOZok4oZcLuKpBeQh08IcSuO/qVmmI3W1Qpa1i+sUUV1xb08nv+XrCeoXLhpTre+PIHPoE//NFd+NaLT7aFkFulMUNH4KqT5+K6U+fj/BNPKhVJpLknTMaJY4/F2u1b4VbgC0WXQlvhCUL56WYqFf4hn6ttS5LzUMwN24fyUZupU8eMw5Cu+BViRwYG8FfPPFScjSVx2nVoP25/7hH8+btvib4/fsQoDOvpwa62MilJiTr8UonrbOsoUY+GMKJIR0T5tppu3xggvz3NP7sLOVTMyqJ8x3vjVseq/aKptpVCFkVo8PtWBDNGjsaXbvoQrjv1DPzve76D17a9UdD4hFHH4IJps3D93DNx6Ulz0NfTm7TYQ7p7cM3s03D7Uw+12wig36ZKOlWuYHc2qNZmBMqN609utefjq/StRscMHZbsd+v+PVi3cxvHIQAvbFybfD/LMowaMhQ7Dx5w8Cl01E4JT6LiGFWkPAWcnGZVYXZ7TFHcMee2FETU1obijMTWkwSFtyaCj2ZRSwHke7sPHsCovqGVDLl69mk4beJU/PFDP8DB/n6849T5OHvqTIwdPqKDbXat0wC/8cyj4vBegkXGrdigExk4K8NEmlfe2kbZRoCqdLK7vVodq9bTVX0PX9PubAaAzCg1RVzKS4jbnki++GnknMlVt3gqvJMBQA0kJOnF7IoZQziFVN6PWFWXhwO+1b5wc+38w8sX492nn1vJEKDlLb747g/VqhtLZ06ahomjj8Ha7W/qvU+ZED8zxnHekGxwrExisgPI+LjOjOkUGRVZtVKUR/jzNHbYCMwZPwlL3tho4Gk1fvG0Wcn3B0KzuJi91bsMy/UEUWbGRNYblbe5QuBgPUVBJYimKz1Fw+7xyIRNkfOz8occ3/mhf/kgvm9IcCeUJNLfIrT7ZybJbIv4ox/dhQ07tuHfK/V2d+Pa2acrHAq4GI00FQaZPA1DTgrRUfDM0Ytd8GwAWtdbHTwSPzu3u9HApy99O0YNGWr6D5g06hjcet6VSeg37NqBA0eOeMIYeO3KvV+8q0EaWa1iAdWuddk1dbiDANotsM6s4nhqS3hCUaBXVCldxNNg2vMavuKNzfjpr/9fPLV6Gf690vnTTtJwxQhQajxySlaehUuSEgfL1ViZopvPy8XGPQcP4NWtm5IwnDdlBv783bfg0mknY1hPL0b3DcP1p8zHX970EZx4zLHJdxdsWqtvL41Yi+hpGYSeelXbUCppmAJnU2ivQ+TWWE8HAmoKNpPn85TPlQsGyKCuVU9hTRHMAPKOGOMLZvrZpxVvvI733/5H+NiFV+KXr7oBY4fXvye5TgohYM32rXh81VLc/cpLeG7dKjejFts6TuaCBrEOkbPSnpEE07Y/4E3PEorYVdQ5MjCAe5YuxPyJJyaHOvMnTsVf3PSRjqDubw7g7uUvK2NWRm121JgxCXATAyokLFGvHZYXU7LQIVZ3QSlPezLatSO5dkxbfPBS0UaNZ2qsFR1j+AZCCBgIAXc8+RAeXfEqvvDuD+LCGbPp3RD1GdnE67t34qFli3DPkgVYvHk99hw6oNjFYLRKwGLXRpZh7PARuGT6bFw354xqYISpK768KwaRbaESAh5TCkNlNdb74asL8InzLsf4EaMHTTOWXtmyCS9sWJMzCkxYSv0WxlaRLC4w6QPoso7kKD7x3AY+H7iWr1uNVpyBW6jL3xLzyZnU+iqNhhhEyUFpGz5mZVdu3Yyf/vqf4pbzL8dnrr4RoyqmFFla/eYWfP7u7+CpNcvbc+/ChsmBbF5miGuVIM+PHT4Sl580B9fOPg0XTJuF0X0dwuaNe1HObBY7hpJPgAXsPLAPX37qQfzONTe/JUMi0+H+fvzZkw+Yy97ZjKYdaAt4CyWR4/hE9GE/c7bHaNqJayFH3WrOv/BLQuSLEXzmYRBwFK7PWCX9lVfGZwkg3rFKIN7JO8xXWHOYMzIbdbi/H7f/+EE8vHwxvvCun8JFM2d3dD3XieOOwy3nX47V297Auh1boelkZmogdNmESw1kGD9yFC6cdjLePucMXDBtFkYO6RtUuKQECICbxoMMWUUe5XqS5wmUwHx/8Qs4e9J03HjqmR3CRyAOAbc//yie3/iaXwgDtJxJbbZKrOAXxlbwQEXdTAmk95YBkdSnDOgacu682+pcV8vudJbtyR/eI/L7vuz9waXu6nCk6s67WD6EgB379+EHi1/Ejv17ce6JJ6G3O+0U89TIMsw4djxumHcWdh04gKVbNoqphYzCm4OQZRlG9w3D2+ecgU9f8U585qobcfPp52LmscdjSHfPoO51vv3ph7H70AHtm6VAFWBk9idULUNzxYzQOlX96XWrcMaEKZg0emzHcOYphIDvL3kR//fH96MZmpRHeb9GVAgOFl4rQ3GeaBnS7pHecTfq538yRB9WXdhny6JKUYWQDKdMnUwg6HifVgpbNuO44/H/3vhBXHbSnI6EMoSAh5e/gv919z+3vEWEISeMGo3zp83C9XPPwiUzZmNYxffKddPa7W/iHX/zJRxp9rd56pWACrwHstbNnBmAYb1D8BtX3oib5p2Nrg4vvjw80I87nnsUtz/3qNsNq3YtROGtwMkogSFG9LbRolVbLOmjFMK8nCMgqUn6P7rAC6boOhH4JII1bhYd2tOLD557CT57zbswusOxxRt7duH/e+gu3LngWRwZ6Ecja+C4EaNw0YyTcf3cs3DO1BkYM3T4oDxALB3u78fnfvgt/Mvi5zlPBBGpEWJlNQwVMqCn0YWrZ83F/7zoWkwbe1zluKK/OYDFr2/Anz75AF7cuAbNELhcWc9mcbKRgUEk7jmKxk2XmW4zJUOjfu4nQ1IJKAM4sFFPUUAtBuTUM0TCAfWHuEIPXtp7ZBlOOX4ibrvh/bh05hx0kkIIuH/py3ho+WJcOWsuLpx+cseKVTet3f4m/uzxe/Gvi19oCVfqWuEOrKouqzZMw3qGtGbDZp+GMyZOxQkjRhf9DzSbWL9rO17auBZ3L1uIFza8hiPNAceDShlq12fhU+bAEl4mr1OlFJEjeVRZBmQjf+4Dwd8fDCdQlUpgO63wHiWRQj2EcoAdDJzgde5s7u3uwYfPuwy/dNX1GHeU1y0Gk5qhifU7tuGx1Utxz5IFWLBxbbHVOuadkxeZt99Tj20dpxSWjuXbWZahp6sLw3uHYHTfUDRDwM6D+3Gw/wj6B5qeJ1au2DjP9kgUO3nfOfV2DAeiBJY2yFoKQYEdzJiiylM4hWDIKEq4MUWmKRWFj04UkDFQlmWYffwk3Hb9+3DJzFOOarhTJw00m3hz327ct/RlPLB0ERZtXoc97Q/+613EzhWgylP4UIbxwPaXJd7ndK9jqJITNonwieJIPF1sTEFlPFeIGJJvOXwyVLZCX6kokXAqitAgFDvLMnQ1GvjYBVfil666nn4HcTRTCAHrd27DIyuX4P5XX8bz61cXnoBarho0T4YfbzUml2XOqnr4fMRRwYOIF6DyGPN+UcUmYbnrSij6yFs/EFy/qdiPIsCskgGfxoN8irZssjMtZ/FhDIcYQ2aNn4DP3/B+XDJzzlFbnAJaA85Nu3bgsZWv4gevvIglr2/A3kMHy1GVdeVq0bIOTyq8dYIHlfRVdFI/uMzUCMHreb8OpmSrcErIiJySbSmEo0WFUNXyChx4piBinS2JUNzrWAvlGWDrpYjf292NW86/HJ+++sbK7yyq0uu7d+KBpS/j3lcXYsHGNdh/+BBhiIeXCpVkbB2BMnilBChjjMi8AMVDWMMThlOn0QYrq2VYB+M52u2MuPX9wRFbaEwVwess3nlYOXAuZqwAHtH6XKnrMEXmp40bjy+8+4MdeYtmCFgrNgE+v34V+gcGCA5EKRLxd8z7MZpb25IclFbxJBV6MJASSlFrAZjkYxFJtN8KTxGXIRiFqGIQ7bwDjbbEr8GQOlYqHh96BtQJnyS8fT29+NC5l+BXrr4BY4byscVAs4kte3bigaWLcO+SBa2B8cGDov0EQ6roXWNMZHHoeIozYWmZ566LA5MXBl/HkwdRpeYwd7J4l4249f35NhAez9YRqhpWKkrwirym6dGwUgQnosRWgGYedwI+f8MHcOnMU9DVaCAgYP2ObfjR0kX40dKX8dy6VTjULwfGnuAS5nTMbrZJJzxHfZ4I+ho6ZSxf5SlsWYXlHcwYghkqD1pVSGjhj/CkUIhPthRCRyhpYOvGr8nVx04R9HFAwlMcJRyMVerp6saMY4/HtLHHYcuenVix9XUcOHxY1S+wrGGVkvH3YLwzkPR2MYFhisPg7QyHSMRh/3Q8zqgz1c8Vu1IpAGQjPvm+YJ5UWiV7CFcc2IrFpNoaXQehsr8AzxCHQ5aB7YWuMx2oGWC9UV0csqiwMG9dNp1WCI9D/Zka3oclYkW4pOgWkFL0wXqOeuOk1IKwgUjkG+7TRJmR22TV98L5NlzyXaLJ17vby+btkelZCYJtzIIc+ZQQtqscrvhXl+3X7U2cpFIKB80l/fmsArHMBNu8YqfBwR4D7wSK33nncYjgRHgUIlVlRl1BHKFx/i2C/Ua+MgV7RHRGuvHXOIvXVZnkidnGqFijsI+CWXFgsWNKRAmCe2QZEqEs747WrnMqLD13NTBie8J4HCKARi0Eex40PhUCE7vIkimyFtiS9+rrvDrwgzZvqZKbCa0ADH2iJOzMXE0TDr8mGVMKDXKjpHmgFSTT2AXaBZIWIUoc6LYs0zQeRR3+gbyBrcCB2AlzB4D6yL+NU+WH/07IQOD3QlPw1phLK0r6MAbrKYxhYgJDDBPDU3fLDBWRAwub8n5SPrzSBtVIoit2OoZmJLxaGE8WjDRapaDWSjOzEQxC1rwqBAsmhxjtogxBiDFExgQlQnURiPkCT3D7WkjCX+BpcYLByfVub6WJwWeFyioKeRJMWdwsx3EgAqPby3Q+WGEQLTlPZvhi4XVwBN+0UWqFQyhpTnnKKCG0L26EymJ9T7WyvFE/XiCkXVCFdLFWJEJJBYvcGaAQIlZVCVlCcRI4VB5v3wZCCyj3tjE3zctKpc5SL9jwo4oPKSNTtBeir1YNG3XrFoeQFK1cbN2Vaq6DmHoFhR+lLfPWIt9wTAxgRc5KMdqyUKPyYvMCIWuVLHWDVwBHn1AYKk5sFFZMOH+vFOZ9ZmWjKZR1qJKEFLwlYFKJS4fsvaPy4GjPUFXygDtY7zn8BSeGmAV8lgbOGiOOg5Ur9f1+BIdAZSQTTRbq5XiQMhkNTU/iKWzsx5oLFXlX34YeCoii0Mt+wrJFQbCunKTMvtth6GFxcgIbfasKckQzAqXAqtVw2L59Dp8zfKT5uqc0sratXIVadGINBQ4bIYw9QC/PF7NMcaVwGQiTBRsLFgiRwbctSAYoocx7T5Ry3aXFYXrAPF0xvmE4RokPIBViCcCjoYaxss5TwAiLBcnBq4XKwRY8Eb2lzSRY8kck1GAgWM/GcIhEG9ZbJ1LuNTSukejC4ST4IPKNmI46ggurxDxF9CLFYkAUyjIBDR/kWQbInzEbQO5bs3WskAWCt5LnQBmk5ZAP8qg5sAwnddLhkyzWoQYzHMxyVI6TxJgo6G4pDponcZrzYk0sZlxrKUkw8EmDbJVCwexTw8bbbtECqURYmvAMUY0PUSnh/jpHMOkpLKVYnjXN3pEWJfBFMitUstFgapiZG7ZQpIBjGhfFgSiJI3eg74d4o4XxItTyL0f1Ii1N5AWwIKjWtLikOFMKR+9WPw3XCuCslF5dLVErFIC5vgQDAgVeE5etUzAvzrgSW7eQAm/zpgWVDwZmNlHghYDFwX71NMAOYSI4WLIqIbM4eCWuWkANdB2FY2C9tYdVGqu4Uqu1o4RhKuhfoU8hVcZkVP5oPyeD6riVYgJpFYUxRDElwpC8jahxLIDyljYQHNhCl7IcDn7TZ0TIHU6G+MFz1hgJawFK+CkOBv7KxbsIDsxCV3oKTVhvaVk+aBV3A1cFi4TKypDmk+glAT9fpdfjOu7Z8kcNpQBK4olSRCkXqRYrYwgxt2YVIE4aAy/rvvyVmSJmaTtz8RJe67xEmTMkmt5pmsZhsaKVqudBrhAyMG9dBXrQFS2xI8X0+SDhtYg7wxo4ofXCHPnFBnkKcuGNpWcowwzWdgIh66ppXkCQ9ImWGPZuimD/qBeYla0zx+9XUxnx+bYJTiPznsSBeQEV1horSzxf5VpRIGVO0U3ewG9nc9xakZQhBbPG0b/MZYh6D9lIZux/G4eGLK22hwk7VBRmvFgxpI7r9gIetaqyzHESvsyGGh1iTK1Sah2lVQFskEchYJ6uijkh+qqjC5sWZx2GyrIKRU8BmkCW6IrHsWJMlOPpyWDHQLq/hkdQmkthkYzGOksrgTBuz40fCAJUyy0xnFCV8Mn+KWkcDvCW1rLUWiWDU/VkAVccaZXY1vLS4MY8rIDfeEMFr32PjutSPKD+CvmgWRoqZ8OCx4HNprFxUomjVQ37pwr+mLGVnlMrcUMiGDxvHAKuQ1stiiBpgCgO1/TIa9a7ybxz09YaMCEisCo0fLjhYA08vCvyGSlTQpUDroVOKoFtXGGm7FmAFICIjjr4U/nW+5nJC6EqtDniDYmiMAZYJSt7iOAdg5fiIBhhZEh9D1FsOI0pAAFHAxYVXSok5UJMhEt6pO8YYPsqeJXCIfiMtbyxsiiMCcvqFvMKT8dpUjKCwcwtrWk8JWeus1rbVOLL7BUBUM0wPKToTTyDEYfKcR3DIRJJNFzjhsCVVioiQHGcCMPMV15+kMqonkWYyWmuIAgpGSn8uGi/xCmI5+7VCA4hojQZDN2kwFvPYYCtsJMaXluhTvxthIpvEGzjkKQ58wpkVwFTiiKqIYovGmAbGhleapuHMEyy7QZ1cxII+ZjizCwoQTDxTmzmI8Wg3O1pOhvXLX2XYoohrmOQ5gvHQdOhFkOgRzhsSlaVSYpZZ0kME2OD7MeFfxbWypG7sU9CKSSRk7tkVZ9RYpNigoNpto4cESYpfBoKzsIqRRAiDJICHgjBg+jYxYPK4HDAk1uvo+sUSMCvcVDi6eAnOEg4asyJu26DoXfCvAbD+ag3kTxwneXv+tCDTXZUC1Rw2dTeVAlfMHlDUsUDq0hWKRQPashRDPzyrdaDhme6eVci5FyfRDrumpVoWeAToUVqI5dXYg+0BpUJmbUoxEpxhyLaJ94OOt+plXKSKeBNC5U2TK2UQQmQ4wHgFd2SwGyW62CaPFOPOA8qw6cYAyA4XcEDxxMHfwviRtxK1UlEoCqFijDE0TaNILNSyUY9+VRZ5eyZKvMMYfPdSUMV+ICuEy6EChydVbUUCPEGKT6ueh1PUcGTAMjTSFx7KbJaw2T7qPJ0bEEVcpaJrq7yHmMTKyz88G6OMIStU6TEg/p2g3QRTsVxsPBrQEPp+eicfvmu+Bw8x15b1QhDGE5+0Mf28isXVdLb4ZBQAFFGZTX37gkckiesKFpQmy7yxNOpMm1omaITM1c2WLC0eu2oYZ5qLRdab+PZHNhAFackuLKqEY0OqkGDYwyZkLs+LZls340HPe66SwZkBoQyFikUVrUf8Y6G+GzmRoOVeRxcXqAXNVYRpQgGJ9WW9d5+qzvFgfFL5U3HchGU8MDTTTLd0FxNaxPDGoL/IjKhFA0XTxWk0AzR0/vxmCAdfli37JXEzsJU73AU7wjiMqvkiBvDQT53uh4PLfL3/JRrmiHaOxOlokrB4K+Zd95Z1silTQptQsst/EWbRnMlxMVcLbf1PAaqwEG2TzxD1QSIGFTrAuv63XPCi/TKo0HaORTmOSqAj8R/XmC0ErM5eer9HBpmzcDSyMygZQaHOotfSCiJxsG1ZA2jac4+157D8kBhoXhcZZjYCCIy2eH60m487fk0g5ghCb4TG9x4HNoRR4Myw5YZIWbW0r6q6ilja7Q31lSFUfJ9es8RG3ky/bU4VU0PpkBt5ROLjdH3qoWsqOUMCwjDPQ6MB1EsoivmkRT1bCHxvPwZ9wfMm6S9NwevWqjEoJpYXtsIdYXtaK54VPgp+ZmIwcEqhRcwtm25clq2GAMRHJQXCK43hkMs/ItaVZev8mx89dcZEwe6xdGENzIciXgG6ilY6MHWXkQoUndKE6oPu9ZlaV7yw5HReoqIUVAylPB0lkcNVyHLNLC+zSRC1jUG+jySp/FsOtzwp+nlp5NrhDnB5A9mDkMCfsEQKWRUqOBTTLHbni1zdb07C+oRs5N1lMIw2C2g0q7TifAkRBphOATPHBeWM6VThkoZW29cdf9lvlG+JIkfEQ6PeS2C1VmNZFax+GnymT9IyfQXyGl38ZkaByQxItb7ufADRoAskwx8yf1bJO8ME6VRXFydXhI9jYce3lBVn4VLlCDwMQVSZQYHjxOz2tqAMB4479fG4f8H40Ah/a6bKfIAAAAldEVYdGRhdGU6Y3JlYXRlADIwMjMtMDktMzBUMDM6Mjg6MzcrMDA6MDAFZKF9AAAAJXRFWHRkYXRlOm1vZGlmeQAyMDIzLTA5LTMwVDAzOjI4OjM3KzAwOjAwdDkZwQAAAABJRU5ErkJggg==;" parent="1" vertex="1">
          <mxGeometry x="585" y="391" width="40" height="40" as="geometry" />
        </mxCell>
        <mxCell id="L_KWcjH4mNL9vExOsYk5-19" value="Bedrock &lt;b&gt;LLM&lt;/b&gt; (Mistral 7B Instruct)" style="text;html=1;strokeColor=none;fillColor=none;align=center;verticalAlign=middle;whiteSpace=wrap;rounded=0;" parent="1" vertex="1">
          <mxGeometry x="550" y="432" width="109" height="30" as="geometry" />
        </mxCell>
        <mxCell id="L_KWcjH4mNL9vExOsYk5-20" value="" style="sketch=0;points=[[0,0,0],[0.25,0,0],[0.5,0,0],[0.75,0,0],[1,0,0],[0,1,0],[0.25,1,0],[0.5,1,0],[0.75,1,0],[1,1,0],[0,0.25,0],[0,0.5,0],[0,0.75,0],[1,0.25,0],[1,0.5,0],[1,0.75,0]];outlineConnect=0;fontColor=#232F3E;gradientColor=#F78E04;gradientDirection=north;fillColor=#D05C17;strokeColor=#ffffff;dashed=0;verticalLabelPosition=bottom;verticalAlign=top;align=center;html=1;fontSize=12;fontStyle=0;aspect=fixed;shape=mxgraph.aws4.resourceIcon;resIcon=mxgraph.aws4.lambda;" parent="1" vertex="1">
          <mxGeometry x="140.00000000000003" y="90" width="40" height="40" as="geometry" />
        </mxCell>
        <mxCell id="L_KWcjH4mNL9vExOsYk5-25" value="" style="endArrow=classic;html=1;rounded=0;entryX=0;entryY=0.5;entryDx=0;entryDy=0;entryPerimeter=0;exitX=1;exitY=0.5;exitDx=0;exitDy=0;exitPerimeter=0;strokeWidth=2;" parent="1" edge="1">
          <mxGeometry width="50" height="50" relative="1" as="geometry">
            <mxPoint x="80" y="220" as="sourcePoint" />
            <mxPoint x="140" y="220" as="targetPoint" />
          </mxGeometry>
        </mxCell>
        <mxCell id="L_KWcjH4mNL9vExOsYk5-26" value="" style="endArrow=classic;html=1;rounded=0;entryX=0.5;entryY=1;entryDx=0;entryDy=0;entryPerimeter=0;exitX=0.5;exitY=0;exitDx=0;exitDy=0;exitPerimeter=0;strokeWidth=2;" parent="1" target="L_KWcjH4mNL9vExOsYk5-20" edge="1">
          <mxGeometry width="50" height="50" relative="1" as="geometry">
            <mxPoint x="160" y="200" as="sourcePoint" />
            <mxPoint x="160" y="210" as="targetPoint" />
            <Array as="points">
              <mxPoint x="160" y="153" />
            </Array>
          </mxGeometry>
        </mxCell>
        <mxCell id="L_KWcjH4mNL9vExOsYk5-29" value="" style="endArrow=classic;html=1;rounded=0;entryX=0;entryY=0.5;entryDx=0;entryDy=0;entryPerimeter=0;strokeWidth=2;" parent="1" target="L_KWcjH4mNL9vExOsYk5-4" edge="1">
          <mxGeometry width="50" height="50" relative="1" as="geometry">
            <mxPoint x="171" y="276" as="sourcePoint" />
            <mxPoint x="272" y="283" as="targetPoint" />
            <Array as="points">
              <mxPoint x="171" y="300" />
            </Array>
          </mxGeometry>
        </mxCell>
        <mxCell id="L_KWcjH4mNL9vExOsYk5-30" value="Upload&lt;br&gt;Trigger" style="sketch=0;points=[[0,0,0],[0.25,0,0],[0.5,0,0],[0.75,0,0],[1,0,0],[0,1,0],[0.25,1,0],[0.5,1,0],[0.75,1,0],[1,1,0],[0,0.25,0],[0,0.5,0],[0,0.75,0],[1,0.25,0],[1,0.5,0],[1,0.75,0]];outlineConnect=0;fontColor=#232F3E;gradientColor=#F78E04;gradientDirection=north;fillColor=#D05C17;strokeColor=#ffffff;dashed=0;verticalLabelPosition=bottom;verticalAlign=top;align=center;html=1;fontSize=12;fontStyle=0;aspect=fixed;shape=mxgraph.aws4.resourceIcon;resIcon=mxgraph.aws4.lambda;" parent="1" vertex="1">
          <mxGeometry x="326" y="-28" width="40" height="40" as="geometry" />
        </mxCell>
        <mxCell id="L_KWcjH4mNL9vExOsYk5-31" value="" style="endArrow=classic;html=1;rounded=0;entryX=0;entryY=0.5;entryDx=0;entryDy=0;entryPerimeter=0;strokeWidth=2;" parent="1" source="L_KWcjH4mNL9vExOsYk5-9" target="L_KWcjH4mNL9vExOsYk5-30" edge="1">
          <mxGeometry width="50" height="50" relative="1" as="geometry">
            <mxPoint x="280" y="230" as="sourcePoint" />
            <mxPoint x="330" y="180" as="targetPoint" />
          </mxGeometry>
        </mxCell>
        <mxCell id="L_KWcjH4mNL9vExOsYk5-32" value="" style="endArrow=classic;html=1;rounded=0;exitX=1;exitY=0.5;exitDx=0;exitDy=0;exitPerimeter=0;strokeWidth=2;" parent="1" source="L_KWcjH4mNL9vExOsYk5-30" edge="1">
          <mxGeometry width="50" height="50" relative="1" as="geometry">
            <mxPoint x="280" y="230" as="sourcePoint" />
            <mxPoint x="540" y="-8" as="targetPoint" />
            <Array as="points" />
          </mxGeometry>
        </mxCell>
        <mxCell id="L_KWcjH4mNL9vExOsYk5-35" value="" style="endArrow=classic;startArrow=none;html=1;rounded=0;entryX=0;entryY=0.5;entryDx=0;entryDy=0;exitX=1;exitY=0.5;exitDx=0;exitDy=0;startFill=0;strokeWidth=2;" parent="1" source="L_KWcjH4mNL9vExOsYk5-10" target="L_KWcjH4mNL9vExOsYk5-5" edge="1">
          <mxGeometry width="50" height="50" relative="1" as="geometry">
            <mxPoint x="280" y="230" as="sourcePoint" />
            <mxPoint x="480" y="190" as="targetPoint" />
          </mxGeometry>
        </mxCell>
        <mxCell id="L_KWcjH4mNL9vExOsYk5-40" value="" style="endArrow=classic;startArrow=none;html=1;rounded=0;entryX=0;entryY=0.5;entryDx=0;entryDy=0;exitX=1;exitY=0.5;exitDx=0;exitDy=0;startFill=0;strokeWidth=2;" parent="1" source="L_KWcjH4mNL9vExOsYk5-12" target="L_KWcjH4mNL9vExOsYk5-13" edge="1">
          <mxGeometry width="50" height="50" relative="1" as="geometry">
            <mxPoint x="280" y="230" as="sourcePoint" />
            <mxPoint x="330" y="180" as="targetPoint" />
            <Array as="points" />
          </mxGeometry>
        </mxCell>
        <mxCell id="L_KWcjH4mNL9vExOsYk5-41" value="" style="endArrow=classic;html=1;rounded=0;entryX=0.5;entryY=0;entryDx=0;entryDy=0;exitX=0.5;exitY=1;exitDx=0;exitDy=0;strokeWidth=2;" parent="1" source="L_KWcjH4mNL9vExOsYk5-10" target="L_KWcjH4mNL9vExOsYk5-12" edge="1">
          <mxGeometry width="50" height="50" relative="1" as="geometry">
            <mxPoint x="280" y="230" as="sourcePoint" />
            <mxPoint x="330" y="180" as="targetPoint" />
          </mxGeometry>
        </mxCell>
        <mxCell id="L_KWcjH4mNL9vExOsYk5-43" value="" style="endArrow=classic;startArrow=none;html=1;rounded=0;entryX=0.5;entryY=1;entryDx=0;entryDy=0;exitX=1;exitY=0.5;exitDx=0;exitDy=0;startFill=0;strokeWidth=2;" parent="1" source="L_KWcjH4mNL9vExOsYk5-15" target="L_KWcjH4mNL9vExOsYk5-14" edge="1">
          <mxGeometry width="50" height="50" relative="1" as="geometry">
            <mxPoint x="660" y="198" as="sourcePoint" />
            <mxPoint x="715" y="198" as="targetPoint" />
            <Array as="points">
              <mxPoint x="820" y="300" />
            </Array>
          </mxGeometry>
        </mxCell>
        <mxCell id="L_KWcjH4mNL9vExOsYk5-44" value="" style="endArrow=classic;html=1;rounded=0;entryX=0;entryY=0.5;entryDx=0;entryDy=0;exitX=1;exitY=0.5;exitDx=0;exitDy=0;exitPerimeter=0;strokeWidth=2;" parent="1" source="L_KWcjH4mNL9vExOsYk5-4" target="L_KWcjH4mNL9vExOsYk5-15" edge="1">
          <mxGeometry width="50" height="50" relative="1" as="geometry">
            <mxPoint x="335.0000000000002" y="354" as="sourcePoint" />
            <mxPoint x="330" y="180" as="targetPoint" />
            <Array as="points" />
          </mxGeometry>
        </mxCell>
        <mxCell id="L_KWcjH4mNL9vExOsYk5-47" value="" style="endArrow=classic;html=1;rounded=0;entryX=0;entryY=0.25;entryDx=0;entryDy=0;entryPerimeter=0;strokeWidth=2;" parent="1" target="L_KWcjH4mNL9vExOsYk5-17" edge="1">
          <mxGeometry width="50" height="50" relative="1" as="geometry">
            <mxPoint x="279" y="347" as="sourcePoint" />
            <mxPoint x="595" y="430" as="targetPoint" />
            <Array as="points">
              <mxPoint x="279" y="532" />
            </Array>
          </mxGeometry>
        </mxCell>
        <mxCell id="L_KWcjH4mNL9vExOsYk5-48" value="" style="endArrow=classic;html=1;rounded=0;entryX=0;entryY=0.5;entryDx=0;entryDy=0;strokeWidth=2;" parent="1" target="L_KWcjH4mNL9vExOsYk5-18" edge="1">
          <mxGeometry width="50" height="50" relative="1" as="geometry">
            <mxPoint x="299" y="343" as="sourcePoint" />
            <mxPoint x="596" y="460" as="targetPoint" />
            <Array as="points">
              <mxPoint x="299" y="411" />
            </Array>
          </mxGeometry>
        </mxCell>
        <mxCell id="L_KWcjH4mNL9vExOsYk5-52" value="" style="endArrow=classic;html=1;rounded=0;entryX=0;entryY=0.25;entryDx=0;entryDy=0;entryPerimeter=0;strokeWidth=2;" parent="1" edge="1" source="75Ksel9VNYws9BzMBplG-1">
          <mxGeometry width="50" height="50" relative="1" as="geometry">
            <mxPoint x="-87" y="222" as="sourcePoint" />
            <mxPoint x="40" y="222" as="targetPoint" />
          </mxGeometry>
        </mxCell>
        <mxCell id="L_KWcjH4mNL9vExOsYk5-58" value="Trigger Lambda" style="text;html=1;strokeColor=none;fillColor=none;align=center;verticalAlign=middle;whiteSpace=wrap;rounded=0;" parent="1" vertex="1">
          <mxGeometry x="204" y="-35" width="97" height="20" as="geometry" />
        </mxCell>
        <mxCell id="L_KWcjH4mNL9vExOsYk5-69" value="Get conversation history&amp;nbsp;" style="text;html=1;strokeColor=none;fillColor=none;align=center;verticalAlign=middle;whiteSpace=wrap;rounded=0;" parent="1" vertex="1">
          <mxGeometry x="355" y="506" width="138" height="20" as="geometry" />
        </mxCell>
        <mxCell id="L_KWcjH4mNL9vExOsYk5-71" value="Send context to LLM and get answer" style="text;html=1;strokeColor=none;fillColor=none;align=center;verticalAlign=middle;whiteSpace=wrap;rounded=0;" parent="1" vertex="1">
          <mxGeometry x="359.24" y="415" width="133.76" height="40" as="geometry" />
        </mxCell>
        <mxCell id="L_KWcjH4mNL9vExOsYk5-81" value="Cognito" style="sketch=0;points=[[0,0,0],[0.25,0,0],[0.5,0,0],[0.75,0,0],[1,0,0],[0,1,0],[0.25,1,0],[0.5,1,0],[0.75,1,0],[1,1,0],[0,0.25,0],[0,0.5,0],[0,0.75,0],[1,0.25,0],[1,0.5,0],[1,0.75,0]];outlineConnect=0;fontColor=#232F3E;gradientColor=#F54749;gradientDirection=north;fillColor=#C7131F;strokeColor=#ffffff;dashed=0;verticalLabelPosition=bottom;verticalAlign=top;align=center;html=1;fontSize=12;fontStyle=0;aspect=fixed;shape=mxgraph.aws4.resourceIcon;resIcon=mxgraph.aws4.cognito;" parent="1" vertex="1">
          <mxGeometry x="39" y="340" width="41" height="41" as="geometry" />
        </mxCell>
        <mxCell id="L_KWcjH4mNL9vExOsYk5-82" value="" style="endArrow=classic;html=1;rounded=0;fontColor=#000000;strokeWidth=2;entryX=0.5;entryY=0;entryDx=0;entryDy=0;entryPerimeter=0;exitX=0.5;exitY=1;exitDx=0;exitDy=0;exitPerimeter=0;" parent="1" source="1pyIkd-k8ch_ByLnTKlP-2" target="L_KWcjH4mNL9vExOsYk5-81" edge="1">
          <mxGeometry width="50" height="50" relative="1" as="geometry">
            <mxPoint x="70" y="200" as="sourcePoint" />
            <mxPoint x="198" y="409" as="targetPoint" />
            <Array as="points" />
          </mxGeometry>
        </mxCell>
        <mxCell id="1pyIkd-k8ch_ByLnTKlP-1" value="Api Gateway&lt;br&gt;(REST)" style="sketch=0;points=[[0,0,0],[0.25,0,0],[0.5,0,0],[0.75,0,0],[1,0,0],[0,1,0],[0.25,1,0],[0.5,1,0],[0.75,1,0],[1,1,0],[0,0.25,0],[0,0.5,0],[0,0.75,0],[1,0.25,0],[1,0.5,0],[1,0.75,0]];outlineConnect=0;fontColor=#232F3E;gradientColor=#FF4F8B;gradientDirection=north;fillColor=#BC1356;strokeColor=#ffffff;dashed=0;verticalLabelPosition=bottom;verticalAlign=top;align=center;html=1;fontSize=12;fontStyle=0;aspect=fixed;shape=mxgraph.aws4.resourceIcon;resIcon=mxgraph.aws4.api_gateway;" parent="1" vertex="1">
          <mxGeometry x="140" y="200" width="40" height="40" as="geometry" />
        </mxCell>
        <mxCell id="1pyIkd-k8ch_ByLnTKlP-2" value="Amplify Hosting" style="sketch=0;points=[[0,0,0],[0.25,0,0],[0.5,0,0],[0.75,0,0],[1,0,0],[0,1,0],[0.25,1,0],[0.5,1,0],[0.75,1,0],[1,1,0],[0,0.25,0],[0,0.5,0],[0,0.75,0],[1,0.25,0],[1,0.5,0],[1,0.75,0]];outlineConnect=0;fontColor=#232F3E;gradientColor=#F54749;gradientDirection=north;fillColor=#C7131F;strokeColor=#ffffff;dashed=0;verticalLabelPosition=bottom;verticalAlign=top;align=center;html=1;fontSize=12;fontStyle=0;aspect=fixed;shape=mxgraph.aws4.resourceIcon;resIcon=mxgraph.aws4.amplify;" parent="1" vertex="1">
          <mxGeometry x="40" y="200" width="40" height="40" as="geometry" />
        </mxCell>
        <mxCell id="1pyIkd-k8ch_ByLnTKlP-4" value="Syncing Bedrock KB" style="text;html=1;strokeColor=none;fillColor=none;align=center;verticalAlign=middle;whiteSpace=wrap;rounded=0;" parent="1" vertex="1">
          <mxGeometry x="420" y="-2" width="67" height="21" as="geometry" />
        </mxCell>
        <mxCell id="1pyIkd-k8ch_ByLnTKlP-6" value="CRUD Operations&lt;br&gt;documents, &lt;br&gt;conversations" style="sketch=0;points=[[0,0,0],[0.25,0,0],[0.5,0,0],[0.75,0,0],[1,0,0],[0,1,0],[0.25,1,0],[0.5,1,0],[0.75,1,0],[1,1,0],[0,0.25,0],[0,0.5,0],[0,0.75,0],[1,0.25,0],[1,0.5,0],[1,0.75,0]];outlineConnect=0;fontColor=#232F3E;gradientColor=#F78E04;gradientDirection=north;fillColor=#D05C17;strokeColor=#ffffff;dashed=0;verticalLabelPosition=bottom;verticalAlign=top;align=center;html=1;fontSize=12;fontStyle=0;aspect=fixed;shape=mxgraph.aws4.resourceIcon;resIcon=mxgraph.aws4.lambda;" parent="1" vertex="1">
          <mxGeometry x="183" y="422" width="40" height="40" as="geometry" />
        </mxCell>
        <mxCell id="1pyIkd-k8ch_ByLnTKlP-11" value="" style="endArrow=classic;html=1;rounded=0;entryX=0;entryY=0.5;entryDx=0;entryDy=0;entryPerimeter=0;strokeWidth=2;" parent="1" target="1pyIkd-k8ch_ByLnTKlP-6" edge="1">
          <mxGeometry width="50" height="50" relative="1" as="geometry">
            <mxPoint x="149" y="280" as="sourcePoint" />
            <mxPoint x="360" y="295" as="targetPoint" />
            <Array as="points">
              <mxPoint x="149" y="442" />
            </Array>
          </mxGeometry>
        </mxCell>
        <mxCell id="1pyIkd-k8ch_ByLnTKlP-12" value="" style="endArrow=classic;html=1;rounded=0;entryX=0;entryY=0.75;entryDx=0;entryDy=0;entryPerimeter=0;strokeWidth=2;" parent="1" target="L_KWcjH4mNL9vExOsYk5-17" edge="1">
          <mxGeometry width="50" height="50" relative="1" as="geometry">
            <mxPoint x="205" y="515" as="sourcePoint" />
            <mxPoint x="360" y="295" as="targetPoint" />
            <Array as="points">
              <mxPoint x="205" y="551" />
            </Array>
          </mxGeometry>
        </mxCell>
        <mxCell id="1pyIkd-k8ch_ByLnTKlP-15" value="&lt;font style=&quot;font-size: 10px;&quot;&gt;Authenticate User&lt;/font&gt;" style="text;html=1;strokeColor=none;fillColor=none;align=center;verticalAlign=middle;whiteSpace=wrap;rounded=0;" parent="1" vertex="1">
          <mxGeometry x="6.5" y="406" width="107" height="20" as="geometry" />
        </mxCell>
        <mxCell id="75Ksel9VNYws9BzMBplG-1" value="" style="sketch=0;outlineConnect=0;fontColor=#232F3E;gradientColor=none;fillColor=#232F3D;strokeColor=none;dashed=0;verticalLabelPosition=bottom;verticalAlign=top;align=center;html=1;fontSize=12;fontStyle=0;aspect=fixed;pointerEvents=1;shape=mxgraph.aws4.client;" vertex="1" parent="1">
          <mxGeometry x="-247" y="194" width="59" height="57.49" as="geometry" />
        </mxCell>
        <mxCell id="75Ksel9VNYws9BzMBplG-5" value="User Interface" style="text;html=1;align=center;verticalAlign=middle;whiteSpace=wrap;rounded=0;" vertex="1" parent="1">
          <mxGeometry x="-240" y="261" width="60" height="30" as="geometry" />
        </mxCell>
        <mxCell id="75Ksel9VNYws9BzMBplG-8" style="edgeStyle=orthogonalEdgeStyle;rounded=0;orthogonalLoop=1;jettySize=auto;html=1;entryX=0.5;entryY=0;entryDx=0;entryDy=0;entryPerimeter=0;dashed=1;startArrow=classic;startFill=1;endArrow=none;endFill=0;strokeWidth=2;" edge="1" parent="1" source="L_KWcjH4mNL9vExOsYk5-9" target="1pyIkd-k8ch_ByLnTKlP-2">
          <mxGeometry relative="1" as="geometry" />
        </mxCell>
        <mxCell id="75Ksel9VNYws9BzMBplG-9" value="Generate pre-signed URL" style="text;html=1;align=center;verticalAlign=middle;whiteSpace=wrap;rounded=0;" vertex="1" parent="1">
          <mxGeometry x="183" y="95" width="146" height="30" as="geometry" />
        </mxCell>
        <mxCell id="75Ksel9VNYws9BzMBplG-10" value="Upload document(s)" style="text;html=1;align=center;verticalAlign=middle;whiteSpace=wrap;rounded=0;rotation=-90;" vertex="1" parent="1">
          <mxGeometry x="-29" y="79" width="146" height="30" as="geometry" />
        </mxCell>
        <mxCell id="75Ksel9VNYws9BzMBplG-13" value="AWS Cloud" style="points=[[0,0],[0.25,0],[0.5,0],[0.75,0],[1,0],[1,0.25],[1,0.5],[1,0.75],[1,1],[0.75,1],[0.5,1],[0.25,1],[0,1],[0,0.75],[0,0.5],[0,0.25]];outlineConnect=0;gradientColor=none;html=1;whiteSpace=wrap;fontSize=12;fontStyle=0;container=1;pointerEvents=0;collapsible=0;recursiveResize=0;shape=mxgraph.aws4.group;grIcon=mxgraph.aws4.group_aws_cloud_alt;strokeColor=#232F3E;fillColor=none;verticalAlign=top;align=left;spacingLeft=30;fontColor=#232F3E;dashed=0;" vertex="1" parent="1">
          <mxGeometry x="-116" y="-59" width="1164" height="693" as="geometry" />
        </mxCell>
        <mxCell id="L_KWcjH4mNL9vExOsYk5-9" value="" style="sketch=0;outlineConnect=0;fontColor=#232F3E;gradientColor=none;fillColor=#3F8624;strokeColor=none;dashed=0;verticalLabelPosition=bottom;verticalAlign=top;align=center;html=1;fontSize=12;fontStyle=0;aspect=fixed;pointerEvents=1;shape=mxgraph.aws4.bucket_with_objects;" parent="75Ksel9VNYws9BzMBplG-13" vertex="1">
          <mxGeometry x="256.77" y="28" width="38.47" height="40" as="geometry" />
        </mxCell>
        <mxCell id="75Ksel9VNYws9BzMBplG-14" value="&lt;font style=&quot;font-size: 10px;&quot;&gt;Document Bucket&lt;/font&gt;" style="text;html=1;align=center;verticalAlign=middle;whiteSpace=wrap;rounded=0;" vertex="1" parent="75Ksel9VNYws9BzMBplG-13">
          <mxGeometry x="282" y="68" width="60" height="30" as="geometry" />
        </mxCell>
      </root>
    </mxGraphModel>
  </diagram>
</mxfile>
